<?xml version="1.0" encoding="UTF-8"?>
<svg xmlns="http://www.w3.org/2000/svg" xmlns:xlink="http://www.w3.org/1999/xlink" version="1.1" width="900" height="560" viewBox="0 0 900 560">
<defs>
<clipPath id="clip0"><path d="M58 50h792v460h-792Z"/></clipPath>
<clipPath id="clip1"><path d="M58 50h792v460h-792Z"/></clipPath>
</defs>
<rect width="100%" height="100%" fill="#ffffff"/>
<rect x="0" y="0" width="900" height="560" fill="#ffffff"/>
<text x="450" y="25" font-family="sans-serif" font-size="14" font-weight="bold" text-anchor="middle" fill="#111111" paint-order="stroke">1. Diamond Carat Density</text>
<rect x="58" y="50" width="792" height="460" fill="#ebebeb"/>
<line x1="64.06" y1="50" x2="64.06" y2="510" stroke="#ffffff" stroke-width="0.8"/>
<line x1="213.75" y1="50" x2="213.75" y2="510" stroke="#ffffff" stroke-width="0.8"/>
<line x1="363.44" y1="50" x2="363.44" y2="510" stroke="#ffffff" stroke-width="0.8"/>
<line x1="513.13" y1="50" x2="513.13" y2="510" stroke="#ffffff" stroke-width="0.8"/>
<line x1="662.81" y1="50" x2="662.81" y2="510" stroke="#ffffff" stroke-width="0.8"/>
<line x1="812.5" y1="50" x2="812.5" y2="510" stroke="#ffffff" stroke-width="0.8"/>
<line x1="58" y1="379.87" x2="850" y2="379.87" stroke="#ffffff" stroke-width="0.8"/>
<line x1="58" y1="249.75" x2="850" y2="249.75" stroke="#ffffff" stroke-width="0.8"/>
<line x1="58" y1="119.62" x2="850" y2="119.62" stroke="#ffffff" stroke-width="0.8"/>
<line x1="101.48" y1="50" x2="101.48" y2="510" stroke="#ffffff" stroke-width="0.4"/>
<line x1="138.91" y1="50" x2="138.91" y2="510" stroke="#ffffff" stroke-width="0.4"/>
<line x1="176.33" y1="50" x2="176.33" y2="510" stroke="#ffffff" stroke-width="0.4"/>
<line x1="251.17" y1="50" x2="251.17" y2="510" stroke="#ffffff" stroke-width="0.4"/>
<line x1="288.59" y1="50" x2="288.59" y2="510" stroke="#ffffff" stroke-width="0.4"/>
<line x1="326.02" y1="50" x2="326.02" y2="510" stroke="#ffffff" stroke-width="0.4"/>
<line x1="400.86" y1="50" x2="400.86" y2="510" stroke="#ffffff" stroke-width="0.4"/>
<line x1="438.28" y1="50" x2="438.28" y2="510" stroke="#ffffff" stroke-width="0.4"/>
<line x1="475.7" y1="50" x2="475.7" y2="510" stroke="#ffffff" stroke-width="0.4"/>
<line x1="550.55" y1="50" x2="550.55" y2="510" stroke="#ffffff" stroke-width="0.4"/>
<line x1="587.97" y1="50" x2="587.97" y2="510" stroke="#ffffff" stroke-width="0.4"/>
<line x1="625.39" y1="50" x2="625.39" y2="510" stroke="#ffffff" stroke-width="0.4"/>
<line x1="700.24" y1="50" x2="700.24" y2="510" stroke="#ffffff" stroke-width="0.4"/>
<line x1="737.66" y1="50" x2="737.66" y2="510" stroke="#ffffff" stroke-width="0.4"/>
<line x1="775.08" y1="50" x2="775.08" y2="510" stroke="#ffffff" stroke-width="0.4"/>
<line x1="849.93" y1="50" x2="849.93" y2="510" stroke="#ffffff" stroke-width="0.4"/>
<line x1="58" y1="477.47" x2="850" y2="477.47" stroke="#ffffff" stroke-width="0.4"/>
<line x1="58" y1="444.94" x2="850" y2="444.94" stroke="#ffffff" stroke-width="0.4"/>
<line x1="58" y1="412.41" x2="850" y2="412.41" stroke="#ffffff" stroke-width="0.4"/>
<line x1="58" y1="347.34" x2="850" y2="347.34" stroke="#ffffff" stroke-width="0.4"/>
<line x1="58" y1="314.81" x2="850" y2="314.81" stroke="#ffffff" stroke-width="0.4"/>
<line x1="58" y1="282.28" x2="850" y2="282.28" stroke="#ffffff" stroke-width="0.4"/>
<line x1="58" y1="217.22" x2="850" y2="217.22" stroke="#ffffff" stroke-width="0.4"/>
<line x1="58" y1="184.68" x2="850" y2="184.68" stroke="#ffffff" stroke-width="0.4"/>
<line x1="58" y1="152.15" x2="850" y2="152.15" stroke="#ffffff" stroke-width="0.4"/>
<line x1="58" y1="87.09" x2="850" y2="87.09" stroke="#ffffff" stroke-width="0.4"/>
<line x1="58" y1="54.56" x2="850" y2="54.56" stroke="#ffffff" stroke-width="0.4"/>
<line x1="58" y1="510" x2="850" y2="510" stroke="#333333" stroke-width="1"/>
<line x1="58" y1="50" x2="58" y2="510" stroke="#333333" stroke-width="1"/>
<line x1="64.06" y1="510" x2="64.06" y2="515" stroke="#333333" stroke-width="1"/>
<text x="64.06" y="524" font-family="sans-serif" font-size="9" text-anchor="middle" fill="#555555" paint-order="stroke">0</text>
<line x1="213.75" y1="510" x2="213.75" y2="515" stroke="#333333" stroke-width="1"/>
<text x="213.75" y="524" font-family="sans-serif" font-size="9" text-anchor="middle" fill="#555555" paint-order="stroke">1</text>
<line x1="363.44" y1="510" x2="363.44" y2="515" stroke="#333333" stroke-width="1"/>
<text x="363.44" y="524" font-family="sans-serif" font-size="9" text-anchor="middle" fill="#555555" paint-order="stroke">2</text>
<line x1="513.13" y1="510" x2="513.13" y2="515" stroke="#333333" stroke-width="1"/>
<text x="513.13" y="524" font-family="sans-serif" font-size="9" text-anchor="middle" fill="#555555" paint-order="stroke">3</text>
<line x1="662.81" y1="510" x2="662.81" y2="515" stroke="#333333" stroke-width="1"/>
<text x="662.81" y="524" font-family="sans-serif" font-size="9" text-anchor="middle" fill="#555555" paint-order="stroke">4</text>
<line x1="812.5" y1="510" x2="812.5" y2="515" stroke="#333333" stroke-width="1"/>
<text x="812.5" y="524" font-family="sans-serif" font-size="9" text-anchor="middle" fill="#555555" paint-order="stroke">5</text>
<line x1="58" y1="510" x2="53" y2="510" stroke="#333333" stroke-width="1"/>
<text x="48" y="514" font-family="sans-serif" font-size="9" text-anchor="end" fill="#555555" paint-order="stroke">0</text>
<line x1="58" y1="379.87" x2="53" y2="379.87" stroke="#333333" stroke-width="1"/>
<text x="48" y="383.87" font-family="sans-serif" font-size="9" text-anchor="end" fill="#555555" paint-order="stroke">0.50</text>
<line x1="58" y1="249.75" x2="53" y2="249.75" stroke="#333333" stroke-width="1"/>
<text x="48" y="253.75" font-family="sans-serif" font-size="9" text-anchor="end" fill="#555555" paint-order="stroke">1</text>
<line x1="58" y1="119.62" x2="53" y2="119.62" stroke="#333333" stroke-width="1"/>
<text x="48" y="123.62" font-family="sans-serif" font-size="9" text-anchor="end" fill="#555555" paint-order="stroke">1.5</text>
<g clip-path="url(#clip0)">
<g clip-path="url(#clip1)">
<polygon points="72.33,509.96 73.82,509.92 75.31,509.84 76.81,509.7 78.3,509.44 79.79,509 81.29,508.26 82.78,507.08 84.28,505.26 85.77,502.51 87.26,498.51 88.76,492.83 90.25,484.95 91.74,474.3 93.24,460.22 94.73,442.03 96.23,419.13 97.72,391.06 99.21,357.7 100.71,319.41 102.2,277.17 103.7,232.64 105.19,188.07 106.68,146.11 108.18,109.44 109.67,80.39 111.16,60.56 112.66,50.55 114.15,50 115.65,57.66 117.14,71.76 118.63,90.38 120.13,111.77 121.62,134.52 123.12,157.6 124.61,180.22 126.1,201.7 127.6,221.31 129.09,238.24 130.58,251.68 132.08,261.02 133.57,266.03 135.07,267.04 136.56,264.98 138.05,261.24 139.55,257.5 141.04,255.41 142.54,256.33 144.03,261.11 145.52,269.99 147.02,282.62 148.51,298.13 150,315.29 151.5,332.66 152.99,348.77 154.49,362.2 155.98,371.72 157.47,376.43 158.97,375.8 160.46,369.85 161.96,359.18 163.45,344.97 164.94,328.92 166.44,313.04 167.93,299.38 169.42,289.71 170.92,285.3 172.41,286.68 173.91,293.64 175.4,305.34 176.89,320.45 178.39,337.46 179.88,354.89 181.38,371.43 182.87,386.07 184.36,398.08 185.86,407.01 187.35,412.66 188.84,415.02 190.34,414.32 191.83,410.98 193.33,405.59 194.82,398.86 196.31,391.45 197.81,383.88 199.3,376.31 200.79,368.57 202.29,360.09 203.78,350.14 205.28,338.05 206.77,323.46 208.26,306.62 209.76,288.4 211.25,270.31 212.75,254.19 214.24,241.9 215.73,234.95 217.23,234.17 218.72,239.64 220.21,250.64 221.71,265.9 223.2,283.81 224.7,302.76 226.19,321.33 227.68,338.42 229.18,353.33 230.67,365.68 232.17,375.35 233.66,382.43 235.15,387.14 236.65,389.8 238.14,390.86 239.63,390.86 241.13,390.39 242.62,390.09 244.12,390.53 245.61,392.16 247.1,395.23 248.6,399.8 250.09,405.72 251.59,412.67 253.08,420.28 254.57,428.12 256.07,435.86 257.56,443.21 259.05,450.03 260.55,456.24 262.04,461.83 263.54,466.82 265.03,471.25 266.52,475.11 268.02,478.38 269.51,480.96 271.01,482.71 272.5,483.42 273.99,482.86 275.49,480.77 276.98,476.91 278.47,471.16 279.97,463.53 281.46,454.26 282.96,443.85 284.45,433.02 285.94,422.68 287.44,413.78 288.93,407.16 290.43,403.45 291.92,402.95 293.41,405.57 294.91,410.9 296.4,418.28 297.89,426.94 299.39,436.08 300.88,445.05 302.38,453.33 303.87,460.59 305.36,466.66 306.86,471.51 308.35,475.17 309.84,477.77 311.34,479.47 312.83,480.47 314.33,480.98 315.82,481.24 317.31,481.48 318.81,481.89 320.3,482.62 321.8,483.75 323.29,485.29 324.78,487.19 326.28,489.34 327.77,491.62 329.26,493.9 330.76,496.07 332.25,498.05 333.75,499.8 335.24,501.3 336.73,502.54 338.23,503.55 339.72,504.34 341.22,504.93 342.71,505.3 344.2,505.43 345.7,505.26 347.19,504.73 348.68,503.72 350.18,502.12 351.67,499.81 353.17,496.71 354.66,492.78 356.15,488.12 357.65,482.9 359.14,477.42 360.64,472.07 362.13,467.3 363.62,463.51 365.12,461.02 366.61,460.02 368.1,460.51 369.6,462.35 371.09,465.26 372.59,468.88 374.08,472.85 375.57,476.85 377.07,480.62 378.56,484.02 380.06,486.95 381.55,489.41 383.04,491.44 384.54,493.09 386.03,494.42 387.52,495.52 389.02,496.43 390.51,497.2 392.01,497.89 393.5,498.5 394.99,499.07 396.49,499.6 397.98,500.1 399.48,500.58 400.97,501.04 402.46,501.48 403.96,501.91 405.45,502.33 406.94,502.75 408.44,503.17 409.93,503.59 411.43,504 412.92,504.41 414.41,504.8 415.91,505.15 417.4,505.48 418.89,505.76 420.39,506.01 421.88,506.21 423.38,506.38 424.87,506.52 426.36,506.61 427.86,506.67 429.35,506.69 430.85,506.68 432.34,506.64 433.83,506.58 435.33,506.52 436.82,506.48 438.31,506.47 439.81,506.52 441.3,506.62 442.8,506.78 444.29,506.99 445.78,507.24 447.28,507.51 448.77,507.79 450.27,508.05 451.76,508.29 453.25,508.51 454.75,508.69 456.24,508.84 457.73,508.96 459.23,509.05 460.72,509.13 462.22,509.19 463.71,509.23 465.2,509.27 466.7,509.3 468.19,509.33 469.69,509.36 471.18,509.39 472.67,509.42 474.17,509.45 475.66,509.49 477.15,509.54 478.65,509.59 480.14,509.64 481.64,509.69 483.13,509.73 484.62,509.78 486.12,509.82 487.61,509.86 489.11,509.89 490.6,509.91 492.09,509.93 493.59,509.94 495.08,509.94 496.57,509.93 498.07,509.91 499.56,509.87 501.06,509.81 502.55,509.73 504.04,509.64 505.54,509.53 507.03,509.41 508.52,509.29 510.02,509.18 511.51,509.08 513.01,509.02 514.5,508.99 515.99,509.01 517.49,509.06 518.98,509.14 520.48,509.24 521.97,509.35 523.46,509.47 524.96,509.57 526.45,509.67 527.94,509.75 529.44,509.81 530.93,509.85 532.43,509.89 533.92,509.91 535.41,509.93 536.91,509.93 538.4,509.94 539.9,509.94 541.39,509.93 542.88,509.93 544.38,509.92 545.87,509.92 547.36,509.92 548.86,509.92 550.35,509.93 551.85,509.93 553.34,509.94 554.83,509.95 556.33,509.96 557.82,509.97 559.32,509.97 560.81,509.97 562.3,509.98 563.8,509.98 565.29,509.97 566.78,509.97 568.28,509.96 569.77,509.96 571.27,509.96 572.76,509.95 574.25,509.95 575.75,509.95 577.24,509.94 578.74,509.94 580.23,509.94 581.72,509.93 583.22,509.93 584.71,509.92 586.2,509.92 587.7,509.92 589.19,509.92 590.69,509.92 592.18,509.93 593.67,509.93 595.17,509.94 596.66,509.95 598.16,509.95 599.65,509.95 601.14,509.95 602.64,509.95 604.13,509.95 605.62,509.94 607.12,509.93 608.61,509.93 610.11,509.92 611.6,509.92 613.09,509.92 614.59,509.93 616.08,509.93 617.57,509.94 619.07,509.95 620.56,509.96 622.06,509.97 623.55,509.98 625.04,509.98 626.54,509.99 628.03,509.99 629.53,510 631.02,510 632.51,510 634.01,510 635.5,510 636.99,510 638.49,510 639.98,510 641.48,510 642.97,510 644.46,510 645.96,509.99 647.45,509.99 648.95,509.99 650.44,509.98 651.93,509.97 653.43,509.96 654.92,509.94 656.41,509.93 657.91,509.91 659.4,509.9 660.9,509.89 662.39,509.88 663.88,509.88 665.38,509.88 666.87,509.89 668.37,509.9 669.86,509.91 671.35,509.92 672.85,509.93 674.34,509.94 675.83,509.94 677.33,509.95 678.82,509.95 680.32,509.95 681.81,509.95 683.3,509.96 684.8,509.96 686.29,509.96 687.79,509.97 689.28,509.97 690.77,509.98 692.27,509.98 693.76,509.99 695.25,509.99 696.75,509.99 698.24,510 699.74,510 701.23,510 702.72,510 704.22,510 705.71,510 707.21,510 708.7,510 710.19,510 711.69,510 713.18,510 714.67,510 716.17,510 717.66,510 719.16,510 720.65,510 722.14,510 723.64,509.99 725.13,509.99 726.62,509.99 728.12,509.98 729.61,509.98 731.11,509.97 732.6,509.97 734.09,509.96 735.59,509.96 737.08,509.96 738.58,509.96 740.07,509.96 741.56,509.97 743.06,509.97 744.55,509.97 746.04,509.98 747.54,509.98 749.03,509.99 750.53,509.99 752.02,509.99 753.51,510 755.01,510 756.5,510 758,510 759.49,510 760.98,510 762.48,510 763.97,510 765.46,510 766.96,510 768.45,510 769.95,510 771.44,510 772.93,510 774.43,510 775.92,510 777.42,510 778.91,510 780.4,510 781.9,510 783.39,510 784.88,510 786.38,510 787.87,510 789.37,510 790.86,510 792.35,510 793.85,510 795.34,510 796.84,510 798.33,510 799.82,509.99 801.32,509.99 802.81,509.99 804.3,509.98 805.8,509.98 807.29,509.97 808.79,509.97 810.28,509.97 811.77,509.96 813.27,509.96 814.76,509.96 816.26,509.96 817.75,509.97 819.24,509.97 820.74,509.97 822.23,509.98 823.72,509.98 825.22,509.99 826.71,509.99 828.21,509.99 829.7,510 831.19,510 832.69,510 834.18,510 835.67,510 835.67,510 834.18,510 832.69,510 831.19,510 829.7,510 828.21,510 826.71,510 825.22,510 823.72,510 822.23,510 820.74,510 819.24,510 817.75,510 816.26,510 814.76,510 813.27,510 811.77,510 810.28,510 808.79,510 807.29,510 805.8,510 804.3,510 802.81,510 801.32,510 799.82,510 798.33,510 796.84,510 795.34,510 793.85,510 792.35,510 790.86,510 789.37,510 787.87,510 786.38,510 784.88,510 783.39,510 781.9,510 780.4,510 778.91,510 777.42,510 775.92,510 774.43,510 772.93,510 771.44,510 769.95,510 768.45,510 766.96,510 765.46,510 763.97,510 762.48,510 760.98,510 759.49,510 758,510 756.5,510 755.01,510 753.51,510 752.02,510 750.53,510 749.03,510 747.54,510 746.04,510 744.55,510 743.06,510 741.56,510 740.07,510 738.58,510 737.08,510 735.59,510 734.09,510 732.6,510 731.11,510 729.61,510 728.12,510 726.62,510 725.13,510 723.64,510 722.14,510 720.65,510 719.16,510 717.66,510 716.17,510 714.67,510 713.18,510 711.69,510 710.19,510 708.7,510 707.21,510 705.71,510 704.22,510 702.72,510 701.23,510 699.74,510 698.24,510 696.75,510 695.25,510 693.76,510 692.27,510 690.77,510 689.28,510 687.79,510 686.29,510 684.8,510 683.3,510 681.81,510 680.32,510 678.82,510 677.33,510 675.83,510 674.34,510 672.85,510 671.35,510 669.86,510 668.37,510 666.87,510 665.38,510 663.88,510 662.39,510 660.9,510 659.4,510 657.91,510 656.41,510 654.92,510 653.43,510 651.93,510 650.44,510 648.95,510 647.45,510 645.96,510 644.46,510 642.97,510 641.48,510 639.98,510 638.49,510 636.99,510 635.5,510 634.01,510 632.51,510 631.02,510 629.53,510 628.03,510 626.54,510 625.04,510 623.55,510 622.06,510 620.56,510 619.07,510 617.57,510 616.08,510 614.59,510 613.09,510 611.6,510 610.11,510 608.61,510 607.12,510 605.62,510 604.13,510 602.64,510 601.14,510 599.65,510 598.16,510 596.66,510 595.17,510 593.67,510 592.18,510 590.69,510 589.19,510 587.7,510 586.2,510 584.71,510 583.22,510 581.72,510 580.23,510 578.74,510 577.24,510 575.75,510 574.25,510 572.76,510 571.27,510 569.77,510 568.28,510 566.78,510 565.29,510 563.8,510 562.3,510 560.81,510 559.32,510 557.82,510 556.33,510 554.83,510 553.34,510 551.85,510 550.35,510 548.86,510 547.36,510 545.87,510 544.38,510 542.88,510 541.39,510 539.9,510 538.4,510 536.91,510 535.41,510 533.92,510 532.43,510 530.93,510 529.44,510 527.94,510 526.45,510 524.96,510 523.46,510 521.97,510 520.48,510 518.98,510 517.49,510 515.99,510 514.5,510 513.01,510 511.51,510 510.02,510 508.52,510 507.03,510 505.54,510 504.04,510 502.55,510 501.06,510 499.56,510 498.07,510 496.57,510 495.08,510 493.59,510 492.09,510 490.6,510 489.11,510 487.61,510 486.12,510 484.62,510 483.13,510 481.64,510 480.14,510 478.65,510 477.15,510 475.66,510 474.17,510 472.67,510 471.18,510 469.69,510 468.19,510 466.7,510 465.2,510 463.71,510 462.22,510 460.72,510 459.23,510 457.73,510 456.24,510 454.75,510 453.25,510 451.76,510 450.27,510 448.77,510 447.28,510 445.78,510 444.29,510 442.8,510 441.3,510 439.81,510 438.31,510 436.82,510 435.33,510 433.83,510 432.34,510 430.85,510 429.35,510 427.86,510 426.36,510 424.87,510 423.38,510 421.88,510 420.39,510 418.89,510 417.4,510 415.91,510 414.41,510 412.92,510 411.43,510 409.93,510 408.44,510 406.94,510 405.45,510 403.96,510 402.46,510 400.97,510 399.48,510 397.98,510 396.49,510 394.99,510 393.5,510 392.01,510 390.51,510 389.02,510 387.52,510 386.03,510 384.54,510 383.04,510 381.55,510 380.06,510 378.56,510 377.07,510 375.57,510 374.08,510 372.59,510 371.09,510 369.6,510 368.1,510 366.61,510 365.12,510 363.62,510 362.13,510 360.64,510 359.14,510 357.65,510 356.15,510 354.66,510 353.17,510 351.67,510 350.18,510 348.68,510 347.19,510 345.7,510 344.2,510 342.71,510 341.22,510 339.72,510 338.23,510 336.73,510 335.24,510 333.75,510 332.25,510 330.76,510 329.26,510 327.77,510 326.28,510 324.78,510 323.29,510 321.8,510 320.3,510 318.81,510 317.31,510 315.82,510 314.33,510 312.83,510 311.34,510 309.84,510 308.35,510 306.86,510 305.36,510 303.87,510 302.38,510 300.88,510 299.39,510 297.89,510 296.4,510 294.91,510 293.41,510 291.92,510 290.43,510 288.93,510 287.44,510 285.94,510 284.45,510 282.96,510 281.46,510 279.97,510 278.47,510 276.98,510 275.49,510 273.99,510 272.5,510 271.01,510 269.51,510 268.02,510 266.52,510 265.03,510 263.54,510 262.04,510 260.55,510 259.05,510 257.56,510 256.07,510 254.57,510 253.08,510 251.59,510 250.09,510 248.6,510 247.1,510 245.61,510 244.12,510 242.62,510 241.13,510 239.63,510 238.14,510 236.65,510 235.15,510 233.66,510 232.17,510 230.67,510 229.18,510 227.68,510 226.19,510 224.7,510 223.2,510 221.71,510 220.21,510 218.72,510 217.23,510 215.73,510 214.24,510 212.75,510 211.25,510 209.76,510 208.26,510 206.77,510 205.28,510 203.78,510 202.29,510 200.79,510 199.3,510 197.81,510 196.31,510 194.82,510 193.33,510 191.83,510 190.34,510 188.84,510 187.35,510 185.86,510 184.36,510 182.87,510 181.38,510 179.88,510 178.39,510 176.89,510 175.4,510 173.91,510 172.41,510 170.92,510 169.42,510 167.93,510 166.44,510 164.94,510 163.45,510 161.96,510 160.46,510 158.97,510 157.47,510 155.98,510 154.49,510 152.99,510 151.5,510 150,510 148.51,510 147.02,510 145.52,510 144.03,510 142.54,510 141.04,510 139.55,510 138.05,510 136.56,510 135.07,510 133.57,510 132.08,510 130.58,510 129.09,510 127.6,510 126.1,510 124.61,510 123.12,510 121.62,510 120.13,510 118.63,510 117.14,510 115.65,510 114.15,510 112.66,510 111.16,510 109.67,510 108.18,510 106.68,510 105.19,510 103.7,510 102.2,510 100.71,510 99.21,510 97.72,510 96.23,510 94.73,510 93.24,510 91.74,510 90.25,510 88.76,510 87.26,510 85.77,510 84.28,510 82.78,510 81.29,510 79.79,510 78.3,510 76.81,510 75.31,510 73.82,510 72.33,510" fill="#3182bd" fill-opacity="0.35"/>
<line x1="72.33" y1="509.96" x2="73.82" y2="509.92" stroke="#1c5480" stroke-width="1"/>
<line x1="73.82" y1="509.92" x2="75.31" y2="509.84" stroke="#1c5480" stroke-width="1"/>
<line x1="75.31" y1="509.84" x2="76.81" y2="509.7" stroke="#1c5480" stroke-width="1"/>
<line x1="76.81" y1="509.7" x2="78.3" y2="509.44" stroke="#1c5480" stroke-width="1"/>
<line x1="78.3" y1="509.44" x2="79.79" y2="509" stroke="#1c5480" stroke-width="1"/>
<line x1="79.79" y1="509" x2="81.29" y2="508.26" stroke="#1c5480" stroke-width="1"/>
<line x1="81.29" y1="508.26" x2="82.78" y2="507.08" stroke="#1c5480" stroke-width="1"/>
<line x1="82.78" y1="507.08" x2="84.28" y2="505.26" stroke="#1c5480" stroke-width="1"/>
<line x1="84.28" y1="505.26" x2="85.77" y2="502.51" stroke="#1c5480" stroke-width="1"/>
<line x1="85.77" y1="502.51" x2="87.26" y2="498.51" stroke="#1c5480" stroke-width="1"/>
<line x1="87.26" y1="498.51" x2="88.76" y2="492.83" stroke="#1c5480" stroke-width="1"/>
<line x1="88.76" y1="492.83" x2="90.25" y2="484.95" stroke="#1c5480" stroke-width="1"/>
<line x1="90.25" y1="484.95" x2="91.74" y2="474.3" stroke="#1c5480" stroke-width="1"/>
<line x1="91.74" y1="474.3" x2="93.24" y2="460.22" stroke="#1c5480" stroke-width="1"/>
<line x1="93.24" y1="460.22" x2="94.73" y2="442.03" stroke="#1c5480" stroke-width="1"/>
<line x1="94.73" y1="442.03" x2="96.23" y2="419.13" stroke="#1c5480" stroke-width="1"/>
<line x1="96.23" y1="419.13" x2="97.72" y2="391.06" stroke="#1c5480" stroke-width="1"/>
<line x1="97.72" y1="391.06" x2="99.21" y2="357.7" stroke="#1c5480" stroke-width="1"/>
<line x1="99.21" y1="357.7" x2="100.71" y2="319.41" stroke="#1c5480" stroke-width="1"/>
<line x1="100.71" y1="319.41" x2="102.2" y2="277.17" stroke="#1c5480" stroke-width="1"/>
<line x1="102.2" y1="277.17" x2="103.7" y2="232.64" stroke="#1c5480" stroke-width="1"/>
<line x1="103.7" y1="232.64" x2="105.19" y2="188.07" stroke="#1c5480" stroke-width="1"/>
<line x1="105.19" y1="188.07" x2="106.68" y2="146.11" stroke="#1c5480" stroke-width="1"/>
<line x1="106.68" y1="146.11" x2="108.18" y2="109.44" stroke="#1c5480" stroke-width="1"/>
<line x1="108.18" y1="109.44" x2="109.67" y2="80.39" stroke="#1c5480" stroke-width="1"/>
<line x1="109.67" y1="80.39" x2="111.16" y2="60.56" stroke="#1c5480" stroke-width="1"/>
<line x1="111.16" y1="60.56" x2="112.66" y2="50.55" stroke="#1c5480" stroke-width="1"/>
<line x1="112.66" y1="50.55" x2="114.15" y2="50" stroke="#1c5480" stroke-width="1"/>
<line x1="114.15" y1="50" x2="115.65" y2="57.66" stroke="#1c5480" stroke-width="1"/>
<line x1="115.65" y1="57.66" x2="117.14" y2="71.76" stroke="#1c5480" stroke-width="1"/>
<line x1="117.14" y1="71.76" x2="118.63" y2="90.38" stroke="#1c5480" stroke-width="1"/>
<line x1="118.63" y1="90.38" x2="120.13" y2="111.77" stroke="#1c5480" stroke-width="1"/>
<line x1="120.13" y1="111.77" x2="121.62" y2="134.52" stroke="#1c5480" stroke-width="1"/>
<line x1="121.62" y1="134.52" x2="123.12" y2="157.6" stroke="#1c5480" stroke-width="1"/>
<line x1="123.12" y1="157.6" x2="124.61" y2="180.22" stroke="#1c5480" stroke-width="1"/>
<line x1="124.61" y1="180.22" x2="126.1" y2="201.7" stroke="#1c5480" stroke-width="1"/>
<line x1="126.1" y1="201.7" x2="127.6" y2="221.31" stroke="#1c5480" stroke-width="1"/>
<line x1="127.6" y1="221.31" x2="129.09" y2="238.24" stroke="#1c5480" stroke-width="1"/>
<line x1="129.09" y1="238.24" x2="130.58" y2="251.68" stroke="#1c5480" stroke-width="1"/>
<line x1="130.58" y1="251.68" x2="132.08" y2="261.02" stroke="#1c5480" stroke-width="1"/>
<line x1="132.08" y1="261.02" x2="133.57" y2="266.03" stroke="#1c5480" stroke-width="1"/>
<line x1="133.57" y1="266.03" x2="135.07" y2="267.04" stroke="#1c5480" stroke-width="1"/>
<line x1="135.07" y1="267.04" x2="136.56" y2="264.98" stroke="#1c5480" stroke-width="1"/>
<line x1="136.56" y1="264.98" x2="138.05" y2="261.24" stroke="#1c5480" stroke-width="1"/>
<line x1="138.05" y1="261.24" x2="139.55" y2="257.5" stroke="#1c5480" stroke-width="1"/>
<line x1="139.55" y1="257.5" x2="141.04" y2="255.41" stroke="#1c5480" stroke-width="1"/>
<line x1="141.04" y1="255.41" x2="142.54" y2="256.33" stroke="#1c5480" stroke-width="1"/>
<line x1="142.54" y1="256.33" x2="144.03" y2="261.11" stroke="#1c5480" stroke-width="1"/>
<line x1="144.03" y1="261.11" x2="145.52" y2="269.99" stroke="#1c5480" stroke-width="1"/>
<line x1="145.52" y1="269.99" x2="147.02" y2="282.62" stroke="#1c5480" stroke-width="1"/>
<line x1="147.02" y1="282.62" x2="148.51" y2="298.13" stroke="#1c5480" stroke-width="1"/>
<line x1="148.51" y1="298.13" x2="150" y2="315.29" stroke="#1c5480" stroke-width="1"/>
<line x1="150" y1="315.29" x2="151.5" y2="332.66" stroke="#1c5480" stroke-width="1"/>
<line x1="151.5" y1="332.66" x2="152.99" y2="348.77" stroke="#1c5480" stroke-width="1"/>
<line x1="152.99" y1="348.77" x2="154.49" y2="362.2" stroke="#1c5480" stroke-width="1"/>
<line x1="154.49" y1="362.2" x2="155.98" y2="371.72" stroke="#1c5480" stroke-width="1"/>
<line x1="155.98" y1="371.72" x2="157.47" y2="376.43" stroke="#1c5480" stroke-width="1"/>
<line x1="157.47" y1="376.43" x2="158.97" y2="375.8" stroke="#1c5480" stroke-width="1"/>
<line x1="158.97" y1="375.8" x2="160.46" y2="369.85" stroke="#1c5480" stroke-width="1"/>
<line x1="160.46" y1="369.85" x2="161.96" y2="359.18" stroke="#1c5480" stroke-width="1"/>
<line x1="161.96" y1="359.18" x2="163.45" y2="344.97" stroke="#1c5480" stroke-width="1"/>
<line x1="163.45" y1="344.97" x2="164.94" y2="328.92" stroke="#1c5480" stroke-width="1"/>
<line x1="164.94" y1="328.92" x2="166.44" y2="313.04" stroke="#1c5480" stroke-width="1"/>
<line x1="166.44" y1="313.04" x2="167.93" y2="299.38" stroke="#1c5480" stroke-width="1"/>
<line x1="167.93" y1="299.38" x2="169.42" y2="289.71" stroke="#1c5480" stroke-width="1"/>
<line x1="169.42" y1="289.71" x2="170.92" y2="285.3" stroke="#1c5480" stroke-width="1"/>
<line x1="170.92" y1="285.3" x2="172.41" y2="286.68" stroke="#1c5480" stroke-width="1"/>
<line x1="172.41" y1="286.68" x2="173.91" y2="293.64" stroke="#1c5480" stroke-width="1"/>
<line x1="173.91" y1="293.64" x2="175.4" y2="305.34" stroke="#1c5480" stroke-width="1"/>
<line x1="175.4" y1="305.34" x2="176.89" y2="320.45" stroke="#1c5480" stroke-width="1"/>
<line x1="176.89" y1="320.45" x2="178.39" y2="337.46" stroke="#1c5480" stroke-width="1"/>
<line x1="178.39" y1="337.46" x2="179.88" y2="354.89" stroke="#1c5480" stroke-width="1"/>
<line x1="179.88" y1="354.89" x2="181.38" y2="371.43" stroke="#1c5480" stroke-width="1"/>
<line x1="181.38" y1="371.43" x2="182.87" y2="386.07" stroke="#1c5480" stroke-width="1"/>
<line x1="182.87" y1="386.07" x2="184.36" y2="398.08" stroke="#1c5480" stroke-width="1"/>
<line x1="184.36" y1="398.08" x2="185.86" y2="407.01" stroke="#1c5480" stroke-width="1"/>
<line x1="185.86" y1="407.01" x2="187.35" y2="412.66" stroke="#1c5480" stroke-width="1"/>
<line x1="187.35" y1="412.66" x2="188.84" y2="415.02" stroke="#1c5480" stroke-width="1"/>
<line x1="188.84" y1="415.02" x2="190.34" y2="414.32" stroke="#1c5480" stroke-width="1"/>
<line x1="190.34" y1="414.32" x2="191.83" y2="410.98" stroke="#1c5480" stroke-width="1"/>
<line x1="191.83" y1="410.98" x2="193.33" y2="405.59" stroke="#1c5480" stroke-width="1"/>
<line x1="193.33" y1="405.59" x2="194.82" y2="398.86" stroke="#1c5480" stroke-width="1"/>
<line x1="194.82" y1="398.86" x2="196.31" y2="391.45" stroke="#1c5480" stroke-width="1"/>
<line x1="196.31" y1="391.45" x2="197.81" y2="383.88" stroke="#1c5480" stroke-width="1"/>
<line x1="197.81" y1="383.88" x2="199.3" y2="376.31" stroke="#1c5480" stroke-width="1"/>
<line x1="199.3" y1="376.31" x2="200.79" y2="368.57" stroke="#1c5480" stroke-width="1"/>
<line x1="200.79" y1="368.57" x2="202.29" y2="360.09" stroke="#1c5480" stroke-width="1"/>
<line x1="202.29" y1="360.09" x2="203.78" y2="350.14" stroke="#1c5480" stroke-width="1"/>
<line x1="203.78" y1="350.14" x2="205.28" y2="338.05" stroke="#1c5480" stroke-width="1"/>
<line x1="205.28" y1="338.05" x2="206.77" y2="323.46" stroke="#1c5480" stroke-width="1"/>
<line x1="206.77" y1="323.46" x2="208.26" y2="306.62" stroke="#1c5480" stroke-width="1"/>
<line x1="208.26" y1="306.62" x2="209.76" y2="288.4" stroke="#1c5480" stroke-width="1"/>
<line x1="209.76" y1="288.4" x2="211.25" y2="270.31" stroke="#1c5480" stroke-width="1"/>
<line x1="211.25" y1="270.31" x2="212.75" y2="254.19" stroke="#1c5480" stroke-width="1"/>
<line x1="212.75" y1="254.19" x2="214.24" y2="241.9" stroke="#1c5480" stroke-width="1"/>
<line x1="214.24" y1="241.9" x2="215.73" y2="234.95" stroke="#1c5480" stroke-width="1"/>
<line x1="215.73" y1="234.95" x2="217.23" y2="234.17" stroke="#1c5480" stroke-width="1"/>
<line x1="217.23" y1="234.17" x2="218.72" y2="239.64" stroke="#1c5480" stroke-width="1"/>
<line x1="218.72" y1="239.64" x2="220.21" y2="250.64" stroke="#1c5480" stroke-width="1"/>
<line x1="220.21" y1="250.64" x2="221.71" y2="265.9" stroke="#1c5480" stroke-width="1"/>
<line x1="221.71" y1="265.9" x2="223.2" y2="283.81" stroke="#1c5480" stroke-width="1"/>
<line x1="223.2" y1="283.81" x2="224.7" y2="302.76" stroke="#1c5480" stroke-width="1"/>
<line x1="224.7" y1="302.76" x2="226.19" y2="321.33" stroke="#1c5480" stroke-width="1"/>
<line x1="226.19" y1="321.33" x2="227.68" y2="338.42" stroke="#1c5480" stroke-width="1"/>
<line x1="227.68" y1="338.42" x2="229.18" y2="353.33" stroke="#1c5480" stroke-width="1"/>
<line x1="229.18" y1="353.33" x2="230.67" y2="365.68" stroke="#1c5480" stroke-width="1"/>
<line x1="230.67" y1="365.68" x2="232.17" y2="375.35" stroke="#1c5480" stroke-width="1"/>
<line x1="232.17" y1="375.35" x2="233.66" y2="382.43" stroke="#1c5480" stroke-width="1"/>
<line x1="233.66" y1="382.43" x2="235.15" y2="387.14" stroke="#1c5480" stroke-width="1"/>
<line x1="235.15" y1="387.14" x2="236.65" y2="389.8" stroke="#1c5480" stroke-width="1"/>
<line x1="236.65" y1="389.8" x2="238.14" y2="390.86" stroke="#1c5480" stroke-width="1"/>
<line x1="238.14" y1="390.86" x2="239.63" y2="390.86" stroke="#1c5480" stroke-width="1"/>
<line x1="239.63" y1="390.86" x2="241.13" y2="390.39" stroke="#1c5480" stroke-width="1"/>
<line x1="241.13" y1="390.39" x2="242.62" y2="390.09" stroke="#1c5480" stroke-width="1"/>
<line x1="242.62" y1="390.09" x2="244.12" y2="390.53" stroke="#1c5480" stroke-width="1"/>
<line x1="244.12" y1="390.53" x2="245.61" y2="392.16" stroke="#1c5480" stroke-width="1"/>
<line x1="245.61" y1="392.16" x2="247.1" y2="395.23" stroke="#1c5480" stroke-width="1"/>
<line x1="247.1" y1="395.23" x2="248.6" y2="399.8" stroke="#1c5480" stroke-width="1"/>
<line x1="248.6" y1="399.8" x2="250.09" y2="405.72" stroke="#1c5480" stroke-width="1"/>
<line x1="250.09" y1="405.72" x2="251.59" y2="412.67" stroke="#1c5480" stroke-width="1"/>
<line x1="251.59" y1="412.67" x2="253.08" y2="420.28" stroke="#1c5480" stroke-width="1"/>
<line x1="253.08" y1="420.28" x2="254.57" y2="428.12" stroke="#1c5480" stroke-width="1"/>
<line x1="254.57" y1="428.12" x2="256.07" y2="435.86" stroke="#1c5480" stroke-width="1"/>
<line x1="256.07" y1="435.86" x2="257.56" y2="443.21" stroke="#1c5480" stroke-width="1"/>
<line x1="257.56" y1="443.21" x2="259.05" y2="450.03" stroke="#1c5480" stroke-width="1"/>
<line x1="259.05" y1="450.03" x2="260.55" y2="456.24" stroke="#1c5480" stroke-width="1"/>
<line x1="260.55" y1="456.24" x2="262.04" y2="461.83" stroke="#1c5480" stroke-width="1"/>
<line x1="262.04" y1="461.83" x2="263.54" y2="466.82" stroke="#1c5480" stroke-width="1"/>
<line x1="263.54" y1="466.82" x2="265.03" y2="471.25" stroke="#1c5480" stroke-width="1"/>
<line x1="265.03" y1="471.25" x2="266.52" y2="475.11" stroke="#1c5480" stroke-width="1"/>
<line x1="266.52" y1="475.11" x2="268.02" y2="478.38" stroke="#1c5480" stroke-width="1"/>
<line x1="268.02" y1="478.38" x2="269.51" y2="480.96" stroke="#1c5480" stroke-width="1"/>
<line x1="269.51" y1="480.96" x2="271.01" y2="482.71" stroke="#1c5480" stroke-width="1"/>
<line x1="271.01" y1="482.71" x2="272.5" y2="483.42" stroke="#1c5480" stroke-width="1"/>
<line x1="272.5" y1="483.42" x2="273.99" y2="482.86" stroke="#1c5480" stroke-width="1"/>
<line x1="273.99" y1="482.86" x2="275.49" y2="480.77" stroke="#1c5480" stroke-width="1"/>
<line x1="275.49" y1="480.77" x2="276.98" y2="476.91" stroke="#1c5480" stroke-width="1"/>
<line x1="276.98" y1="476.91" x2="278.47" y2="471.16" stroke="#1c5480" stroke-width="1"/>
<line x1="278.47" y1="471.16" x2="279.97" y2="463.53" stroke="#1c5480" stroke-width="1"/>
<line x1="279.97" y1="463.53" x2="281.46" y2="454.26" stroke="#1c5480" stroke-width="1"/>
<line x1="281.46" y1="454.26" x2="282.96" y2="443.85" stroke="#1c5480" stroke-width="1"/>
<line x1="282.96" y1="443.85" x2="284.45" y2="433.02" stroke="#1c5480" stroke-width="1"/>
<line x1="284.45" y1="433.02" x2="285.94" y2="422.68" stroke="#1c5480" stroke-width="1"/>
<line x1="285.94" y1="422.68" x2="287.44" y2="413.78" stroke="#1c5480" stroke-width="1"/>
<line x1="287.44" y1="413.78" x2="288.93" y2="407.16" stroke="#1c5480" stroke-width="1"/>
<line x1="288.93" y1="407.16" x2="290.43" y2="403.45" stroke="#1c5480" stroke-width="1"/>
<line x1="290.43" y1="403.45" x2="291.92" y2="402.95" stroke="#1c5480" stroke-width="1"/>
<line x1="291.92" y1="402.95" x2="293.41" y2="405.57" stroke="#1c5480" stroke-width="1"/>
<line x1="293.41" y1="405.57" x2="294.91" y2="410.9" stroke="#1c5480" stroke-width="1"/>
<line x1="294.91" y1="410.9" x2="296.4" y2="418.28" stroke="#1c5480" stroke-width="1"/>
<line x1="296.4" y1="418.28" x2="297.89" y2="426.94" stroke="#1c5480" stroke-width="1"/>
<line x1="297.89" y1="426.94" x2="299.39" y2="436.08" stroke="#1c5480" stroke-width="1"/>
<line x1="299.39" y1="436.08" x2="300.88" y2="445.05" stroke="#1c5480" stroke-width="1"/>
<line x1="300.88" y1="445.05" x2="302.38" y2="453.33" stroke="#1c5480" stroke-width="1"/>
<line x1="302.38" y1="453.33" x2="303.87" y2="460.59" stroke="#1c5480" stroke-width="1"/>
<line x1="303.87" y1="460.59" x2="305.36" y2="466.66" stroke="#1c5480" stroke-width="1"/>
<line x1="305.36" y1="466.66" x2="306.86" y2="471.51" stroke="#1c5480" stroke-width="1"/>
<line x1="306.86" y1="471.51" x2="308.35" y2="475.17" stroke="#1c5480" stroke-width="1"/>
<line x1="308.35" y1="475.17" x2="309.84" y2="477.77" stroke="#1c5480" stroke-width="1"/>
<line x1="309.84" y1="477.77" x2="311.34" y2="479.47" stroke="#1c5480" stroke-width="1"/>
<line x1="311.34" y1="479.47" x2="312.83" y2="480.47" stroke="#1c5480" stroke-width="1"/>
<line x1="312.83" y1="480.47" x2="314.33" y2="480.98" stroke="#1c5480" stroke-width="1"/>
<line x1="314.33" y1="480.98" x2="315.82" y2="481.24" stroke="#1c5480" stroke-width="1"/>
<line x1="315.82" y1="481.24" x2="317.31" y2="481.48" stroke="#1c5480" stroke-width="1"/>
<line x1="317.31" y1="481.48" x2="318.81" y2="481.89" stroke="#1c5480" stroke-width="1"/>
<line x1="318.81" y1="481.89" x2="320.3" y2="482.62" stroke="#1c5480" stroke-width="1"/>
<line x1="320.3" y1="482.62" x2="321.8" y2="483.75" stroke="#1c5480" stroke-width="1"/>
<line x1="321.8" y1="483.75" x2="323.29" y2="485.29" stroke="#1c5480" stroke-width="1"/>
<line x1="323.29" y1="485.29" x2="324.78" y2="487.19" stroke="#1c5480" stroke-width="1"/>
<line x1="324.78" y1="487.19" x2="326.28" y2="489.34" stroke="#1c5480" stroke-width="1"/>
<line x1="326.28" y1="489.34" x2="327.77" y2="491.62" stroke="#1c5480" stroke-width="1"/>
<line x1="327.77" y1="491.62" x2="329.26" y2="493.9" stroke="#1c5480" stroke-width="1"/>
<line x1="329.26" y1="493.9" x2="330.76" y2="496.07" stroke="#1c5480" stroke-width="1"/>
<line x1="330.76" y1="496.07" x2="332.25" y2="498.05" stroke="#1c5480" stroke-width="1"/>
<line x1="332.25" y1="498.05" x2="333.75" y2="499.8" stroke="#1c5480" stroke-width="1"/>
<line x1="333.75" y1="499.8" x2="335.24" y2="501.3" stroke="#1c5480" stroke-width="1"/>
<line x1="335.24" y1="501.3" x2="336.73" y2="502.54" stroke="#1c5480" stroke-width="1"/>
<line x1="336.73" y1="502.54" x2="338.23" y2="503.55" stroke="#1c5480" stroke-width="1"/>
<line x1="338.23" y1="503.55" x2="339.72" y2="504.34" stroke="#1c5480" stroke-width="1"/>
<line x1="339.72" y1="504.34" x2="341.22" y2="504.93" stroke="#1c5480" stroke-width="1"/>
<line x1="341.22" y1="504.93" x2="342.71" y2="505.3" stroke="#1c5480" stroke-width="1"/>
<line x1="342.71" y1="505.3" x2="344.2" y2="505.43" stroke="#1c5480" stroke-width="1"/>
<line x1="344.2" y1="505.43" x2="345.7" y2="505.26" stroke="#1c5480" stroke-width="1"/>
<line x1="345.7" y1="505.26" x2="347.19" y2="504.73" stroke="#1c5480" stroke-width="1"/>
<line x1="347.19" y1="504.73" x2="348.68" y2="503.72" stroke="#1c5480" stroke-width="1"/>
<line x1="348.68" y1="503.72" x2="350.18" y2="502.12" stroke="#1c5480" stroke-width="1"/>
<line x1="350.18" y1="502.12" x2="351.67" y2="499.81" stroke="#1c5480" stroke-width="1"/>
<line x1="351.67" y1="499.81" x2="353.17" y2="496.71" stroke="#1c5480" stroke-width="1"/>
<line x1="353.17" y1="496.71" x2="354.66" y2="492.78" stroke="#1c5480" stroke-width="1"/>
<line x1="354.66" y1="492.78" x2="356.15" y2="488.12" stroke="#1c5480" stroke-width="1"/>
<line x1="356.15" y1="488.12" x2="357.65" y2="482.9" stroke="#1c5480" stroke-width="1"/>
<line x1="357.65" y1="482.9" x2="359.14" y2="477.42" stroke="#1c5480" stroke-width="1"/>
<line x1="359.14" y1="477.42" x2="360.64" y2="472.07" stroke="#1c5480" stroke-width="1"/>
<line x1="360.64" y1="472.07" x2="362.13" y2="467.3" stroke="#1c5480" stroke-width="1"/>
<line x1="362.13" y1="467.3" x2="363.62" y2="463.51" stroke="#1c5480" stroke-width="1"/>
<line x1="363.62" y1="463.51" x2="365.12" y2="461.02" stroke="#1c5480" stroke-width="1"/>
<line x1="365.12" y1="461.02" x2="366.61" y2="460.02" stroke="#1c5480" stroke-width="1"/>
<line x1="366.61" y1="460.02" x2="368.1" y2="460.51" stroke="#1c5480" stroke-width="1"/>
<line x1="368.1" y1="460.51" x2="369.6" y2="462.35" stroke="#1c5480" stroke-width="1"/>
<line x1="369.6" y1="462.35" x2="371.09" y2="465.26" stroke="#1c5480" stroke-width="1"/>
<line x1="371.09" y1="465.26" x2="372.59" y2="468.88" stroke="#1c5480" stroke-width="1"/>
<line x1="372.59" y1="468.88" x2="374.08" y2="472.85" stroke="#1c5480" stroke-width="1"/>
<line x1="374.08" y1="472.85" x2="375.57" y2="476.85" stroke="#1c5480" stroke-width="1"/>
<line x1="375.57" y1="476.85" x2="377.07" y2="480.62" stroke="#1c5480" stroke-width="1"/>
<line x1="377.07" y1="480.62" x2="378.56" y2="484.02" stroke="#1c5480" stroke-width="1"/>
<line x1="378.56" y1="484.02" x2="380.06" y2="486.95" stroke="#1c5480" stroke-width="1"/>
<line x1="380.06" y1="486.95" x2="381.55" y2="489.41" stroke="#1c5480" stroke-width="1"/>
<line x1="381.55" y1="489.41" x2="383.04" y2="491.44" stroke="#1c5480" stroke-width="1"/>
<line x1="383.04" y1="491.44" x2="384.54" y2="493.09" stroke="#1c5480" stroke-width="1"/>
<line x1="384.54" y1="493.09" x2="386.03" y2="494.42" stroke="#1c5480" stroke-width="1"/>
<line x1="386.03" y1="494.42" x2="387.52" y2="495.52" stroke="#1c5480" stroke-width="1"/>
<line x1="387.52" y1="495.52" x2="389.02" y2="496.43" stroke="#1c5480" stroke-width="1"/>
<line x1="389.02" y1="496.43" x2="390.51" y2="497.2" stroke="#1c5480" stroke-width="1"/>
<line x1="390.51" y1="497.2" x2="392.01" y2="497.89" stroke="#1c5480" stroke-width="1"/>
<line x1="392.01" y1="497.89" x2="393.5" y2="498.5" stroke="#1c5480" stroke-width="1"/>
<line x1="393.5" y1="498.5" x2="394.99" y2="499.07" stroke="#1c5480" stroke-width="1"/>
<line x1="394.99" y1="499.07" x2="396.49" y2="499.6" stroke="#1c5480" stroke-width="1"/>
<line x1="396.49" y1="499.6" x2="397.98" y2="500.1" stroke="#1c5480" stroke-width="1"/>
<line x1="397.98" y1="500.1" x2="399.48" y2="500.58" stroke="#1c5480" stroke-width="1"/>
<line x1="399.48" y1="500.58" x2="400.97" y2="501.04" stroke="#1c5480" stroke-width="1"/>
<line x1="400.97" y1="501.04" x2="402.46" y2="501.48" stroke="#1c5480" stroke-width="1"/>
<line x1="402.46" y1="501.48" x2="403.96" y2="501.91" stroke="#1c5480" stroke-width="1"/>
<line x1="403.96" y1="501.91" x2="405.45" y2="502.33" stroke="#1c5480" stroke-width="1"/>
<line x1="405.45" y1="502.33" x2="406.94" y2="502.75" stroke="#1c5480" stroke-width="1"/>
<line x1="406.94" y1="502.75" x2="408.44" y2="503.17" stroke="#1c5480" stroke-width="1"/>
<line x1="408.44" y1="503.17" x2="409.93" y2="503.59" stroke="#1c5480" stroke-width="1"/>
<line x1="409.93" y1="503.59" x2="411.43" y2="504" stroke="#1c5480" stroke-width="1"/>
<line x1="411.43" y1="504" x2="412.92" y2="504.41" stroke="#1c5480" stroke-width="1"/>
<line x1="412.92" y1="504.41" x2="414.41" y2="504.8" stroke="#1c5480" stroke-width="1"/>
<line x1="414.41" y1="504.8" x2="415.91" y2="505.15" stroke="#1c5480" stroke-width="1"/>
<line x1="415.91" y1="505.15" x2="417.4" y2="505.48" stroke="#1c5480" stroke-width="1"/>
<line x1="417.4" y1="505.48" x2="418.89" y2="505.76" stroke="#1c5480" stroke-width="1"/>
<line x1="418.89" y1="505.76" x2="420.39" y2="506.01" stroke="#1c5480" stroke-width="1"/>
<line x1="420.39" y1="506.01" x2="421.88" y2="506.21" stroke="#1c5480" stroke-width="1"/>
<line x1="421.88" y1="506.21" x2="423.38" y2="506.38" stroke="#1c5480" stroke-width="1"/>
<line x1="423.38" y1="506.38" x2="424.87" y2="506.52" stroke="#1c5480" stroke-width="1"/>
<line x1="424.87" y1="506.52" x2="426.36" y2="506.61" stroke="#1c5480" stroke-width="1"/>
<line x1="426.36" y1="506.61" x2="427.86" y2="506.67" stroke="#1c5480" stroke-width="1"/>
<line x1="427.86" y1="506.67" x2="429.35" y2="506.69" stroke="#1c5480" stroke-width="1"/>
<line x1="429.35" y1="506.69" x2="430.85" y2="506.68" stroke="#1c5480" stroke-width="1"/>
<line x1="430.85" y1="506.68" x2="432.34" y2="506.64" stroke="#1c5480" stroke-width="1"/>
<line x1="432.34" y1="506.64" x2="433.83" y2="506.58" stroke="#1c5480" stroke-width="1"/>
<line x1="433.83" y1="506.58" x2="435.33" y2="506.52" stroke="#1c5480" stroke-width="1"/>
<line x1="435.33" y1="506.52" x2="436.82" y2="506.48" stroke="#1c5480" stroke-width="1"/>
<line x1="436.82" y1="506.48" x2="438.31" y2="506.47" stroke="#1c5480" stroke-width="1"/>
<line x1="438.31" y1="506.47" x2="439.81" y2="506.52" stroke="#1c5480" stroke-width="1"/>
<line x1="439.81" y1="506.52" x2="441.3" y2="506.62" stroke="#1c5480" stroke-width="1"/>
<line x1="441.3" y1="506.62" x2="442.8" y2="506.78" stroke="#1c5480" stroke-width="1"/>
<line x1="442.8" y1="506.78" x2="444.29" y2="506.99" stroke="#1c5480" stroke-width="1"/>
<line x1="444.29" y1="506.99" x2="445.78" y2="507.24" stroke="#1c5480" stroke-width="1"/>
<line x1="445.78" y1="507.24" x2="447.28" y2="507.51" stroke="#1c5480" stroke-width="1"/>
<line x1="447.28" y1="507.51" x2="448.77" y2="507.79" stroke="#1c5480" stroke-width="1"/>
<line x1="448.77" y1="507.79" x2="450.27" y2="508.05" stroke="#1c5480" stroke-width="1"/>
<line x1="450.27" y1="508.05" x2="451.76" y2="508.29" stroke="#1c5480" stroke-width="1"/>
<line x1="451.76" y1="508.29" x2="453.25" y2="508.51" stroke="#1c5480" stroke-width="1"/>
<line x1="453.25" y1="508.51" x2="454.75" y2="508.69" stroke="#1c5480" stroke-width="1"/>
<line x1="454.75" y1="508.69" x2="456.24" y2="508.84" stroke="#1c5480" stroke-width="1"/>
<line x1="456.24" y1="508.84" x2="457.73" y2="508.96" stroke="#1c5480" stroke-width="1"/>
<line x1="457.73" y1="508.96" x2="459.23" y2="509.05" stroke="#1c5480" stroke-width="1"/>
<line x1="459.23" y1="509.05" x2="460.72" y2="509.13" stroke="#1c5480" stroke-width="1"/>
<line x1="460.72" y1="509.13" x2="462.22" y2="509.19" stroke="#1c5480" stroke-width="1"/>
<line x1="462.22" y1="509.19" x2="463.71" y2="509.23" stroke="#1c5480" stroke-width="1"/>
<line x1="463.71" y1="509.23" x2="465.2" y2="509.27" stroke="#1c5480" stroke-width="1"/>
<line x1="465.2" y1="509.27" x2="466.7" y2="509.3" stroke="#1c5480" stroke-width="1"/>
<line x1="466.7" y1="509.3" x2="468.19" y2="509.33" stroke="#1c5480" stroke-width="1"/>
<line x1="468.19" y1="509.33" x2="469.69" y2="509.36" stroke="#1c5480" stroke-width="1"/>
<line x1="469.69" y1="509.36" x2="471.18" y2="509.39" stroke="#1c5480" stroke-width="1"/>
<line x1="471.18" y1="509.39" x2="472.67" y2="509.42" stroke="#1c5480" stroke-width="1"/>
<line x1="472.67" y1="509.42" x2="474.17" y2="509.45" stroke="#1c5480" stroke-width="1"/>
<line x1="474.17" y1="509.45" x2="475.66" y2="509.49" stroke="#1c5480" stroke-width="1"/>
<line x1="475.66" y1="509.49" x2="477.15" y2="509.54" stroke="#1c5480" stroke-width="1"/>
<line x1="477.15" y1="509.54" x2="478.65" y2="509.59" stroke="#1c5480" stroke-width="1"/>
<line x1="478.65" y1="509.59" x2="480.14" y2="509.64" stroke="#1c5480" stroke-width="1"/>
<line x1="480.14" y1="509.64" x2="481.64" y2="509.69" stroke="#1c5480" stroke-width="1"/>
<line x1="481.64" y1="509.69" x2="483.13" y2="509.73" stroke="#1c5480" stroke-width="1"/>
<line x1="483.13" y1="509.73" x2="484.62" y2="509.78" stroke="#1c5480" stroke-width="1"/>
<line x1="484.62" y1="509.78" x2="486.12" y2="509.82" stroke="#1c5480" stroke-width="1"/>
<line x1="486.12" y1="509.82" x2="487.61" y2="509.86" stroke="#1c5480" stroke-width="1"/>
<line x1="487.61" y1="509.86" x2="489.11" y2="509.89" stroke="#1c5480" stroke-width="1"/>
<line x1="489.11" y1="509.89" x2="490.6" y2="509.91" stroke="#1c5480" stroke-width="1"/>
<line x1="490.6" y1="509.91" x2="492.09" y2="509.93" stroke="#1c5480" stroke-width="1"/>
<line x1="492.09" y1="509.93" x2="493.59" y2="509.94" stroke="#1c5480" stroke-width="1"/>
<line x1="493.59" y1="509.94" x2="495.08" y2="509.94" stroke="#1c5480" stroke-width="1"/>
<line x1="495.08" y1="509.94" x2="496.57" y2="509.93" stroke="#1c5480" stroke-width="1"/>
<line x1="496.57" y1="509.93" x2="498.07" y2="509.91" stroke="#1c5480" stroke-width="1"/>
<line x1="498.07" y1="509.91" x2="499.56" y2="509.87" stroke="#1c5480" stroke-width="1"/>
<line x1="499.56" y1="509.87" x2="501.06" y2="509.81" stroke="#1c5480" stroke-width="1"/>
<line x1="501.06" y1="509.81" x2="502.55" y2="509.73" stroke="#1c5480" stroke-width="1"/>
<line x1="502.55" y1="509.73" x2="504.04" y2="509.64" stroke="#1c5480" stroke-width="1"/>
<line x1="504.04" y1="509.64" x2="505.54" y2="509.53" stroke="#1c5480" stroke-width="1"/>
<line x1="505.54" y1="509.53" x2="507.03" y2="509.41" stroke="#1c5480" stroke-width="1"/>
<line x1="507.03" y1="509.41" x2="508.52" y2="509.29" stroke="#1c5480" stroke-width="1"/>
<line x1="508.52" y1="509.29" x2="510.02" y2="509.18" stroke="#1c5480" stroke-width="1"/>
<line x1="510.02" y1="509.18" x2="511.51" y2="509.08" stroke="#1c5480" stroke-width="1"/>
<line x1="511.51" y1="509.08" x2="513.01" y2="509.02" stroke="#1c5480" stroke-width="1"/>
<line x1="513.01" y1="509.02" x2="514.5" y2="508.99" stroke="#1c5480" stroke-width="1"/>
<line x1="514.5" y1="508.99" x2="515.99" y2="509.01" stroke="#1c5480" stroke-width="1"/>
<line x1="515.99" y1="509.01" x2="517.49" y2="509.06" stroke="#1c5480" stroke-width="1"/>
<line x1="517.49" y1="509.06" x2="518.98" y2="509.14" stroke="#1c5480" stroke-width="1"/>
<line x1="518.98" y1="509.14" x2="520.48" y2="509.24" stroke="#1c5480" stroke-width="1"/>
<line x1="520.48" y1="509.24" x2="521.97" y2="509.35" stroke="#1c5480" stroke-width="1"/>
<line x1="521.97" y1="509.35" x2="523.46" y2="509.47" stroke="#1c5480" stroke-width="1"/>
<line x1="523.46" y1="509.47" x2="524.96" y2="509.57" stroke="#1c5480" stroke-width="1"/>
<line x1="524.96" y1="509.57" x2="526.45" y2="509.67" stroke="#1c5480" stroke-width="1"/>
<line x1="526.45" y1="509.67" x2="527.94" y2="509.75" stroke="#1c5480" stroke-width="1"/>
<line x1="527.94" y1="509.75" x2="529.44" y2="509.81" stroke="#1c5480" stroke-width="1"/>
<line x1="529.44" y1="509.81" x2="530.93" y2="509.85" stroke="#1c5480" stroke-width="1"/>
<line x1="530.93" y1="509.85" x2="532.43" y2="509.89" stroke="#1c5480" stroke-width="1"/>
<line x1="532.43" y1="509.89" x2="533.92" y2="509.91" stroke="#1c5480" stroke-width="1"/>
<line x1="533.92" y1="509.91" x2="535.41" y2="509.93" stroke="#1c5480" stroke-width="1"/>
<line x1="535.41" y1="509.93" x2="536.91" y2="509.93" stroke="#1c5480" stroke-width="1"/>
<line x1="536.91" y1="509.93" x2="538.4" y2="509.94" stroke="#1c5480" stroke-width="1"/>
<line x1="538.4" y1="509.94" x2="539.9" y2="509.94" stroke="#1c5480" stroke-width="1"/>
<line x1="539.9" y1="509.94" x2="541.39" y2="509.93" stroke="#1c5480" stroke-width="1"/>
<line x1="541.39" y1="509.93" x2="542.88" y2="509.93" stroke="#1c5480" stroke-width="1"/>
<line x1="542.88" y1="509.93" x2="544.38" y2="509.92" stroke="#1c5480" stroke-width="1"/>
<line x1="544.38" y1="509.92" x2="545.87" y2="509.92" stroke="#1c5480" stroke-width="1"/>
<line x1="545.87" y1="509.92" x2="547.36" y2="509.92" stroke="#1c5480" stroke-width="1"/>
<line x1="547.36" y1="509.92" x2="548.86" y2="509.92" stroke="#1c5480" stroke-width="1"/>
<line x1="548.86" y1="509.92" x2="550.35" y2="509.93" stroke="#1c5480" stroke-width="1"/>
<line x1="550.35" y1="509.93" x2="551.85" y2="509.93" stroke="#1c5480" stroke-width="1"/>
<line x1="551.85" y1="509.93" x2="553.34" y2="509.94" stroke="#1c5480" stroke-width="1"/>
<line x1="553.34" y1="509.94" x2="554.83" y2="509.95" stroke="#1c5480" stroke-width="1"/>
<line x1="554.83" y1="509.95" x2="556.33" y2="509.96" stroke="#1c5480" stroke-width="1"/>
<line x1="556.33" y1="509.96" x2="557.82" y2="509.97" stroke="#1c5480" stroke-width="1"/>
<line x1="557.82" y1="509.97" x2="559.32" y2="509.97" stroke="#1c5480" stroke-width="1"/>
<line x1="559.32" y1="509.97" x2="560.81" y2="509.97" stroke="#1c5480" stroke-width="1"/>
<line x1="560.81" y1="509.97" x2="562.3" y2="509.98" stroke="#1c5480" stroke-width="1"/>
<line x1="562.3" y1="509.98" x2="563.8" y2="509.98" stroke="#1c5480" stroke-width="1"/>
<line x1="563.8" y1="509.98" x2="565.29" y2="509.97" stroke="#1c5480" stroke-width="1"/>
<line x1="565.29" y1="509.97" x2="566.78" y2="509.97" stroke="#1c5480" stroke-width="1"/>
<line x1="566.78" y1="509.97" x2="568.28" y2="509.96" stroke="#1c5480" stroke-width="1"/>
<line x1="568.28" y1="509.96" x2="569.77" y2="509.96" stroke="#1c5480" stroke-width="1"/>
<line x1="569.77" y1="509.96" x2="571.27" y2="509.96" stroke="#1c5480" stroke-width="1"/>
<line x1="571.27" y1="509.96" x2="572.76" y2="509.95" stroke="#1c5480" stroke-width="1"/>
<line x1="572.76" y1="509.95" x2="574.25" y2="509.95" stroke="#1c5480" stroke-width="1"/>
<line x1="574.25" y1="509.95" x2="575.75" y2="509.95" stroke="#1c5480" stroke-width="1"/>
<line x1="575.75" y1="509.95" x2="577.24" y2="509.94" stroke="#1c5480" stroke-width="1"/>
<line x1="577.24" y1="509.94" x2="578.74" y2="509.94" stroke="#1c5480" stroke-width="1"/>
<line x1="578.74" y1="509.94" x2="580.23" y2="509.94" stroke="#1c5480" stroke-width="1"/>
<line x1="580.23" y1="509.94" x2="581.72" y2="509.93" stroke="#1c5480" stroke-width="1"/>
<line x1="581.72" y1="509.93" x2="583.22" y2="509.93" stroke="#1c5480" stroke-width="1"/>
<line x1="583.22" y1="509.93" x2="584.71" y2="509.92" stroke="#1c5480" stroke-width="1"/>
<line x1="584.71" y1="509.92" x2="586.2" y2="509.92" stroke="#1c5480" stroke-width="1"/>
<line x1="586.2" y1="509.92" x2="587.7" y2="509.92" stroke="#1c5480" stroke-width="1"/>
<line x1="587.7" y1="509.92" x2="589.19" y2="509.92" stroke="#1c5480" stroke-width="1"/>
<line x1="589.19" y1="509.92" x2="590.69" y2="509.92" stroke="#1c5480" stroke-width="1"/>
<line x1="590.69" y1="509.92" x2="592.18" y2="509.93" stroke="#1c5480" stroke-width="1"/>
<line x1="592.18" y1="509.93" x2="593.67" y2="509.93" stroke="#1c5480" stroke-width="1"/>
<line x1="593.67" y1="509.93" x2="595.17" y2="509.94" stroke="#1c5480" stroke-width="1"/>
<line x1="595.17" y1="509.94" x2="596.66" y2="509.95" stroke="#1c5480" stroke-width="1"/>
<line x1="596.66" y1="509.95" x2="598.16" y2="509.95" stroke="#1c5480" stroke-width="1"/>
<line x1="598.16" y1="509.95" x2="599.65" y2="509.95" stroke="#1c5480" stroke-width="1"/>
<line x1="599.65" y1="509.95" x2="601.14" y2="509.95" stroke="#1c5480" stroke-width="1"/>
<line x1="601.14" y1="509.95" x2="602.64" y2="509.95" stroke="#1c5480" stroke-width="1"/>
<line x1="602.64" y1="509.95" x2="604.13" y2="509.95" stroke="#1c5480" stroke-width="1"/>
<line x1="604.13" y1="509.95" x2="605.62" y2="509.94" stroke="#1c5480" stroke-width="1"/>
<line x1="605.62" y1="509.94" x2="607.12" y2="509.93" stroke="#1c5480" stroke-width="1"/>
<line x1="607.12" y1="509.93" x2="608.61" y2="509.93" stroke="#1c5480" stroke-width="1"/>
<line x1="608.61" y1="509.93" x2="610.11" y2="509.92" stroke="#1c5480" stroke-width="1"/>
<line x1="610.11" y1="509.92" x2="611.6" y2="509.92" stroke="#1c5480" stroke-width="1"/>
<line x1="611.6" y1="509.92" x2="613.09" y2="509.92" stroke="#1c5480" stroke-width="1"/>
<line x1="613.09" y1="509.92" x2="614.59" y2="509.93" stroke="#1c5480" stroke-width="1"/>
<line x1="614.59" y1="509.93" x2="616.08" y2="509.93" stroke="#1c5480" stroke-width="1"/>
<line x1="616.08" y1="509.93" x2="617.57" y2="509.94" stroke="#1c5480" stroke-width="1"/>
<line x1="617.57" y1="509.94" x2="619.07" y2="509.95" stroke="#1c5480" stroke-width="1"/>
<line x1="619.07" y1="509.95" x2="620.56" y2="509.96" stroke="#1c5480" stroke-width="1"/>
<line x1="620.56" y1="509.96" x2="622.06" y2="509.97" stroke="#1c5480" stroke-width="1"/>
<line x1="622.06" y1="509.97" x2="623.55" y2="509.98" stroke="#1c5480" stroke-width="1"/>
<line x1="623.55" y1="509.98" x2="625.04" y2="509.98" stroke="#1c5480" stroke-width="1"/>
<line x1="625.04" y1="509.98" x2="626.54" y2="509.99" stroke="#1c5480" stroke-width="1"/>
<line x1="626.54" y1="509.99" x2="628.03" y2="509.99" stroke="#1c5480" stroke-width="1"/>
<line x1="628.03" y1="509.99" x2="629.53" y2="510" stroke="#1c5480" stroke-width="1"/>
<line x1="629.53" y1="510" x2="631.02" y2="510" stroke="#1c5480" stroke-width="1"/>
<line x1="631.02" y1="510" x2="632.51" y2="510" stroke="#1c5480" stroke-width="1"/>
<line x1="632.51" y1="510" x2="634.01" y2="510" stroke="#1c5480" stroke-width="1"/>
<line x1="634.01" y1="510" x2="635.5" y2="510" stroke="#1c5480" stroke-width="1"/>
<line x1="635.5" y1="510" x2="636.99" y2="510" stroke="#1c5480" stroke-width="1"/>
<line x1="636.99" y1="510" x2="638.49" y2="510" stroke="#1c5480" stroke-width="1"/>
<line x1="638.49" y1="510" x2="639.98" y2="510" stroke="#1c5480" stroke-width="1"/>
<line x1="639.98" y1="510" x2="641.48" y2="510" stroke="#1c5480" stroke-width="1"/>
<line x1="641.48" y1="510" x2="642.97" y2="510" stroke="#1c5480" stroke-width="1"/>
<line x1="642.97" y1="510" x2="644.46" y2="510" stroke="#1c5480" stroke-width="1"/>
<line x1="644.46" y1="510" x2="645.96" y2="509.99" stroke="#1c5480" stroke-width="1"/>
<line x1="645.96" y1="509.99" x2="647.45" y2="509.99" stroke="#1c5480" stroke-width="1"/>
<line x1="647.45" y1="509.99" x2="648.95" y2="509.99" stroke="#1c5480" stroke-width="1"/>
<line x1="648.95" y1="509.99" x2="650.44" y2="509.98" stroke="#1c5480" stroke-width="1"/>
<line x1="650.44" y1="509.98" x2="651.93" y2="509.97" stroke="#1c5480" stroke-width="1"/>
<line x1="651.93" y1="509.97" x2="653.43" y2="509.96" stroke="#1c5480" stroke-width="1"/>
<line x1="653.43" y1="509.96" x2="654.92" y2="509.94" stroke="#1c5480" stroke-width="1"/>
<line x1="654.92" y1="509.94" x2="656.41" y2="509.93" stroke="#1c5480" stroke-width="1"/>
<line x1="656.41" y1="509.93" x2="657.91" y2="509.91" stroke="#1c5480" stroke-width="1"/>
<line x1="657.91" y1="509.91" x2="659.4" y2="509.9" stroke="#1c5480" stroke-width="1"/>
<line x1="659.4" y1="509.9" x2="660.9" y2="509.89" stroke="#1c5480" stroke-width="1"/>
<line x1="660.9" y1="509.89" x2="662.39" y2="509.88" stroke="#1c5480" stroke-width="1"/>
<line x1="662.39" y1="509.88" x2="663.88" y2="509.88" stroke="#1c5480" stroke-width="1"/>
<line x1="663.88" y1="509.88" x2="665.38" y2="509.88" stroke="#1c5480" stroke-width="1"/>
<line x1="665.38" y1="509.88" x2="666.87" y2="509.89" stroke="#1c5480" stroke-width="1"/>
<line x1="666.87" y1="509.89" x2="668.37" y2="509.9" stroke="#1c5480" stroke-width="1"/>
<line x1="668.37" y1="509.9" x2="669.86" y2="509.91" stroke="#1c5480" stroke-width="1"/>
<line x1="669.86" y1="509.91" x2="671.35" y2="509.92" stroke="#1c5480" stroke-width="1"/>
<line x1="671.35" y1="509.92" x2="672.85" y2="509.93" stroke="#1c5480" stroke-width="1"/>
<line x1="672.85" y1="509.93" x2="674.34" y2="509.94" stroke="#1c5480" stroke-width="1"/>
<line x1="674.34" y1="509.94" x2="675.83" y2="509.94" stroke="#1c5480" stroke-width="1"/>
<line x1="675.83" y1="509.94" x2="677.33" y2="509.95" stroke="#1c5480" stroke-width="1"/>
<line x1="677.33" y1="509.95" x2="678.82" y2="509.95" stroke="#1c5480" stroke-width="1"/>
<line x1="678.82" y1="509.95" x2="680.32" y2="509.95" stroke="#1c5480" stroke-width="1"/>
<line x1="680.32" y1="509.95" x2="681.81" y2="509.95" stroke="#1c5480" stroke-width="1"/>
<line x1="681.81" y1="509.95" x2="683.3" y2="509.96" stroke="#1c5480" stroke-width="1"/>
<line x1="683.3" y1="509.96" x2="684.8" y2="509.96" stroke="#1c5480" stroke-width="1"/>
<line x1="684.8" y1="509.96" x2="686.29" y2="509.96" stroke="#1c5480" stroke-width="1"/>
<line x1="686.29" y1="509.96" x2="687.79" y2="509.97" stroke="#1c5480" stroke-width="1"/>
<line x1="687.79" y1="509.97" x2="689.28" y2="509.97" stroke="#1c5480" stroke-width="1"/>
<line x1="689.28" y1="509.97" x2="690.77" y2="509.98" stroke="#1c5480" stroke-width="1"/>
<line x1="690.77" y1="509.98" x2="692.27" y2="509.98" stroke="#1c5480" stroke-width="1"/>
<line x1="692.27" y1="509.98" x2="693.76" y2="509.99" stroke="#1c5480" stroke-width="1"/>
<line x1="693.76" y1="509.99" x2="695.25" y2="509.99" stroke="#1c5480" stroke-width="1"/>
<line x1="695.25" y1="509.99" x2="696.75" y2="509.99" stroke="#1c5480" stroke-width="1"/>
<line x1="696.75" y1="509.99" x2="698.24" y2="510" stroke="#1c5480" stroke-width="1"/>
<line x1="698.24" y1="510" x2="699.74" y2="510" stroke="#1c5480" stroke-width="1"/>
<line x1="699.74" y1="510" x2="701.23" y2="510" stroke="#1c5480" stroke-width="1"/>
<line x1="701.23" y1="510" x2="702.72" y2="510" stroke="#1c5480" stroke-width="1"/>
<line x1="702.72" y1="510" x2="704.22" y2="510" stroke="#1c5480" stroke-width="1"/>
<line x1="704.22" y1="510" x2="705.71" y2="510" stroke="#1c5480" stroke-width="1"/>
<line x1="705.71" y1="510" x2="707.21" y2="510" stroke="#1c5480" stroke-width="1"/>
<line x1="707.21" y1="510" x2="708.7" y2="510" stroke="#1c5480" stroke-width="1"/>
<line x1="708.7" y1="510" x2="710.19" y2="510" stroke="#1c5480" stroke-width="1"/>
<line x1="710.19" y1="510" x2="711.69" y2="510" stroke="#1c5480" stroke-width="1"/>
<line x1="711.69" y1="510" x2="713.18" y2="510" stroke="#1c5480" stroke-width="1"/>
<line x1="713.18" y1="510" x2="714.67" y2="510" stroke="#1c5480" stroke-width="1"/>
<line x1="714.67" y1="510" x2="716.17" y2="510" stroke="#1c5480" stroke-width="1"/>
<line x1="716.17" y1="510" x2="717.66" y2="510" stroke="#1c5480" stroke-width="1"/>
<line x1="717.66" y1="510" x2="719.16" y2="510" stroke="#1c5480" stroke-width="1"/>
<line x1="719.16" y1="510" x2="720.65" y2="510" stroke="#1c5480" stroke-width="1"/>
<line x1="720.65" y1="510" x2="722.14" y2="510" stroke="#1c5480" stroke-width="1"/>
<line x1="722.14" y1="510" x2="723.64" y2="509.99" stroke="#1c5480" stroke-width="1"/>
<line x1="723.64" y1="509.99" x2="725.13" y2="509.99" stroke="#1c5480" stroke-width="1"/>
<line x1="725.13" y1="509.99" x2="726.62" y2="509.99" stroke="#1c5480" stroke-width="1"/>
<line x1="726.62" y1="509.99" x2="728.12" y2="509.98" stroke="#1c5480" stroke-width="1"/>
<line x1="728.12" y1="509.98" x2="729.61" y2="509.98" stroke="#1c5480" stroke-width="1"/>
<line x1="729.61" y1="509.98" x2="731.11" y2="509.97" stroke="#1c5480" stroke-width="1"/>
<line x1="731.11" y1="509.97" x2="732.6" y2="509.97" stroke="#1c5480" stroke-width="1"/>
<line x1="732.6" y1="509.97" x2="734.09" y2="509.96" stroke="#1c5480" stroke-width="1"/>
<line x1="734.09" y1="509.96" x2="735.59" y2="509.96" stroke="#1c5480" stroke-width="1"/>
<line x1="735.59" y1="509.96" x2="737.08" y2="509.96" stroke="#1c5480" stroke-width="1"/>
<line x1="737.08" y1="509.96" x2="738.58" y2="509.96" stroke="#1c5480" stroke-width="1"/>
<line x1="738.58" y1="509.96" x2="740.07" y2="509.96" stroke="#1c5480" stroke-width="1"/>
<line x1="740.07" y1="509.96" x2="741.56" y2="509.97" stroke="#1c5480" stroke-width="1"/>
<line x1="741.56" y1="509.97" x2="743.06" y2="509.97" stroke="#1c5480" stroke-width="1"/>
<line x1="743.06" y1="509.97" x2="744.55" y2="509.97" stroke="#1c5480" stroke-width="1"/>
<line x1="744.55" y1="509.97" x2="746.04" y2="509.98" stroke="#1c5480" stroke-width="1"/>
<line x1="746.04" y1="509.98" x2="747.54" y2="509.98" stroke="#1c5480" stroke-width="1"/>
<line x1="747.54" y1="509.98" x2="749.03" y2="509.99" stroke="#1c5480" stroke-width="1"/>
<line x1="749.03" y1="509.99" x2="750.53" y2="509.99" stroke="#1c5480" stroke-width="1"/>
<line x1="750.53" y1="509.99" x2="752.02" y2="509.99" stroke="#1c5480" stroke-width="1"/>
<line x1="752.02" y1="509.99" x2="753.51" y2="510" stroke="#1c5480" stroke-width="1"/>
<line x1="753.51" y1="510" x2="755.01" y2="510" stroke="#1c5480" stroke-width="1"/>
<line x1="755.01" y1="510" x2="756.5" y2="510" stroke="#1c5480" stroke-width="1"/>
<line x1="756.5" y1="510" x2="758" y2="510" stroke="#1c5480" stroke-width="1"/>
<line x1="758" y1="510" x2="759.49" y2="510" stroke="#1c5480" stroke-width="1"/>
<line x1="759.49" y1="510" x2="760.98" y2="510" stroke="#1c5480" stroke-width="1"/>
<line x1="760.98" y1="510" x2="762.48" y2="510" stroke="#1c5480" stroke-width="1"/>
<line x1="762.48" y1="510" x2="763.97" y2="510" stroke="#1c5480" stroke-width="1"/>
<line x1="763.97" y1="510" x2="765.46" y2="510" stroke="#1c5480" stroke-width="1"/>
<line x1="765.46" y1="510" x2="766.96" y2="510" stroke="#1c5480" stroke-width="1"/>
<line x1="766.96" y1="510" x2="768.45" y2="510" stroke="#1c5480" stroke-width="1"/>
<line x1="768.45" y1="510" x2="769.95" y2="510" stroke="#1c5480" stroke-width="1"/>
<line x1="769.95" y1="510" x2="771.44" y2="510" stroke="#1c5480" stroke-width="1"/>
<line x1="771.44" y1="510" x2="772.93" y2="510" stroke="#1c5480" stroke-width="1"/>
<line x1="772.93" y1="510" x2="774.43" y2="510" stroke="#1c5480" stroke-width="1"/>
<line x1="774.43" y1="510" x2="775.92" y2="510" stroke="#1c5480" stroke-width="1"/>
<line x1="775.92" y1="510" x2="777.42" y2="510" stroke="#1c5480" stroke-width="1"/>
<line x1="777.42" y1="510" x2="778.91" y2="510" stroke="#1c5480" stroke-width="1"/>
<line x1="778.91" y1="510" x2="780.4" y2="510" stroke="#1c5480" stroke-width="1"/>
<line x1="780.4" y1="510" x2="781.9" y2="510" stroke="#1c5480" stroke-width="1"/>
<line x1="781.9" y1="510" x2="783.39" y2="510" stroke="#1c5480" stroke-width="1"/>
<line x1="783.39" y1="510" x2="784.88" y2="510" stroke="#1c5480" stroke-width="1"/>
<line x1="784.88" y1="510" x2="786.38" y2="510" stroke="#1c5480" stroke-width="1"/>
<line x1="786.38" y1="510" x2="787.87" y2="510" stroke="#1c5480" stroke-width="1"/>
<line x1="787.87" y1="510" x2="789.37" y2="510" stroke="#1c5480" stroke-width="1"/>
<line x1="789.37" y1="510" x2="790.86" y2="510" stroke="#1c5480" stroke-width="1"/>
<line x1="790.86" y1="510" x2="792.35" y2="510" stroke="#1c5480" stroke-width="1"/>
<line x1="792.35" y1="510" x2="793.85" y2="510" stroke="#1c5480" stroke-width="1"/>
<line x1="793.85" y1="510" x2="795.34" y2="510" stroke="#1c5480" stroke-width="1"/>
<line x1="795.34" y1="510" x2="796.84" y2="510" stroke="#1c5480" stroke-width="1"/>
<line x1="796.84" y1="510" x2="798.33" y2="510" stroke="#1c5480" stroke-width="1"/>
<line x1="798.33" y1="510" x2="799.82" y2="509.99" stroke="#1c5480" stroke-width="1"/>
<line x1="799.82" y1="509.99" x2="801.32" y2="509.99" stroke="#1c5480" stroke-width="1"/>
<line x1="801.32" y1="509.99" x2="802.81" y2="509.99" stroke="#1c5480" stroke-width="1"/>
<line x1="802.81" y1="509.99" x2="804.3" y2="509.98" stroke="#1c5480" stroke-width="1"/>
<line x1="804.3" y1="509.98" x2="805.8" y2="509.98" stroke="#1c5480" stroke-width="1"/>
<line x1="805.8" y1="509.98" x2="807.29" y2="509.97" stroke="#1c5480" stroke-width="1"/>
<line x1="807.29" y1="509.97" x2="808.79" y2="509.97" stroke="#1c5480" stroke-width="1"/>
<line x1="808.79" y1="509.97" x2="810.28" y2="509.97" stroke="#1c5480" stroke-width="1"/>
<line x1="810.28" y1="509.97" x2="811.77" y2="509.96" stroke="#1c5480" stroke-width="1"/>
<line x1="811.77" y1="509.96" x2="813.27" y2="509.96" stroke="#1c5480" stroke-width="1"/>
<line x1="813.27" y1="509.96" x2="814.76" y2="509.96" stroke="#1c5480" stroke-width="1"/>
<line x1="814.76" y1="509.96" x2="816.26" y2="509.96" stroke="#1c5480" stroke-width="1"/>
<line x1="816.26" y1="509.96" x2="817.75" y2="509.97" stroke="#1c5480" stroke-width="1"/>
<line x1="817.75" y1="509.97" x2="819.24" y2="509.97" stroke="#1c5480" stroke-width="1"/>
<line x1="819.24" y1="509.97" x2="820.74" y2="509.97" stroke="#1c5480" stroke-width="1"/>
<line x1="820.74" y1="509.97" x2="822.23" y2="509.98" stroke="#1c5480" stroke-width="1"/>
<line x1="822.23" y1="509.98" x2="823.72" y2="509.98" stroke="#1c5480" stroke-width="1"/>
<line x1="823.72" y1="509.98" x2="825.22" y2="509.99" stroke="#1c5480" stroke-width="1"/>
<line x1="825.22" y1="509.99" x2="826.71" y2="509.99" stroke="#1c5480" stroke-width="1"/>
<line x1="826.71" y1="509.99" x2="828.21" y2="509.99" stroke="#1c5480" stroke-width="1"/>
<line x1="828.21" y1="509.99" x2="829.7" y2="510" stroke="#1c5480" stroke-width="1"/>
<line x1="829.7" y1="510" x2="831.19" y2="510" stroke="#1c5480" stroke-width="1"/>
<line x1="831.19" y1="510" x2="832.69" y2="510" stroke="#1c5480" stroke-width="1"/>
<line x1="832.69" y1="510" x2="834.18" y2="510" stroke="#1c5480" stroke-width="1"/>
<line x1="834.18" y1="510" x2="835.67" y2="510" stroke="#1c5480" stroke-width="1"/>
</g>
</g>
<text x="454" y="545" font-family="sans-serif" font-size="12" text-anchor="middle" fill="#444444" paint-order="stroke">carat</text>
<g transform="translate(21.89,280)">
<g transform="rotate(-90)">
<text x="0" y="0" font-family="sans-serif" font-size="12" text-anchor="middle" fill="#444444" paint-order="stroke">density</text>
</g>
</g>
</svg>
