<?xml version="1.0" encoding="UTF-8"?>
<svg xmlns="http://www.w3.org/2000/svg" xmlns:xlink="http://www.w3.org/1999/xlink" version="1.1" width="900" height="560" viewBox="0 0 900 560">
<defs>
<clipPath id="clip0"><path d="M51 50h799v460h-799Z"/></clipPath>
<clipPath id="clip1"><path d="M51 50h799v460h-799Z"/></clipPath>
</defs>
<rect width="100%" height="100%" fill="#ffffff"/>
<rect x="0" y="0" width="900" height="560" fill="#ffffff"/>
<text x="450" y="25" font-family="sans-serif" font-size="14" font-weight="bold" text-anchor="middle" fill="#111111" paint-order="stroke">ticks &amp; grid: defaults</text>
<rect x="51" y="50" width="799" height="460" fill="#ebebeb"/>
<line x1="141.12" y1="50" x2="141.12" y2="510" stroke="#ffffff" stroke-width="0.8"/>
<line x1="275.63" y1="50" x2="275.63" y2="510" stroke="#ffffff" stroke-width="0.8"/>
<line x1="410.15" y1="50" x2="410.15" y2="510" stroke="#ffffff" stroke-width="0.8"/>
<line x1="544.66" y1="50" x2="544.66" y2="510" stroke="#ffffff" stroke-width="0.8"/>
<line x1="679.17" y1="50" x2="679.17" y2="510" stroke="#ffffff" stroke-width="0.8"/>
<line x1="813.68" y1="50" x2="813.68" y2="510" stroke="#ffffff" stroke-width="0.8"/>
<line x1="51" y1="384.55" x2="850" y2="384.55" stroke="#ffffff" stroke-width="0.8"/>
<line x1="51" y1="253.86" x2="850" y2="253.86" stroke="#ffffff" stroke-width="0.8"/>
<line x1="51" y1="123.18" x2="850" y2="123.18" stroke="#ffffff" stroke-width="0.8"/>
<line x1="73.87" y1="50" x2="73.87" y2="510" stroke="#ffffff" stroke-width="0.4"/>
<line x1="107.49" y1="50" x2="107.49" y2="510" stroke="#ffffff" stroke-width="0.4"/>
<line x1="174.75" y1="50" x2="174.75" y2="510" stroke="#ffffff" stroke-width="0.4"/>
<line x1="208.38" y1="50" x2="208.38" y2="510" stroke="#ffffff" stroke-width="0.4"/>
<line x1="242.01" y1="50" x2="242.01" y2="510" stroke="#ffffff" stroke-width="0.4"/>
<line x1="309.26" y1="50" x2="309.26" y2="510" stroke="#ffffff" stroke-width="0.4"/>
<line x1="342.89" y1="50" x2="342.89" y2="510" stroke="#ffffff" stroke-width="0.4"/>
<line x1="376.52" y1="50" x2="376.52" y2="510" stroke="#ffffff" stroke-width="0.4"/>
<line x1="443.77" y1="50" x2="443.77" y2="510" stroke="#ffffff" stroke-width="0.4"/>
<line x1="477.4" y1="50" x2="477.4" y2="510" stroke="#ffffff" stroke-width="0.4"/>
<line x1="511.03" y1="50" x2="511.03" y2="510" stroke="#ffffff" stroke-width="0.4"/>
<line x1="578.29" y1="50" x2="578.29" y2="510" stroke="#ffffff" stroke-width="0.4"/>
<line x1="611.91" y1="50" x2="611.91" y2="510" stroke="#ffffff" stroke-width="0.4"/>
<line x1="645.54" y1="50" x2="645.54" y2="510" stroke="#ffffff" stroke-width="0.4"/>
<line x1="712.8" y1="50" x2="712.8" y2="510" stroke="#ffffff" stroke-width="0.4"/>
<line x1="746.43" y1="50" x2="746.43" y2="510" stroke="#ffffff" stroke-width="0.4"/>
<line x1="780.05" y1="50" x2="780.05" y2="510" stroke="#ffffff" stroke-width="0.4"/>
<line x1="847.31" y1="50" x2="847.31" y2="510" stroke="#ffffff" stroke-width="0.4"/>
<line x1="51" y1="482.56" x2="850" y2="482.56" stroke="#ffffff" stroke-width="0.4"/>
<line x1="51" y1="449.89" x2="850" y2="449.89" stroke="#ffffff" stroke-width="0.4"/>
<line x1="51" y1="417.22" x2="850" y2="417.22" stroke="#ffffff" stroke-width="0.4"/>
<line x1="51" y1="351.88" x2="850" y2="351.88" stroke="#ffffff" stroke-width="0.4"/>
<line x1="51" y1="319.2" x2="850" y2="319.2" stroke="#ffffff" stroke-width="0.4"/>
<line x1="51" y1="286.53" x2="850" y2="286.53" stroke="#ffffff" stroke-width="0.4"/>
<line x1="51" y1="221.19" x2="850" y2="221.19" stroke="#ffffff" stroke-width="0.4"/>
<line x1="51" y1="188.52" x2="850" y2="188.52" stroke="#ffffff" stroke-width="0.4"/>
<line x1="51" y1="155.85" x2="850" y2="155.85" stroke="#ffffff" stroke-width="0.4"/>
<line x1="51" y1="90.51" x2="850" y2="90.51" stroke="#ffffff" stroke-width="0.4"/>
<line x1="51" y1="57.84" x2="850" y2="57.84" stroke="#ffffff" stroke-width="0.4"/>
<line x1="51" y1="510" x2="850" y2="510" stroke="#333333" stroke-width="1"/>
<line x1="51" y1="50" x2="51" y2="510" stroke="#333333" stroke-width="1"/>
<line x1="141.12" y1="510" x2="141.12" y2="515" stroke="#333333" stroke-width="1"/>
<text x="141.12" y="524" font-family="sans-serif" font-size="9" text-anchor="middle" fill="#555555" paint-order="stroke">2</text>
<line x1="275.63" y1="510" x2="275.63" y2="515" stroke="#333333" stroke-width="1"/>
<text x="275.63" y="524" font-family="sans-serif" font-size="9" text-anchor="middle" fill="#555555" paint-order="stroke">3</text>
<line x1="410.15" y1="510" x2="410.15" y2="515" stroke="#333333" stroke-width="1"/>
<text x="410.15" y="524" font-family="sans-serif" font-size="9" text-anchor="middle" fill="#555555" paint-order="stroke">4</text>
<line x1="544.66" y1="510" x2="544.66" y2="515" stroke="#333333" stroke-width="1"/>
<text x="544.66" y="524" font-family="sans-serif" font-size="9" text-anchor="middle" fill="#555555" paint-order="stroke">5</text>
<line x1="679.17" y1="510" x2="679.17" y2="515" stroke="#333333" stroke-width="1"/>
<text x="679.17" y="524" font-family="sans-serif" font-size="9" text-anchor="middle" fill="#555555" paint-order="stroke">6</text>
<line x1="813.68" y1="510" x2="813.68" y2="515" stroke="#333333" stroke-width="1"/>
<text x="813.68" y="524" font-family="sans-serif" font-size="9" text-anchor="middle" fill="#555555" paint-order="stroke">7</text>
<line x1="51" y1="384.55" x2="46" y2="384.55" stroke="#333333" stroke-width="1"/>
<text x="41" y="388.55" font-family="sans-serif" font-size="9" text-anchor="end" fill="#555555" paint-order="stroke">20</text>
<line x1="51" y1="253.86" x2="46" y2="253.86" stroke="#333333" stroke-width="1"/>
<text x="41" y="257.86" font-family="sans-serif" font-size="9" text-anchor="end" fill="#555555" paint-order="stroke">30</text>
<line x1="51" y1="123.18" x2="46" y2="123.18" stroke="#333333" stroke-width="1"/>
<text x="41" y="127.18" font-family="sans-serif" font-size="9" text-anchor="end" fill="#555555" paint-order="stroke">40</text>
<g clip-path="url(#clip0)">
<g clip-path="url(#clip1)">
<g fill="#e31a1c"><circle cx="114.22" cy="266.93" r="1"/><circle cx="114.22" cy="266.93" r="1"/><circle cx="141.12" cy="240.8" r="1"/><circle cx="141.12" cy="253.86" r="1"/><circle cx="248.73" cy="306.14" r="1"/><circle cx="248.73" cy="306.14" r="1"/><circle cx="289.09" cy="293.07" r="1"/><circle cx="114.22" cy="306.14" r="1"/><circle cx="114.22" cy="319.2" r="1"/><circle cx="141.12" cy="280" r="1"/><circle cx="141.12" cy="293.07" r="1"/><circle cx="248.73" cy="319.2" r="1"/><circle cx="248.73" cy="319.2" r="1"/><circle cx="289.09" cy="319.2" r="1"/><circle cx="289.09" cy="319.2" r="1"/><circle cx="248.73" cy="332.27" r="1"/><circle cx="289.09" cy="319.2" r="1"/><circle cx="437.05" cy="345.34" r="1"/><circle cx="585.01" cy="384.55" r="1"/><circle cx="585.01" cy="449.89" r="1"/><circle cx="585.01" cy="384.55" r="1"/><circle cx="638.82" cy="423.75" r="1"/><circle cx="679.17" cy="423.75" r="1"/><circle cx="638.82" cy="306.14" r="1"/><circle cx="638.82" cy="345.34" r="1"/><circle cx="706.07" cy="306.14" r="1"/><circle cx="706.07" cy="319.2" r="1"/><circle cx="813.68" cy="332.27" r="1"/><circle cx="585.01" cy="397.61" r="1"/><circle cx="585.01" cy="462.95" r="1"/><circle cx="638.82" cy="449.89" r="1"/><circle cx="746.43" cy="423.75" r="1"/><circle cx="194.93" cy="293.07" r="1"/><circle cx="194.93" cy="253.86" r="1"/><circle cx="289.09" cy="306.14" r="1"/><circle cx="342.89" cy="266.93" r="1"/><circle cx="356.34" cy="306.14" r="1"/><circle cx="194.93" cy="332.27" r="1"/><circle cx="275.63" cy="332.27" r="1"/><circle cx="315.99" cy="358.41" r="1"/><circle cx="315.99" cy="358.41" r="1"/><circle cx="315.99" cy="332.27" r="1"/><circle cx="315.99" cy="332.27" r="1"/><circle cx="315.99" cy="423.75" r="1"/><circle cx="383.24" cy="358.41" r="1"/><circle cx="383.24" cy="371.48" r="1"/><circle cx="383.24" cy="345.34" r="1"/><circle cx="410.15" cy="345.34" r="1"/><circle cx="369.79" cy="397.61" r="1"/><circle cx="369.79" cy="410.68" r="1"/><circle cx="396.7" cy="423.75" r="1"/><circle cx="396.7" cy="423.75" r="1"/><circle cx="504.3" cy="397.61" r="1"/><circle cx="504.3" cy="397.61" r="1"/><circle cx="504.3" cy="489.09" r="1"/><circle cx="571.56" cy="423.75" r="1"/><circle cx="571.56" cy="449.89" r="1"/><circle cx="396.7" cy="423.75" r="1"/><circle cx="504.3" cy="423.75" r="1"/><circle cx="504.3" cy="489.09" r="1"/><circle cx="504.3" cy="423.75" r="1"/><circle cx="571.56" cy="436.82" r="1"/><circle cx="638.82" cy="410.68" r="1"/><circle cx="665.72" cy="449.89" r="1"/><circle cx="504.3" cy="436.82" r="1"/><circle cx="504.3" cy="489.09" r="1"/><circle cx="504.3" cy="423.75" r="1"/><circle cx="504.3" cy="423.75" r="1"/><circle cx="504.3" cy="436.82" r="1"/><circle cx="504.3" cy="489.09" r="1"/><circle cx="571.56" cy="449.89" r="1"/><circle cx="571.56" cy="436.82" r="1"/><circle cx="638.82" cy="423.75" r="1"/><circle cx="665.72" cy="449.89" r="1"/><circle cx="490.85" cy="423.75" r="1"/><circle cx="598.46" cy="423.75" r="1"/><circle cx="598.46" cy="410.68" r="1"/><circle cx="410.15" cy="423.75" r="1"/><circle cx="410.15" cy="397.61" r="1"/><circle cx="410.15" cy="423.75" r="1"/><circle cx="410.15" cy="397.61" r="1"/><circle cx="490.85" cy="397.61" r="1"/><circle cx="544.66" cy="423.75" r="1"/><circle cx="437.05" cy="423.75" r="1"/><circle cx="437.05" cy="423.75" r="1"/><circle cx="490.85" cy="436.82" r="1"/><circle cx="490.85" cy="436.82" r="1"/><circle cx="490.85" cy="423.75" r="1"/><circle cx="598.46" cy="449.89" r="1"/><circle cx="598.46" cy="423.75" r="1"/><circle cx="383.24" cy="306.14" r="1"/><circle cx="383.24" cy="319.2" r="1"/><circle cx="410.15" cy="306.14" r="1"/><circle cx="410.15" cy="332.27" r="1"/><circle cx="490.85" cy="371.48" r="1"/><circle cx="490.85" cy="358.41" r="1"/><circle cx="490.85" cy="345.34" r="1"/><circle cx="490.85" cy="358.41" r="1"/><circle cx="598.46" cy="384.55" r="1"/><circle cx="87.32" cy="214.66" r="1"/><circle cx="87.32" cy="227.73" r="1"/><circle cx="87.32" cy="227.73" r="1"/><circle cx="87.32" cy="266.93" r="1"/><circle cx="87.32" cy="227.73" r="1"/><circle cx="114.22" cy="201.59" r="1"/><circle cx="114.22" cy="175.45" r="1"/><circle cx="114.22" cy="175.45" r="1"/><circle cx="141.12" cy="266.93" r="1"/><circle cx="194.93" cy="306.14" r="1"/><circle cx="194.93" cy="293.07" r="1"/><circle cx="194.93" cy="253.86" r="1"/><circle cx="194.93" cy="240.8" r="1"/><circle cx="208.38" cy="306.14" r="1"/><circle cx="208.38" cy="306.14" r="1"/><circle cx="315.99" cy="280" r="1"/><circle cx="141.12" cy="306.14" r="1"/><circle cx="141.12" cy="266.93" r="1"/><circle cx="141.12" cy="280" r="1"/><circle cx="141.12" cy="293.07" r="1"/><circle cx="235.28" cy="332.27" r="1"/><circle cx="235.28" cy="332.27" r="1"/><circle cx="235.28" cy="332.27" r="1"/><circle cx="275.63" cy="358.41" r="1"/><circle cx="369.79" cy="397.61" r="1"/><circle cx="410.15" cy="384.55" r="1"/><circle cx="504.3" cy="423.75" r="1"/><circle cx="504.3" cy="489.09" r="1"/><circle cx="504.3" cy="397.61" r="1"/><circle cx="638.82" cy="410.68" r="1"/><circle cx="692.62" cy="462.95" r="1"/><circle cx="410.15" cy="449.89" r="1"/><circle cx="437.05" cy="410.68" r="1"/><circle cx="463.95" cy="410.68" r="1"/><circle cx="490.85" cy="449.89" r="1"/><circle cx="598.46" cy="423.75" r="1"/><circle cx="598.46" cy="436.82" r="1"/><circle cx="598.46" cy="410.68" r="1"/><circle cx="410.15" cy="423.75" r="1"/><circle cx="410.15" cy="397.61" r="1"/><circle cx="490.85" cy="397.61" r="1"/><circle cx="544.66" cy="423.75" r="1"/><circle cx="194.93" cy="266.93" r="1"/><circle cx="194.93" cy="293.07" r="1"/><circle cx="208.38" cy="240.8" r="1"/><circle cx="208.38" cy="227.73" r="1"/><circle cx="342.89" cy="293.07" r="1"/><circle cx="342.89" cy="306.14" r="1"/><circle cx="275.63" cy="306.14" r="1"/><circle cx="275.63" cy="319.2" r="1"/><circle cx="342.89" cy="319.2" r="1"/><circle cx="315.99" cy="423.75" r="1"/><circle cx="315.99" cy="423.75" r="1"/><circle cx="410.15" cy="384.55" r="1"/><circle cx="625.37" cy="410.68" r="1"/><circle cx="289.09" cy="306.14" r="1"/><circle cx="383.24" cy="306.14" r="1"/><circle cx="383.24" cy="293.07" r="1"/><circle cx="383.24" cy="280" r="1"/><circle cx="585.01" cy="319.2" r="1"/><circle cx="208.38" cy="319.2" r="1"/><circle cx="208.38" cy="332.27" r="1"/><circle cx="208.38" cy="293.07" r="1"/><circle cx="208.38" cy="319.2" r="1"/><circle cx="208.38" cy="306.14" r="1"/><circle cx="208.38" cy="345.34" r="1"/><circle cx="168.03" cy="306.14" r="1"/><circle cx="168.03" cy="306.14" r="1"/><circle cx="208.38" cy="306.14" r="1"/><circle cx="208.38" cy="306.14" r="1"/><circle cx="208.38" cy="319.2" r="1"/><circle cx="208.38" cy="293.07" r="1"/><circle cx="208.38" cy="319.2" r="1"/><circle cx="208.38" cy="293.07" r="1"/><circle cx="235.28" cy="384.55" r="1"/><circle cx="235.28" cy="384.55" r="1"/><circle cx="329.44" cy="397.61" r="1"/><circle cx="329.44" cy="423.75" r="1"/><circle cx="410.15" cy="384.55" r="1"/><circle cx="504.3" cy="423.75" r="1"/><circle cx="168.03" cy="266.93" r="1"/><circle cx="168.03" cy="293.07" r="1"/><circle cx="194.93" cy="240.8" r="1"/><circle cx="194.93" cy="240.8" r="1"/><circle cx="275.63" cy="306.14" r="1"/><circle cx="275.63" cy="306.14" r="1"/><circle cx="342.89" cy="280" r="1"/><circle cx="168.03" cy="293.07" r="1"/><circle cx="168.03" cy="266.93" r="1"/><circle cx="194.93" cy="240.8" r="1"/><circle cx="194.93" cy="240.8" r="1"/><circle cx="275.63" cy="306.14" r="1"/><circle cx="275.63" cy="306.14" r="1"/><circle cx="315.99" cy="293.07" r="1"/><circle cx="114.22" cy="253.86" r="1"/><circle cx="114.22" cy="214.66" r="1"/><circle cx="114.22" cy="188.52" r="1"/><circle cx="114.22" cy="162.39" r="1"/><circle cx="114.22" cy="188.52" r="1"/><circle cx="504.3" cy="449.89" r="1"/><circle cx="638.82" cy="410.68" r="1"/><circle cx="235.28" cy="384.55" r="1"/><circle cx="235.28" cy="384.55" r="1"/><circle cx="235.28" cy="358.41" r="1"/><circle cx="329.44" cy="423.75" r="1"/><circle cx="329.44" cy="397.61" r="1"/><circle cx="410.15" cy="410.68" r="1"/><circle cx="410.15" cy="384.55" r="1"/><circle cx="141.12" cy="266.93" r="1"/><circle cx="141.12" cy="306.14" r="1"/><circle cx="141.12" cy="266.93" r="1"/><circle cx="141.12" cy="266.93" r="1"/><circle cx="248.73" cy="332.27" r="1"/><circle cx="127.67" cy="70.91" r="1"/><circle cx="141.12" cy="266.93" r="1"/><circle cx="141.12" cy="306.14" r="1"/><circle cx="141.12" cy="266.93" r="1"/><circle cx="141.12" cy="266.93" r="1"/><circle cx="208.38" cy="266.93" r="1"/><circle cx="208.38" cy="266.93" r="1"/><circle cx="248.73" cy="345.34" r="1"/><circle cx="248.73" cy="332.27" r="1"/><circle cx="127.67" cy="70.91" r="1"/><circle cx="127.67" cy="110.11" r="1"/><circle cx="141.12" cy="266.93" r="1"/><circle cx="141.12" cy="306.14" r="1"/><circle cx="208.38" cy="280" r="1"/><circle cx="208.38" cy="266.93" r="1"/><circle cx="114.22" cy="266.93" r="1"/><circle cx="114.22" cy="266.93" r="1"/><circle cx="141.12" cy="280" r="1"/><circle cx="141.12" cy="266.93" r="1"/><circle cx="248.73" cy="306.14" r="1"/><circle cx="248.73" cy="306.14" r="1"/><circle cx="356.34" cy="306.14" r="1"/></g>
</g>
</g>
<text x="450.5" y="545" font-family="sans-serif" font-size="12" text-anchor="middle" fill="#444444" paint-order="stroke">Displacement (L)</text>
<g transform="translate(22.1,280)">
<g transform="rotate(-90)">
<text x="0" y="0" font-family="sans-serif" font-size="12" text-anchor="middle" fill="#444444" paint-order="stroke">Highway MPG</text>
</g>
</g>
</svg>
