<?xml version="1.0" encoding="UTF-8"?>
<svg xmlns="http://www.w3.org/2000/svg" xmlns:xlink="http://www.w3.org/1999/xlink" version="1.1" width="900" height="560" viewBox="0 0 900 560">
<defs>
<clipPath id="clip0"><path d="M51 50h691v460h-691Z"/></clipPath>
<clipPath id="clip1"><path d="M51 50h691v460h-691Z"/></clipPath>
</defs>
<rect width="100%" height="100%" fill="#ffffff"/>
<rect x="0" y="0" width="900" height="560" fill="#ffffff"/>
<text x="450" y="25" font-family="sans-serif" font-size="14" font-weight="bold" text-anchor="middle" fill="#111111" paint-order="stroke">2. Two-Column Legend (ncol = 2, byrow = TRUE)</text>
<text x="761.51" y="72" font-family="sans-serif" font-size="11" font-weight="bold" text-anchor="start" fill="#222222" paint-order="stroke">Vehicle class</text>
<rect x="761.51" y="82" width="14" height="14" fill="none" stroke="#cccccc" stroke-width="0.5"/>
<circle cx="768.51" cy="89" r="2.5" fill="#1f77b4" stroke="#16537e" stroke-width="0.5"/>
<text x="783.51" y="92" font-family="sans-serif" font-size="10" text-anchor="start" fill="#222222" paint-order="stroke">2seater</text>
<rect x="815.66" y="82" width="14" height="14" fill="none" stroke="#cccccc" stroke-width="0.5"/>
<circle cx="822.66" cy="89" r="2.5" fill="#ff7f0e" stroke="#b2590a" stroke-width="0.5"/>
<text x="837.66" y="92" font-family="sans-serif" font-size="10" text-anchor="start" fill="#222222" paint-order="stroke">compact</text>
<rect x="761.51" y="102" width="14" height="14" fill="none" stroke="#cccccc" stroke-width="0.5"/>
<circle cx="768.51" cy="109" r="2.5" fill="#2ca02c" stroke="#1f701f" stroke-width="0.5"/>
<text x="783.51" y="112" font-family="sans-serif" font-size="10" text-anchor="start" fill="#222222" paint-order="stroke">midsize</text>
<rect x="815.66" y="102" width="14" height="14" fill="none" stroke="#cccccc" stroke-width="0.5"/>
<circle cx="822.66" cy="109" r="2.5" fill="#d62728" stroke="#961b1c" stroke-width="0.5"/>
<text x="837.66" y="112" font-family="sans-serif" font-size="10" text-anchor="start" fill="#222222" paint-order="stroke">minivan</text>
<rect x="761.51" y="122" width="14" height="14" fill="none" stroke="#cccccc" stroke-width="0.5"/>
<circle cx="768.51" cy="129" r="2.5" fill="#9467bd" stroke="#684884" stroke-width="0.5"/>
<text x="783.51" y="132" font-family="sans-serif" font-size="10" text-anchor="start" fill="#222222" paint-order="stroke">pickup</text>
<rect x="815.66" y="122" width="14" height="14" fill="none" stroke="#cccccc" stroke-width="0.5"/>
<circle cx="822.66" cy="129" r="2.5" fill="#8c564b" stroke="#623c35" stroke-width="0.5"/>
<text x="837.66" y="132" font-family="sans-serif" font-size="10" text-anchor="start" fill="#222222" paint-order="stroke">subcompact</text>
<rect x="761.51" y="142" width="14" height="14" fill="none" stroke="#cccccc" stroke-width="0.5"/>
<circle cx="768.51" cy="149" r="2.5" fill="#e377c2" stroke="#9f5388" stroke-width="0.5"/>
<text x="783.51" y="152" font-family="sans-serif" font-size="10" text-anchor="start" fill="#222222" paint-order="stroke">suv</text>
<rect x="51" y="50" width="691" height="460" fill="#ebebeb"/>
<line x1="128.94" y1="50" x2="128.94" y2="510" stroke="#ffffff" stroke-width="0.8"/>
<line x1="245.27" y1="50" x2="245.27" y2="510" stroke="#ffffff" stroke-width="0.8"/>
<line x1="361.6" y1="50" x2="361.6" y2="510" stroke="#ffffff" stroke-width="0.8"/>
<line x1="477.93" y1="50" x2="477.93" y2="510" stroke="#ffffff" stroke-width="0.8"/>
<line x1="594.26" y1="50" x2="594.26" y2="510" stroke="#ffffff" stroke-width="0.8"/>
<line x1="710.59" y1="50" x2="710.59" y2="510" stroke="#ffffff" stroke-width="0.8"/>
<line x1="51" y1="384.55" x2="742" y2="384.55" stroke="#ffffff" stroke-width="0.8"/>
<line x1="51" y1="253.86" x2="742" y2="253.86" stroke="#ffffff" stroke-width="0.8"/>
<line x1="51" y1="123.18" x2="742" y2="123.18" stroke="#ffffff" stroke-width="0.8"/>
<line x1="70.78" y1="50" x2="70.78" y2="510" stroke="#ffffff" stroke-width="0.4"/>
<line x1="99.86" y1="50" x2="99.86" y2="510" stroke="#ffffff" stroke-width="0.4"/>
<line x1="158.02" y1="50" x2="158.02" y2="510" stroke="#ffffff" stroke-width="0.4"/>
<line x1="187.11" y1="50" x2="187.11" y2="510" stroke="#ffffff" stroke-width="0.4"/>
<line x1="216.19" y1="50" x2="216.19" y2="510" stroke="#ffffff" stroke-width="0.4"/>
<line x1="274.35" y1="50" x2="274.35" y2="510" stroke="#ffffff" stroke-width="0.4"/>
<line x1="303.44" y1="50" x2="303.44" y2="510" stroke="#ffffff" stroke-width="0.4"/>
<line x1="332.52" y1="50" x2="332.52" y2="510" stroke="#ffffff" stroke-width="0.4"/>
<line x1="390.68" y1="50" x2="390.68" y2="510" stroke="#ffffff" stroke-width="0.4"/>
<line x1="419.77" y1="50" x2="419.77" y2="510" stroke="#ffffff" stroke-width="0.4"/>
<line x1="448.85" y1="50" x2="448.85" y2="510" stroke="#ffffff" stroke-width="0.4"/>
<line x1="507.01" y1="50" x2="507.01" y2="510" stroke="#ffffff" stroke-width="0.4"/>
<line x1="536.1" y1="50" x2="536.1" y2="510" stroke="#ffffff" stroke-width="0.4"/>
<line x1="565.18" y1="50" x2="565.18" y2="510" stroke="#ffffff" stroke-width="0.4"/>
<line x1="623.34" y1="50" x2="623.34" y2="510" stroke="#ffffff" stroke-width="0.4"/>
<line x1="652.43" y1="50" x2="652.43" y2="510" stroke="#ffffff" stroke-width="0.4"/>
<line x1="681.51" y1="50" x2="681.51" y2="510" stroke="#ffffff" stroke-width="0.4"/>
<line x1="739.67" y1="50" x2="739.67" y2="510" stroke="#ffffff" stroke-width="0.4"/>
<line x1="51" y1="482.56" x2="742" y2="482.56" stroke="#ffffff" stroke-width="0.4"/>
<line x1="51" y1="449.89" x2="742" y2="449.89" stroke="#ffffff" stroke-width="0.4"/>
<line x1="51" y1="417.22" x2="742" y2="417.22" stroke="#ffffff" stroke-width="0.4"/>
<line x1="51" y1="351.88" x2="742" y2="351.88" stroke="#ffffff" stroke-width="0.4"/>
<line x1="51" y1="319.2" x2="742" y2="319.2" stroke="#ffffff" stroke-width="0.4"/>
<line x1="51" y1="286.53" x2="742" y2="286.53" stroke="#ffffff" stroke-width="0.4"/>
<line x1="51" y1="221.19" x2="742" y2="221.19" stroke="#ffffff" stroke-width="0.4"/>
<line x1="51" y1="188.52" x2="742" y2="188.52" stroke="#ffffff" stroke-width="0.4"/>
<line x1="51" y1="155.85" x2="742" y2="155.85" stroke="#ffffff" stroke-width="0.4"/>
<line x1="51" y1="90.51" x2="742" y2="90.51" stroke="#ffffff" stroke-width="0.4"/>
<line x1="51" y1="57.84" x2="742" y2="57.84" stroke="#ffffff" stroke-width="0.4"/>
<line x1="51" y1="510" x2="742" y2="510" stroke="#333333" stroke-width="1"/>
<line x1="51" y1="50" x2="51" y2="510" stroke="#333333" stroke-width="1"/>
<line x1="128.94" y1="510" x2="128.94" y2="515" stroke="#333333" stroke-width="1"/>
<text x="128.94" y="524" font-family="sans-serif" font-size="9" text-anchor="middle" fill="#555555" paint-order="stroke">2</text>
<line x1="245.27" y1="510" x2="245.27" y2="515" stroke="#333333" stroke-width="1"/>
<text x="245.27" y="524" font-family="sans-serif" font-size="9" text-anchor="middle" fill="#555555" paint-order="stroke">3</text>
<line x1="361.6" y1="510" x2="361.6" y2="515" stroke="#333333" stroke-width="1"/>
<text x="361.6" y="524" font-family="sans-serif" font-size="9" text-anchor="middle" fill="#555555" paint-order="stroke">4</text>
<line x1="477.93" y1="510" x2="477.93" y2="515" stroke="#333333" stroke-width="1"/>
<text x="477.93" y="524" font-family="sans-serif" font-size="9" text-anchor="middle" fill="#555555" paint-order="stroke">5</text>
<line x1="594.26" y1="510" x2="594.26" y2="515" stroke="#333333" stroke-width="1"/>
<text x="594.26" y="524" font-family="sans-serif" font-size="9" text-anchor="middle" fill="#555555" paint-order="stroke">6</text>
<line x1="710.59" y1="510" x2="710.59" y2="515" stroke="#333333" stroke-width="1"/>
<text x="710.59" y="524" font-family="sans-serif" font-size="9" text-anchor="middle" fill="#555555" paint-order="stroke">7</text>
<line x1="51" y1="384.55" x2="46" y2="384.55" stroke="#333333" stroke-width="1"/>
<text x="41" y="388.55" font-family="sans-serif" font-size="9" text-anchor="end" fill="#555555" paint-order="stroke">20</text>
<line x1="51" y1="253.86" x2="46" y2="253.86" stroke="#333333" stroke-width="1"/>
<text x="41" y="257.86" font-family="sans-serif" font-size="9" text-anchor="end" fill="#555555" paint-order="stroke">30</text>
<line x1="51" y1="123.18" x2="46" y2="123.18" stroke="#333333" stroke-width="1"/>
<text x="41" y="127.18" font-family="sans-serif" font-size="9" text-anchor="end" fill="#555555" paint-order="stroke">40</text>
<g clip-path="url(#clip0)">
<g clip-path="url(#clip1)">
<g fill="#ff7f0e" fill-opacity="0.7" stroke="#b2590a" stroke-opacity="0.7" stroke-width="1"><circle cx="105.03" cy="267.65" r="2"/><circle cx="104.2" cy="268.58" r="2"/><circle cx="130.11" cy="239.48" r="2"/><circle cx="127.96" cy="254.97" r="2"/><circle cx="221.36" cy="306.87" r="2"/><circle cx="219.85" cy="308.56" r="2"/><circle cx="257.37" cy="292.54" r="2"/><circle cx="106.47" cy="305.24" r="2"/><circle cx="106.16" cy="318.66" r="2"/><circle cx="128.67" cy="280.31" r="2"/><circle cx="127.84" cy="294.31" r="2"/><circle cx="220.71" cy="320.66" r="2"/><circle cx="219.77" cy="321.72" r="2"/><circle cx="259.1" cy="316.74" r="2"/><circle cx="255.3" cy="321.01" r="2"/></g>
<g fill="#2ca02c" fill-opacity="0.7" stroke="#1f701f" stroke-opacity="0.7" stroke-width="1"><circle cx="224" cy="330.04" r="2"/><circle cx="255.11" cy="321.22" r="2"/><circle cx="383.29" cy="347.12" r="2"/></g>
<g fill="#e377c2" fill-opacity="0.7" stroke="#9f5388" stroke-opacity="0.7" stroke-width="1"><circle cx="513.79" cy="383.46" r="2"/><circle cx="513.73" cy="448.87" r="2"/><circle cx="512.18" cy="385.28" r="2"/><circle cx="557.11" cy="426.28" r="2"/><circle cx="591.96" cy="426.33" r="2"/></g>
<g fill="#1f77b4" fill-opacity="0.7" stroke="#16537e" stroke-opacity="0.7" stroke-width="1"><circle cx="560.05" cy="305.37" r="2"/><circle cx="560.33" cy="344.25" r="2"/><circle cx="618.71" cy="304.81" r="2"/><circle cx="615.3" cy="321.71" r="2"/><circle cx="709.46" cy="333.54" r="2"/></g>
<g fill="#e377c2" fill-opacity="0.7" stroke="#9f5388" stroke-opacity="0.7" stroke-width="1"><circle cx="512.05" cy="398.49" r="2"/><circle cx="513.8" cy="461.87" r="2"/><circle cx="557.82" cy="451.62" r="2"/><circle cx="651.22" cy="425.1" r="2"/></g>
<g fill="#2ca02c" fill-opacity="0.7" stroke="#1f701f" stroke-opacity="0.7" stroke-width="1"><circle cx="173.18" cy="295.64" r="2"/><circle cx="175.96" cy="253.32" r="2"/><circle cx="258.63" cy="304.19" r="2"/><circle cx="304.91" cy="265.28" r="2"/><circle cx="315.17" cy="306.02" r="2"/></g>
<g fill="#d62728" fill-opacity="0.7" stroke="#961b1c" stroke-opacity="0.7" stroke-width="1"><circle cx="175.03" cy="332.77" r="2"/><circle cx="247.1" cy="330.22" r="2"/><circle cx="278.27" cy="360.55" r="2"/><circle cx="281.21" cy="357.24" r="2"/><circle cx="278.39" cy="334.27" r="2"/><circle cx="279.12" cy="333.45" r="2"/><circle cx="280.74" cy="423.11" r="2"/><circle cx="338.15" cy="358.62" r="2"/><circle cx="336.98" cy="373" r="2"/><circle cx="336.24" cy="347.69" r="2"/><circle cx="361.04" cy="345.97" r="2"/></g>
<g fill="#9467bd" fill-opacity="0.7" stroke="#684884" stroke-opacity="0.7" stroke-width="1"><circle cx="327.88" cy="396.29" r="2"/><circle cx="326.98" cy="410.37" r="2"/><circle cx="351.51" cy="422.01" r="2"/><circle cx="351.67" cy="421.84" r="2"/><circle cx="442.16" cy="398.6" r="2"/><circle cx="445.24" cy="395.13" r="2"/><circle cx="443.28" cy="488.82" r="2"/><circle cx="500.02" cy="425.07" r="2"/><circle cx="502.06" cy="448.92" r="2"/></g>
<g fill="#e377c2" fill-opacity="0.7" stroke="#9f5388" stroke-opacity="0.7" stroke-width="1"><circle cx="351.14" cy="422.43" r="2"/><circle cx="441.7" cy="425.24" r="2"/><circle cx="445.02" cy="486.86" r="2"/><circle cx="445.22" cy="421.29" r="2"/><circle cx="501.88" cy="436.05" r="2"/><circle cx="558.13" cy="412.06" r="2"/><circle cx="582.65" cy="449.86" r="2"/></g>
<g fill="#9467bd" fill-opacity="0.7" stroke="#684884" stroke-opacity="0.7" stroke-width="1"><circle cx="445.04" cy="434.56" r="2"/><circle cx="443.8" cy="488.23" r="2"/><circle cx="444.82" cy="421.74" r="2"/><circle cx="441.26" cy="425.74" r="2"/><circle cx="443.95" cy="435.78" r="2"/><circle cx="444.54" cy="487.39" r="2"/><circle cx="499.28" cy="452.04" r="2"/><circle cx="500.51" cy="437.59" r="2"/><circle cx="561.31" cy="421.56" r="2"/><circle cx="580.33" cy="452.47" r="2"/></g>
<g fill="#e377c2" fill-opacity="0.7" stroke="#9f5388" stroke-opacity="0.7" stroke-width="1"><circle cx="430.59" cy="424.66" r="2"/><circle cx="526.02" cy="422" r="2"/><circle cx="524.06" cy="411.13" r="2"/><circle cx="362.28" cy="422.99" r="2"/><circle cx="361.03" cy="398.25" r="2"/><circle cx="361.68" cy="423.66" r="2"/><circle cx="360.26" cy="399.12" r="2"/><circle cx="432.43" cy="396.46" r="2"/><circle cx="479.88" cy="421.56" r="2"/></g>
<g fill="#9467bd" fill-opacity="0.7" stroke="#684884" stroke-opacity="0.7" stroke-width="1"><circle cx="383.17" cy="425.66" r="2"/><circle cx="385.95" cy="422.54" r="2"/><circle cx="432.97" cy="435.05" r="2"/><circle cx="429.55" cy="438.89" r="2"/><circle cx="430.98" cy="424.22" r="2"/><circle cx="525.89" cy="448.29" r="2"/><circle cx="522.93" cy="425.47" r="2"/></g>
<g fill="#8c564b" fill-opacity="0.7" stroke="#623c35" stroke-opacity="0.7" stroke-width="1"><circle cx="338.73" cy="305.69" r="2"/><circle cx="336.08" cy="321.74" r="2"/><circle cx="363.44" cy="304.07" r="2"/><circle cx="359.99" cy="334.08" r="2"/><circle cx="431.78" cy="371.05" r="2"/><circle cx="429.76" cy="360.25" r="2"/><circle cx="431.62" cy="345.09" r="2"/><circle cx="433.27" cy="356.31" r="2"/><circle cx="525.04" cy="383.9" r="2"/><circle cx="83.13" cy="213.85" r="2"/><circle cx="81.06" cy="229.24" r="2"/><circle cx="83.04" cy="227.02" r="2"/><circle cx="84.61" cy="264.45" r="2"/><circle cx="84.14" cy="225.78" r="2"/><circle cx="106.66" cy="200.49" r="2"/><circle cx="105.86" cy="175.24" r="2"/><circle cx="107.13" cy="173.82" r="2"/><circle cx="129.35" cy="266.47" r="2"/></g>
<g fill="#2ca02c" fill-opacity="0.7" stroke="#1f701f" stroke-opacity="0.7" stroke-width="1"><circle cx="173.73" cy="308.09" r="2"/><circle cx="174.5" cy="294.16" r="2"/><circle cx="175.61" cy="253.71" r="2"/><circle cx="174.36" cy="242.05" r="2"/><circle cx="189.27" cy="303.7" r="2"/><circle cx="186.29" cy="307.05" r="2"/><circle cx="280.54" cy="279.58" r="2"/></g>
<g fill="#8c564b" fill-opacity="0.7" stroke="#623c35" stroke-opacity="0.7" stroke-width="1"><circle cx="130.24" cy="304.67" r="2"/><circle cx="128.79" cy="267.1" r="2"/><circle cx="129.47" cy="279.41" r="2"/><circle cx="127.18" cy="295.04" r="2"/><circle cx="211.98" cy="330.47" r="2"/><circle cx="211.84" cy="330.62" r="2"/><circle cx="211.14" cy="331.41" r="2"/></g>
<g fill="#e377c2" fill-opacity="0.7" stroke="#9f5388" stroke-opacity="0.7" stroke-width="1"><circle cx="246.18" cy="357.39" r="2"/><circle cx="327.28" cy="396.97" r="2"/><circle cx="360.12" cy="386.2" r="2"/><circle cx="441.5" cy="425.47" r="2"/><circle cx="443.23" cy="488.87" r="2"/><circle cx="441.38" cy="399.47" r="2"/><circle cx="560.97" cy="408.87" r="2"/><circle cx="605.94" cy="462.9" r="2"/><circle cx="361.54" cy="449.95" r="2"/><circle cx="385.64" cy="409.81" r="2"/><circle cx="409.78" cy="408.83" r="2"/><circle cx="431.39" cy="449.9" r="2"/><circle cx="523.97" cy="424.31" r="2"/><circle cx="522.9" cy="438.57" r="2"/><circle cx="524.96" cy="410.12" r="2"/><circle cx="361.49" cy="423.87" r="2"/><circle cx="359.81" cy="399.62" r="2"/><circle cx="430.12" cy="399.05" r="2"/><circle cx="476.94" cy="424.86" r="2"/></g>
<g fill="#ff7f0e" fill-opacity="0.7" stroke="#b2590a" stroke-opacity="0.7" stroke-width="1"><circle cx="174.81" cy="267.68" r="2"/><circle cx="175.12" cy="293.46" r="2"/></g>
<g fill="#2ca02c" fill-opacity="0.7" stroke="#1f701f" stroke-opacity="0.7" stroke-width="1"><circle cx="185.69" cy="242.38" r="2"/><circle cx="185.33" cy="229.72" r="2"/><circle cx="301.63" cy="295.1" r="2"/><circle cx="304.71" cy="304.7" r="2"/><circle cx="246.53" cy="304.72" r="2"/><circle cx="245.37" cy="319.09" r="2"/><circle cx="304.95" cy="317.51" r="2"/></g>
<g fill="#e377c2" fill-opacity="0.7" stroke="#9f5388" stroke-opacity="0.7" stroke-width="1"><circle cx="278.7" cy="425.4" r="2"/><circle cx="280.6" cy="423.27" r="2"/><circle cx="362.86" cy="383.13" r="2"/><circle cx="549.4" cy="408.81" r="2"/></g>
<g fill="#2ca02c" fill-opacity="0.7" stroke="#1f701f" stroke-opacity="0.7" stroke-width="1"><circle cx="255.31" cy="307.93" r="2"/><circle cx="338.39" cy="306.08" r="2"/><circle cx="337.42" cy="294.1" r="2"/><circle cx="339.47" cy="278.73" r="2"/><circle cx="512.54" cy="319.53" r="2"/></g>
<g fill="#e377c2" fill-opacity="0.7" stroke="#9f5388" stroke-opacity="0.7" stroke-width="1"><circle cx="188.71" cy="317.4" r="2"/><circle cx="186.22" cy="333.27" r="2"/><circle cx="187.17" cy="292.99" r="2"/><circle cx="188.45" cy="317.69" r="2"/><circle cx="184.9" cy="308.62" r="2"/><circle cx="187.07" cy="345.38" r="2"/></g>
<g fill="#8c564b" fill-opacity="0.7" stroke="#623c35" stroke-opacity="0.7" stroke-width="1"><circle cx="150.77" cy="307.75" r="2"/><circle cx="152.03" cy="306.34" r="2"/><circle cx="188.01" cy="305.12" r="2"/><circle cx="184.9" cy="308.61" r="2"/></g>
<g fill="#ff7f0e" fill-opacity="0.7" stroke="#b2590a" stroke-opacity="0.7" stroke-width="1"><circle cx="186.35" cy="320.05" r="2"/><circle cx="189.33" cy="290.56" r="2"/><circle cx="189.13" cy="316.93" r="2"/><circle cx="187.05" cy="293.13" r="2"/></g>
<g fill="#e377c2" fill-opacity="0.7" stroke="#9f5388" stroke-opacity="0.7" stroke-width="1"><circle cx="211.56" cy="383.22" r="2"/><circle cx="211.54" cy="383.23" r="2"/><circle cx="290.02" cy="399.62" r="2"/><circle cx="289.66" cy="426.16" r="2"/><circle cx="363.55" cy="382.36" r="2"/><circle cx="444.55" cy="422.05" r="2"/></g>
<g fill="#2ca02c" fill-opacity="0.7" stroke="#1f701f" stroke-opacity="0.7" stroke-width="1"><circle cx="150.08" cy="269.33" r="2"/><circle cx="153" cy="292.17" r="2"/><circle cx="175.14" cy="241.17" r="2"/><circle cx="175.8" cy="240.43" r="2"/><circle cx="245.26" cy="306.15" r="2"/><circle cx="243.59" cy="308.03" r="2"/><circle cx="303.3" cy="280.16" r="2"/></g>
<g fill="#ff7f0e" fill-opacity="0.7" stroke="#b2590a" stroke-opacity="0.7" stroke-width="1"><circle cx="151.66" cy="293.68" r="2"/><circle cx="151.34" cy="267.9" r="2"/><circle cx="176.35" cy="239.81" r="2"/><circle cx="173.62" cy="242.88" r="2"/><circle cx="247.39" cy="303.76" r="2"/><circle cx="247.08" cy="304.1" r="2"/><circle cx="279.64" cy="293.66" r="2"/><circle cx="104.44" cy="255.26" r="2"/><circle cx="104.17" cy="216.35" r="2"/><circle cx="107.87" cy="186.05" r="2"/><circle cx="103.73" cy="164.57" r="2"/><circle cx="105.61" cy="188.6" r="2"/></g>
<g fill="#e377c2" fill-opacity="0.7" stroke="#9f5388" stroke-opacity="0.7" stroke-width="1"><circle cx="440.93" cy="452.24" r="2"/><circle cx="560.04" cy="409.92" r="2"/></g>
<g fill="#9467bd" fill-opacity="0.7" stroke="#684884" stroke-opacity="0.7" stroke-width="1"><circle cx="208.34" cy="386.83" r="2"/><circle cx="209.6" cy="385.41" r="2"/><circle cx="208.88" cy="360.09" r="2"/><circle cx="291.2" cy="424.43" r="2"/><circle cx="293.83" cy="395.34" r="2"/><circle cx="361.13" cy="411.22" r="2"/><circle cx="361.91" cy="384.2" r="2"/></g>
<g fill="#ff7f0e" fill-opacity="0.7" stroke="#b2590a" stroke-opacity="0.7" stroke-width="1"><circle cx="130.12" cy="265.61" r="2"/><circle cx="129.39" cy="305.63" r="2"/><circle cx="127.9" cy="268.11" r="2"/><circle cx="129.82" cy="265.95" r="2"/><circle cx="221.01" cy="333.39" r="2"/><circle cx="117.08" cy="71.16" r="2"/><circle cx="129.36" cy="266.46" r="2"/><circle cx="128.73" cy="306.37" r="2"/><circle cx="129.54" cy="266.25" r="2"/><circle cx="127.5" cy="268.55" r="2"/><circle cx="188.22" cy="265.68" r="2"/><circle cx="185.43" cy="268.81" r="2"/><circle cx="221.89" cy="345.47" r="2"/><circle cx="220.84" cy="333.59" r="2"/></g>
<g fill="#8c564b" fill-opacity="0.7" stroke="#623c35" stroke-opacity="0.7" stroke-width="1"><circle cx="116.33" cy="72" r="2"/><circle cx="117.85" cy="109.5" r="2"/><circle cx="130.88" cy="264.75" r="2"/><circle cx="128.79" cy="306.31" r="2"/><circle cx="186.19" cy="281.03" r="2"/><circle cx="187.7" cy="266.26" r="2"/></g>
<g fill="#2ca02c" fill-opacity="0.7" stroke="#1f701f" stroke-opacity="0.7" stroke-width="1"><circle cx="107.76" cy="264.59" r="2"/><circle cx="104.64" cy="268.09" r="2"/><circle cx="129.59" cy="279.27" r="2"/><circle cx="127.74" cy="268.28" r="2"/><circle cx="222.89" cy="305.14" r="2"/><circle cx="224.24" cy="303.62" r="2"/><circle cx="316.51" cy="304.52" r="2"/></g>
</g>
</g>
<text x="396.5" y="545" font-family="sans-serif" font-size="12" text-anchor="middle" fill="#444444" paint-order="stroke">engine displacement</text>
<g transform="translate(22.1,280)">
<g transform="rotate(-90)">
<text x="0" y="0" font-family="sans-serif" font-size="12" text-anchor="middle" fill="#444444" paint-order="stroke">highway mpg</text>
</g>
</g>
</svg>
