<?xml version="1.0" encoding="UTF-8"?>
<svg xmlns="http://www.w3.org/2000/svg" xmlns:xlink="http://www.w3.org/1999/xlink" version="1.1" width="900" height="560" viewBox="0 0 900 560">
<defs>
<clipPath id="clip0"><path d="M51 100h799v410h-799Z"/></clipPath>
<clipPath id="clip1"><path d="M51 100h799v410h-799Z"/></clipPath>
</defs>
<rect width="100%" height="100%" fill="#ffffff"/>
<rect x="0" y="0" width="900" height="560" fill="#ffffff"/>
<text x="450" y="25" font-family="sans-serif" font-size="14" font-weight="bold" text-anchor="middle" fill="#111111" paint-order="stroke">7. Legend Box (legend.background)</text>
<rect x="218" y="40" width="464.99" height="40" fill="#f5f5f5"/>
<rect x="218" y="40" width="464.99" height="40" fill="none" stroke="#cccccc" stroke-width="0.5"/>
<text x="228" y="60" font-family="sans-serif" font-size="11" font-weight="bold" text-anchor="start" fill="#222222" paint-order="stroke">Vehicle class</text>
<rect x="290.49" y="50" width="14" height="14" fill="none" stroke="#cccccc" stroke-width="0.5"/>
<circle cx="297.49" cy="57" r="2.5" fill="#1f77b4" stroke="#16537e" stroke-width="0.5"/>
<text x="312.49" y="60" font-family="sans-serif" font-size="10" text-anchor="start" fill="#222222" paint-order="stroke">2seater</text>
<rect x="344.16" y="50" width="14" height="14" fill="none" stroke="#cccccc" stroke-width="0.5"/>
<circle cx="351.16" cy="57" r="2.5" fill="#ff7f0e" stroke="#b2590a" stroke-width="0.5"/>
<text x="366.16" y="60" font-family="sans-serif" font-size="10" text-anchor="start" fill="#222222" paint-order="stroke">compact</text>
<rect x="403.04" y="50" width="14" height="14" fill="none" stroke="#cccccc" stroke-width="0.5"/>
<circle cx="410.04" cy="57" r="2.5" fill="#2ca02c" stroke="#1f701f" stroke-width="0.5"/>
<text x="425.04" y="60" font-family="sans-serif" font-size="10" text-anchor="start" fill="#222222" paint-order="stroke">midsize</text>
<rect x="457.18" y="50" width="14" height="14" fill="none" stroke="#cccccc" stroke-width="0.5"/>
<circle cx="464.18" cy="57" r="2.5" fill="#d62728" stroke="#961b1c" stroke-width="0.5"/>
<text x="479.18" y="60" font-family="sans-serif" font-size="10" text-anchor="start" fill="#222222" paint-order="stroke">minivan</text>
<rect x="511.72" y="50" width="14" height="14" fill="none" stroke="#cccccc" stroke-width="0.5"/>
<circle cx="518.72" cy="57" r="2.5" fill="#9467bd" stroke="#684884" stroke-width="0.5"/>
<text x="533.72" y="60" font-family="sans-serif" font-size="10" text-anchor="start" fill="#222222" paint-order="stroke">pickup</text>
<rect x="561.9" y="50" width="14" height="14" fill="none" stroke="#cccccc" stroke-width="0.5"/>
<circle cx="568.9" cy="57" r="2.5" fill="#8c564b" stroke="#623c35" stroke-width="0.5"/>
<text x="583.9" y="60" font-family="sans-serif" font-size="10" text-anchor="start" fill="#222222" paint-order="stroke">subcompact</text>
<rect x="636.25" y="50" width="14" height="14" fill="none" stroke="#cccccc" stroke-width="0.5"/>
<circle cx="643.25" cy="57" r="2.5" fill="#e377c2" stroke="#9f5388" stroke-width="0.5"/>
<text x="658.25" y="60" font-family="sans-serif" font-size="10" text-anchor="start" fill="#222222" paint-order="stroke">suv</text>
<rect x="51" y="100" width="799" height="410" fill="#ebebeb"/>
<line x1="141.12" y1="100" x2="141.12" y2="510" stroke="#ffffff" stroke-width="0.8"/>
<line x1="275.63" y1="100" x2="275.63" y2="510" stroke="#ffffff" stroke-width="0.8"/>
<line x1="410.15" y1="100" x2="410.15" y2="510" stroke="#ffffff" stroke-width="0.8"/>
<line x1="544.66" y1="100" x2="544.66" y2="510" stroke="#ffffff" stroke-width="0.8"/>
<line x1="679.17" y1="100" x2="679.17" y2="510" stroke="#ffffff" stroke-width="0.8"/>
<line x1="813.68" y1="100" x2="813.68" y2="510" stroke="#ffffff" stroke-width="0.8"/>
<line x1="51" y1="398.18" x2="850" y2="398.18" stroke="#ffffff" stroke-width="0.8"/>
<line x1="51" y1="281.7" x2="850" y2="281.7" stroke="#ffffff" stroke-width="0.8"/>
<line x1="51" y1="165.23" x2="850" y2="165.23" stroke="#ffffff" stroke-width="0.8"/>
<line x1="73.87" y1="100" x2="73.87" y2="510" stroke="#ffffff" stroke-width="0.4"/>
<line x1="107.49" y1="100" x2="107.49" y2="510" stroke="#ffffff" stroke-width="0.4"/>
<line x1="174.75" y1="100" x2="174.75" y2="510" stroke="#ffffff" stroke-width="0.4"/>
<line x1="208.38" y1="100" x2="208.38" y2="510" stroke="#ffffff" stroke-width="0.4"/>
<line x1="242.01" y1="100" x2="242.01" y2="510" stroke="#ffffff" stroke-width="0.4"/>
<line x1="309.26" y1="100" x2="309.26" y2="510" stroke="#ffffff" stroke-width="0.4"/>
<line x1="342.89" y1="100" x2="342.89" y2="510" stroke="#ffffff" stroke-width="0.4"/>
<line x1="376.52" y1="100" x2="376.52" y2="510" stroke="#ffffff" stroke-width="0.4"/>
<line x1="443.77" y1="100" x2="443.77" y2="510" stroke="#ffffff" stroke-width="0.4"/>
<line x1="477.4" y1="100" x2="477.4" y2="510" stroke="#ffffff" stroke-width="0.4"/>
<line x1="511.03" y1="100" x2="511.03" y2="510" stroke="#ffffff" stroke-width="0.4"/>
<line x1="578.29" y1="100" x2="578.29" y2="510" stroke="#ffffff" stroke-width="0.4"/>
<line x1="611.91" y1="100" x2="611.91" y2="510" stroke="#ffffff" stroke-width="0.4"/>
<line x1="645.54" y1="100" x2="645.54" y2="510" stroke="#ffffff" stroke-width="0.4"/>
<line x1="712.8" y1="100" x2="712.8" y2="510" stroke="#ffffff" stroke-width="0.4"/>
<line x1="746.43" y1="100" x2="746.43" y2="510" stroke="#ffffff" stroke-width="0.4"/>
<line x1="780.05" y1="100" x2="780.05" y2="510" stroke="#ffffff" stroke-width="0.4"/>
<line x1="847.31" y1="100" x2="847.31" y2="510" stroke="#ffffff" stroke-width="0.4"/>
<line x1="51" y1="485.54" x2="850" y2="485.54" stroke="#ffffff" stroke-width="0.4"/>
<line x1="51" y1="456.42" x2="850" y2="456.42" stroke="#ffffff" stroke-width="0.4"/>
<line x1="51" y1="427.3" x2="850" y2="427.3" stroke="#ffffff" stroke-width="0.4"/>
<line x1="51" y1="369.06" x2="850" y2="369.06" stroke="#ffffff" stroke-width="0.4"/>
<line x1="51" y1="339.94" x2="850" y2="339.94" stroke="#ffffff" stroke-width="0.4"/>
<line x1="51" y1="310.82" x2="850" y2="310.82" stroke="#ffffff" stroke-width="0.4"/>
<line x1="51" y1="252.59" x2="850" y2="252.59" stroke="#ffffff" stroke-width="0.4"/>
<line x1="51" y1="223.47" x2="850" y2="223.47" stroke="#ffffff" stroke-width="0.4"/>
<line x1="51" y1="194.35" x2="850" y2="194.35" stroke="#ffffff" stroke-width="0.4"/>
<line x1="51" y1="136.11" x2="850" y2="136.11" stroke="#ffffff" stroke-width="0.4"/>
<line x1="51" y1="106.99" x2="850" y2="106.99" stroke="#ffffff" stroke-width="0.4"/>
<line x1="51" y1="510" x2="850" y2="510" stroke="#333333" stroke-width="1"/>
<line x1="51" y1="100" x2="51" y2="510" stroke="#333333" stroke-width="1"/>
<line x1="141.12" y1="510" x2="141.12" y2="515" stroke="#333333" stroke-width="1"/>
<text x="141.12" y="524" font-family="sans-serif" font-size="9" text-anchor="middle" fill="#555555" paint-order="stroke">2</text>
<line x1="275.63" y1="510" x2="275.63" y2="515" stroke="#333333" stroke-width="1"/>
<text x="275.63" y="524" font-family="sans-serif" font-size="9" text-anchor="middle" fill="#555555" paint-order="stroke">3</text>
<line x1="410.15" y1="510" x2="410.15" y2="515" stroke="#333333" stroke-width="1"/>
<text x="410.15" y="524" font-family="sans-serif" font-size="9" text-anchor="middle" fill="#555555" paint-order="stroke">4</text>
<line x1="544.66" y1="510" x2="544.66" y2="515" stroke="#333333" stroke-width="1"/>
<text x="544.66" y="524" font-family="sans-serif" font-size="9" text-anchor="middle" fill="#555555" paint-order="stroke">5</text>
<line x1="679.17" y1="510" x2="679.17" y2="515" stroke="#333333" stroke-width="1"/>
<text x="679.17" y="524" font-family="sans-serif" font-size="9" text-anchor="middle" fill="#555555" paint-order="stroke">6</text>
<line x1="813.68" y1="510" x2="813.68" y2="515" stroke="#333333" stroke-width="1"/>
<text x="813.68" y="524" font-family="sans-serif" font-size="9" text-anchor="middle" fill="#555555" paint-order="stroke">7</text>
<line x1="51" y1="398.18" x2="46" y2="398.18" stroke="#333333" stroke-width="1"/>
<text x="41" y="402.18" font-family="sans-serif" font-size="9" text-anchor="end" fill="#555555" paint-order="stroke">20</text>
<line x1="51" y1="281.7" x2="46" y2="281.7" stroke="#333333" stroke-width="1"/>
<text x="41" y="285.7" font-family="sans-serif" font-size="9" text-anchor="end" fill="#555555" paint-order="stroke">30</text>
<line x1="51" y1="165.23" x2="46" y2="165.23" stroke="#333333" stroke-width="1"/>
<text x="41" y="169.23" font-family="sans-serif" font-size="9" text-anchor="end" fill="#555555" paint-order="stroke">40</text>
<g clip-path="url(#clip0)">
<g clip-path="url(#clip1)">
<g fill="#ff7f0e" fill-opacity="0.7" stroke="#b2590a" stroke-opacity="0.7" stroke-width="1"><circle cx="113.48" cy="294" r="2"/><circle cx="112.52" cy="294.82" r="2"/><circle cx="142.48" cy="268.88" r="2"/><circle cx="139.99" cy="282.69" r="2"/><circle cx="247.98" cy="328.95" r="2"/><circle cx="246.24" cy="330.45" r="2"/><circle cx="289.63" cy="316.18" r="2"/><circle cx="115.14" cy="327.5" r="2"/><circle cx="114.78" cy="339.46" r="2"/><circle cx="140.8" cy="305.28" r="2"/><circle cx="139.85" cy="317.75" r="2"/><circle cx="247.24" cy="341.24" r="2"/><circle cx="246.14" cy="342.19" r="2"/><circle cx="291.63" cy="337.74" r="2"/><circle cx="287.23" cy="341.55" r="2"/></g>
<g fill="#2ca02c" fill-opacity="0.7" stroke="#1f701f" stroke-opacity="0.7" stroke-width="1"><circle cx="251.03" cy="349.6" r="2"/><circle cx="287.02" cy="341.74" r="2"/><circle cx="435.22" cy="364.82" r="2"/></g>
<g fill="#e377c2" fill-opacity="0.7" stroke="#9f5388" stroke-opacity="0.7" stroke-width="1"><circle cx="586.13" cy="397.22" r="2"/><circle cx="586.06" cy="455.52" r="2"/><circle cx="584.26" cy="398.84" r="2"/><circle cx="636.21" cy="435.38" r="2"/><circle cx="676.51" cy="435.43" r="2"/></g>
<g fill="#1f77b4" fill-opacity="0.7" stroke="#16537e" stroke-opacity="0.7" stroke-width="1"><circle cx="639.61" cy="327.61" r="2"/><circle cx="639.94" cy="362.27" r="2"/><circle cx="707.44" cy="327.11" r="2"/><circle cx="703.5" cy="342.17" r="2"/><circle cx="812.38" cy="352.72" r="2"/></g>
<g fill="#e377c2" fill-opacity="0.7" stroke="#9f5388" stroke-opacity="0.7" stroke-width="1"><circle cx="584.11" cy="410.61" r="2"/><circle cx="586.13" cy="467.1" r="2"/><circle cx="637.03" cy="457.97" r="2"/><circle cx="745.04" cy="434.33" r="2"/></g>
<g fill="#2ca02c" fill-opacity="0.7" stroke="#1f701f" stroke-opacity="0.7" stroke-width="1"><circle cx="192.28" cy="318.94" r="2"/><circle cx="195.49" cy="281.22" r="2"/><circle cx="291.09" cy="326.56" r="2"/><circle cx="344.59" cy="291.88" r="2"/><circle cx="356.46" cy="328.19" r="2"/></g>
<g fill="#d62728" fill-opacity="0.7" stroke="#961b1c" stroke-opacity="0.7" stroke-width="1"><circle cx="194.41" cy="352.04" r="2"/><circle cx="277.75" cy="349.76" r="2"/><circle cx="313.79" cy="376.79" r="2"/><circle cx="317.19" cy="373.84" r="2"/><circle cx="313.93" cy="353.37" r="2"/><circle cx="314.78" cy="352.64" r="2"/><circle cx="316.65" cy="432.55" r="2"/><circle cx="383.03" cy="375.07" r="2"/><circle cx="381.68" cy="387.89" r="2"/><circle cx="380.82" cy="365.33" r="2"/><circle cx="409.5" cy="363.8" r="2"/></g>
<g fill="#9467bd" fill-opacity="0.7" stroke="#684884" stroke-opacity="0.7" stroke-width="1"><circle cx="371.15" cy="408.65" r="2"/><circle cx="370.11" cy="421.2" r="2"/><circle cx="398.48" cy="431.58" r="2"/><circle cx="398.66" cy="431.42" r="2"/><circle cx="503.29" cy="410.7" r="2"/><circle cx="506.86" cy="407.62" r="2"/><circle cx="504.59" cy="491.12" r="2"/><circle cx="570.21" cy="434.3" r="2"/><circle cx="572.55" cy="455.56" r="2"/></g>
<g fill="#e377c2" fill-opacity="0.7" stroke="#9f5388" stroke-opacity="0.7" stroke-width="1"><circle cx="398.05" cy="431.95" r="2"/><circle cx="502.77" cy="434.45" r="2"/><circle cx="506.61" cy="489.37" r="2"/><circle cx="506.84" cy="430.93" r="2"/><circle cx="572.35" cy="444.08" r="2"/><circle cx="637.39" cy="422.71" r="2"/><circle cx="665.74" cy="456.4" r="2"/></g>
<g fill="#9467bd" fill-opacity="0.7" stroke="#684884" stroke-opacity="0.7" stroke-width="1"><circle cx="506.63" cy="442.76" r="2"/><circle cx="505.19" cy="490.6" r="2"/><circle cx="506.37" cy="431.34" r="2"/><circle cx="502.26" cy="434.9" r="2"/><circle cx="505.37" cy="443.85" r="2"/><circle cx="506.05" cy="489.85" r="2"/><circle cx="569.34" cy="458.34" r="2"/><circle cx="570.77" cy="445.46" r="2"/><circle cx="641.07" cy="431.17" r="2"/><circle cx="663.06" cy="458.72" r="2"/></g>
<g fill="#e377c2" fill-opacity="0.7" stroke="#9f5388" stroke-opacity="0.7" stroke-width="1"><circle cx="489.92" cy="433.94" r="2"/><circle cx="600.26" cy="431.56" r="2"/><circle cx="598" cy="421.88" r="2"/><circle cx="410.93" cy="432.45" r="2"/><circle cx="409.49" cy="410.4" r="2"/><circle cx="410.24" cy="433.04" r="2"/><circle cx="408.6" cy="411.17" r="2"/><circle cx="492.04" cy="408.8" r="2"/><circle cx="546.92" cy="431.17" r="2"/></g>
<g fill="#9467bd" fill-opacity="0.7" stroke="#684884" stroke-opacity="0.7" stroke-width="1"><circle cx="435.08" cy="434.83" r="2"/><circle cx="438.3" cy="432.04" r="2"/><circle cx="492.67" cy="443.2" r="2"/><circle cx="488.72" cy="446.62" r="2"/><circle cx="490.37" cy="433.55" r="2"/><circle cx="600.11" cy="455" r="2"/><circle cx="596.69" cy="434.66" r="2"/></g>
<g fill="#8c564b" fill-opacity="0.7" stroke="#623c35" stroke-opacity="0.7" stroke-width="1"><circle cx="383.71" cy="327.9" r="2"/><circle cx="380.64" cy="342.2" r="2"/><circle cx="412.27" cy="326.45" r="2"/><circle cx="408.28" cy="353.21" r="2"/><circle cx="491.29" cy="386.15" r="2"/><circle cx="488.96" cy="376.52" r="2"/><circle cx="491.11" cy="363.02" r="2"/><circle cx="493.01" cy="373.02" r="2"/><circle cx="599.13" cy="397.6" r="2"/><circle cx="88.15" cy="246.04" r="2"/><circle cx="85.76" cy="259.76" r="2"/><circle cx="88.05" cy="257.78" r="2"/><circle cx="89.87" cy="291.14" r="2"/><circle cx="89.32" cy="256.67" r="2"/><circle cx="115.36" cy="234.13" r="2"/><circle cx="114.44" cy="211.63" r="2"/><circle cx="115.91" cy="210.36" r="2"/><circle cx="141.59" cy="292.94" r="2"/></g>
<g fill="#2ca02c" fill-opacity="0.7" stroke="#1f701f" stroke-opacity="0.7" stroke-width="1"><circle cx="192.92" cy="330.04" r="2"/><circle cx="193.8" cy="317.62" r="2"/><circle cx="195.08" cy="281.57" r="2"/><circle cx="193.64" cy="271.18" r="2"/><circle cx="210.88" cy="326.13" r="2"/><circle cx="207.43" cy="329.11" r="2"/><circle cx="316.42" cy="304.63" r="2"/></g>
<g fill="#8c564b" fill-opacity="0.7" stroke="#623c35" stroke-opacity="0.7" stroke-width="1"><circle cx="142.63" cy="326.99" r="2"/><circle cx="140.94" cy="293.51" r="2"/><circle cx="141.73" cy="304.47" r="2"/><circle cx="139.09" cy="318.41" r="2"/><circle cx="237.14" cy="349.98" r="2"/><circle cx="236.98" cy="350.12" r="2"/><circle cx="236.17" cy="350.82" r="2"/></g>
<g fill="#e377c2" fill-opacity="0.7" stroke="#9f5388" stroke-opacity="0.7" stroke-width="1"><circle cx="276.68" cy="373.98" r="2"/><circle cx="370.46" cy="409.25" r="2"/><circle cx="408.44" cy="399.66" r="2"/><circle cx="502.54" cy="434.66" r="2"/><circle cx="504.53" cy="491.17" r="2"/><circle cx="502.39" cy="411.49" r="2"/><circle cx="640.68" cy="419.86" r="2"/><circle cx="692.67" cy="468.02" r="2"/><circle cx="410.08" cy="456.48" r="2"/><circle cx="437.94" cy="420.7" r="2"/><circle cx="465.86" cy="419.83" r="2"/><circle cx="490.84" cy="456.43" r="2"/><circle cx="597.89" cy="433.62" r="2"/><circle cx="596.66" cy="446.34" r="2"/><circle cx="599.04" cy="420.97" r="2"/><circle cx="410.02" cy="433.23" r="2"/><circle cx="408.08" cy="411.62" r="2"/><circle cx="489.38" cy="411.11" r="2"/><circle cx="543.51" cy="434.12" r="2"/></g>
<g fill="#ff7f0e" fill-opacity="0.7" stroke="#b2590a" stroke-opacity="0.7" stroke-width="1"><circle cx="194.16" cy="294.01" r="2"/><circle cx="194.52" cy="317" r="2"/></g>
<g fill="#2ca02c" fill-opacity="0.7" stroke="#1f701f" stroke-opacity="0.7" stroke-width="1"><circle cx="206.74" cy="271.47" r="2"/><circle cx="206.33" cy="260.18" r="2"/><circle cx="340.8" cy="318.46" r="2"/><circle cx="344.37" cy="327.02" r="2"/><circle cx="277.1" cy="327.03" r="2"/><circle cx="275.75" cy="339.84" r="2"/><circle cx="344.64" cy="338.43" r="2"/></g>
<g fill="#e377c2" fill-opacity="0.7" stroke="#9f5388" stroke-opacity="0.7" stroke-width="1"><circle cx="314.29" cy="434.6" r="2"/><circle cx="316.48" cy="432.7" r="2"/><circle cx="411.6" cy="396.92" r="2"/><circle cx="627.3" cy="419.8" r="2"/></g>
<g fill="#2ca02c" fill-opacity="0.7" stroke="#1f701f" stroke-opacity="0.7" stroke-width="1"><circle cx="287.24" cy="329.89" r="2"/><circle cx="383.31" cy="328.24" r="2"/><circle cx="382.18" cy="317.57" r="2"/><circle cx="384.55" cy="303.87" r="2"/><circle cx="584.68" cy="340.23" r="2"/></g>
<g fill="#e377c2" fill-opacity="0.7" stroke="#9f5388" stroke-opacity="0.7" stroke-width="1"><circle cx="210.23" cy="338.34" r="2"/><circle cx="207.36" cy="352.48" r="2"/><circle cx="208.46" cy="316.58" r="2"/><circle cx="209.94" cy="338.59" r="2"/><circle cx="205.83" cy="330.51" r="2"/><circle cx="208.34" cy="363.28" r="2"/></g>
<g fill="#8c564b" fill-opacity="0.7" stroke="#623c35" stroke-opacity="0.7" stroke-width="1"><circle cx="166.36" cy="329.74" r="2"/><circle cx="167.82" cy="328.48" r="2"/><circle cx="209.42" cy="327.39" r="2"/><circle cx="205.83" cy="330.5" r="2"/></g>
<g fill="#ff7f0e" fill-opacity="0.7" stroke="#b2590a" stroke-opacity="0.7" stroke-width="1"><circle cx="207.51" cy="340.7" r="2"/><circle cx="210.96" cy="314.42" r="2"/><circle cx="210.72" cy="337.92" r="2"/><circle cx="208.31" cy="316.7" r="2"/></g>
<g fill="#e377c2" fill-opacity="0.7" stroke="#9f5388" stroke-opacity="0.7" stroke-width="1"><circle cx="236.65" cy="397" r="2"/><circle cx="236.64" cy="397.01" r="2"/><circle cx="327.37" cy="411.62" r="2"/><circle cx="326.96" cy="435.27" r="2"/><circle cx="412.4" cy="396.23" r="2"/><circle cx="506.06" cy="431.61" r="2"/></g>
<g fill="#2ca02c" fill-opacity="0.7" stroke="#1f701f" stroke-opacity="0.7" stroke-width="1"><circle cx="165.56" cy="295.49" r="2"/><circle cx="168.95" cy="315.85" r="2"/><circle cx="194.54" cy="270.39" r="2"/><circle cx="195.31" cy="269.73" r="2"/><circle cx="275.62" cy="328.3" r="2"/><circle cx="273.69" cy="329.98" r="2"/><circle cx="342.73" cy="305.14" r="2"/></g>
<g fill="#ff7f0e" fill-opacity="0.7" stroke="#b2590a" stroke-opacity="0.7" stroke-width="1"><circle cx="167.4" cy="317.19" r="2"/><circle cx="167.02" cy="294.22" r="2"/><circle cx="195.94" cy="269.18" r="2"/><circle cx="192.78" cy="271.91" r="2"/><circle cx="278.08" cy="326.17" r="2"/><circle cx="277.73" cy="326.48" r="2"/><circle cx="315.38" cy="317.18" r="2"/><circle cx="112.79" cy="282.95" r="2"/><circle cx="112.48" cy="248.27" r="2"/><circle cx="116.76" cy="221.27" r="2"/><circle cx="111.98" cy="202.11" r="2"/><circle cx="114.14" cy="223.53" r="2"/></g>
<g fill="#e377c2" fill-opacity="0.7" stroke="#9f5388" stroke-opacity="0.7" stroke-width="1"><circle cx="501.88" cy="458.52" r="2"/><circle cx="639.6" cy="420.8" r="2"/></g>
<g fill="#9467bd" fill-opacity="0.7" stroke="#684884" stroke-opacity="0.7" stroke-width="1"><circle cx="232.93" cy="400.22" r="2"/><circle cx="234.39" cy="398.96" r="2"/><circle cx="233.55" cy="376.38" r="2"/><circle cx="328.74" cy="433.73" r="2"/><circle cx="331.78" cy="407.8" r="2"/><circle cx="409.6" cy="421.95" r="2"/><circle cx="410.5" cy="397.88" r="2"/></g>
<g fill="#ff7f0e" fill-opacity="0.7" stroke="#b2590a" stroke-opacity="0.7" stroke-width="1"><circle cx="142.48" cy="292.17" r="2"/><circle cx="141.65" cy="327.84" r="2"/><circle cx="139.91" cy="294.4" r="2"/><circle cx="142.14" cy="292.48" r="2"/><circle cx="247.58" cy="352.59" r="2"/><circle cx="127.41" cy="118.86" r="2"/><circle cx="141.61" cy="292.93" r="2"/><circle cx="140.88" cy="328.51" r="2"/><circle cx="141.82" cy="292.75" r="2"/><circle cx="139.46" cy="294.79" r="2"/><circle cx="209.67" cy="292.24" r="2"/><circle cx="206.44" cy="295.03" r="2"/><circle cx="248.6" cy="363.35" r="2"/><circle cx="247.38" cy="352.76" r="2"/></g>
<g fill="#8c564b" fill-opacity="0.7" stroke="#623c35" stroke-opacity="0.7" stroke-width="1"><circle cx="126.54" cy="119.61" r="2"/><circle cx="128.3" cy="153.04" r="2"/><circle cx="143.37" cy="291.41" r="2"/><circle cx="140.94" cy="328.45" r="2"/><circle cx="207.32" cy="305.92" r="2"/><circle cx="209.07" cy="292.76" r="2"/></g>
<g fill="#2ca02c" fill-opacity="0.7" stroke="#1f701f" stroke-opacity="0.7" stroke-width="1"><circle cx="116.63" cy="291.27" r="2"/><circle cx="113.02" cy="294.39" r="2"/><circle cx="141.87" cy="304.35" r="2"/><circle cx="139.74" cy="294.55" r="2"/><circle cx="249.76" cy="327.41" r="2"/><circle cx="251.32" cy="326.05" r="2"/><circle cx="358" cy="326.86" r="2"/></g>
</g>
</g>
<text x="450.5" y="545" font-family="sans-serif" font-size="12" text-anchor="middle" fill="#444444" paint-order="stroke">engine displacement</text>
<g transform="translate(22.1,305)">
<g transform="rotate(-90)">
<text x="0" y="0" font-family="sans-serif" font-size="12" text-anchor="middle" fill="#444444" paint-order="stroke">highway mpg</text>
</g>
</g>
</svg>
