<?xml version="1.0" encoding="UTF-8"?>
<svg xmlns="http://www.w3.org/2000/svg" xmlns:xlink="http://www.w3.org/1999/xlink" version="1.1" width="900" height="560" viewBox="0 0 900 560">
<defs>
<clipPath id="clip0"><path d="M62 50h755v460h-755Z"/></clipPath>
<clipPath id="clip1"><path d="M62 50h755v460h-755Z"/></clipPath>
</defs>
<rect width="100%" height="100%" fill="#ffffff"/>
<rect x="0" y="0" width="900" height="560" fill="#ffffff"/>
<text x="450" y="25" font-family="sans-serif" font-size="14" font-weight="bold" text-anchor="middle" fill="#111111" paint-order="stroke">7. Production Density Over Time (GeomArea)</text>
<text x="837.12" y="72" font-family="sans-serif" font-size="11" font-weight="bold" text-anchor="start" fill="#222222" paint-order="stroke">animal</text>
<rect x="837.12" y="82" width="14" height="14" fill="#1f77b4" fill-opacity="0.85"/>
<rect x="837.12" y="82" width="14" height="14" fill="none" stroke="#16537e" stroke-width="0.5"/>
<text x="859.12" y="92" font-family="sans-serif" font-size="10" text-anchor="start" fill="#222222" paint-order="stroke">beef</text>
<rect x="837.12" y="102" width="14" height="14" fill="#ff7f0e" fill-opacity="0.85"/>
<rect x="837.12" y="102" width="14" height="14" fill="none" stroke="#b2590a" stroke-width="0.5"/>
<text x="859.12" y="112" font-family="sans-serif" font-size="10" text-anchor="start" fill="#222222" paint-order="stroke">broilers</text>
<rect x="837.12" y="122" width="14" height="14" fill="#2ca02c" fill-opacity="0.85"/>
<rect x="837.12" y="122" width="14" height="14" fill="none" stroke="#1f701f" stroke-width="0.5"/>
<text x="859.12" y="132" font-family="sans-serif" font-size="10" text-anchor="start" fill="#222222" paint-order="stroke">pork</text>
<rect x="62" y="50" width="755" height="460" fill="#ebebeb"/>
<line x1="96.32" y1="50" x2="96.32" y2="510" stroke="#e5e5e5" stroke-width="0.8"/>
<line x1="156.04" y1="50" x2="156.04" y2="510" stroke="#e5e5e5" stroke-width="0.8"/>
<line x1="215.68" y1="50" x2="215.68" y2="510" stroke="#e5e5e5" stroke-width="0.8"/>
<line x1="275.41" y1="50" x2="275.41" y2="510" stroke="#e5e5e5" stroke-width="0.8"/>
<line x1="335.05" y1="50" x2="335.05" y2="510" stroke="#e5e5e5" stroke-width="0.8"/>
<line x1="394.77" y1="50" x2="394.77" y2="510" stroke="#e5e5e5" stroke-width="0.8"/>
<line x1="454.41" y1="50" x2="454.41" y2="510" stroke="#e5e5e5" stroke-width="0.8"/>
<line x1="514.13" y1="50" x2="514.13" y2="510" stroke="#e5e5e5" stroke-width="0.8"/>
<line x1="573.77" y1="50" x2="573.77" y2="510" stroke="#e5e5e5" stroke-width="0.8"/>
<line x1="633.5" y1="50" x2="633.5" y2="510" stroke="#e5e5e5" stroke-width="0.8"/>
<line x1="693.14" y1="50" x2="693.14" y2="510" stroke="#e5e5e5" stroke-width="0.8"/>
<line x1="752.86" y1="50" x2="752.86" y2="510" stroke="#e5e5e5" stroke-width="0.8"/>
<line x1="812.5" y1="50" x2="812.5" y2="510" stroke="#e5e5e5" stroke-width="0.8"/>
<line x1="62" y1="406.62" x2="817" y2="406.62" stroke="#e5e5e5" stroke-width="0.8"/>
<line x1="62" y1="303.23" x2="817" y2="303.23" stroke="#e5e5e5" stroke-width="0.8"/>
<line x1="62" y1="199.85" x2="817" y2="199.85" stroke="#e5e5e5" stroke-width="0.8"/>
<line x1="62" y1="96.46" x2="817" y2="96.46" stroke="#e5e5e5" stroke-width="0.8"/>
<line x1="67.11" y1="50" x2="67.11" y2="510" stroke="#ffffff" stroke-width="0.4"/>
<line x1="82.04" y1="50" x2="82.04" y2="510" stroke="#ffffff" stroke-width="0.4"/>
<line x1="111.9" y1="50" x2="111.9" y2="510" stroke="#ffffff" stroke-width="0.4"/>
<line x1="126.83" y1="50" x2="126.83" y2="510" stroke="#ffffff" stroke-width="0.4"/>
<line x1="141.76" y1="50" x2="141.76" y2="510" stroke="#ffffff" stroke-width="0.4"/>
<line x1="171.63" y1="50" x2="171.63" y2="510" stroke="#ffffff" stroke-width="0.4"/>
<line x1="186.56" y1="50" x2="186.56" y2="510" stroke="#ffffff" stroke-width="0.4"/>
<line x1="201.49" y1="50" x2="201.49" y2="510" stroke="#ffffff" stroke-width="0.4"/>
<line x1="231.35" y1="50" x2="231.35" y2="510" stroke="#ffffff" stroke-width="0.4"/>
<line x1="246.28" y1="50" x2="246.28" y2="510" stroke="#ffffff" stroke-width="0.4"/>
<line x1="261.21" y1="50" x2="261.21" y2="510" stroke="#ffffff" stroke-width="0.4"/>
<line x1="291.07" y1="50" x2="291.07" y2="510" stroke="#ffffff" stroke-width="0.4"/>
<line x1="306" y1="50" x2="306" y2="510" stroke="#ffffff" stroke-width="0.4"/>
<line x1="320.93" y1="50" x2="320.93" y2="510" stroke="#ffffff" stroke-width="0.4"/>
<line x1="350.79" y1="50" x2="350.79" y2="510" stroke="#ffffff" stroke-width="0.4"/>
<line x1="365.72" y1="50" x2="365.72" y2="510" stroke="#ffffff" stroke-width="0.4"/>
<line x1="380.66" y1="50" x2="380.66" y2="510" stroke="#ffffff" stroke-width="0.4"/>
<line x1="410.52" y1="50" x2="410.52" y2="510" stroke="#ffffff" stroke-width="0.4"/>
<line x1="425.45" y1="50" x2="425.45" y2="510" stroke="#ffffff" stroke-width="0.4"/>
<line x1="440.38" y1="50" x2="440.38" y2="510" stroke="#ffffff" stroke-width="0.4"/>
<line x1="470.24" y1="50" x2="470.24" y2="510" stroke="#ffffff" stroke-width="0.4"/>
<line x1="485.17" y1="50" x2="485.17" y2="510" stroke="#ffffff" stroke-width="0.4"/>
<line x1="500.1" y1="50" x2="500.1" y2="510" stroke="#ffffff" stroke-width="0.4"/>
<line x1="529.96" y1="50" x2="529.96" y2="510" stroke="#ffffff" stroke-width="0.4"/>
<line x1="544.89" y1="50" x2="544.89" y2="510" stroke="#ffffff" stroke-width="0.4"/>
<line x1="559.82" y1="50" x2="559.82" y2="510" stroke="#ffffff" stroke-width="0.4"/>
<line x1="589.69" y1="50" x2="589.69" y2="510" stroke="#ffffff" stroke-width="0.4"/>
<line x1="604.62" y1="50" x2="604.62" y2="510" stroke="#ffffff" stroke-width="0.4"/>
<line x1="619.55" y1="50" x2="619.55" y2="510" stroke="#ffffff" stroke-width="0.4"/>
<line x1="649.41" y1="50" x2="649.41" y2="510" stroke="#ffffff" stroke-width="0.4"/>
<line x1="664.34" y1="50" x2="664.34" y2="510" stroke="#ffffff" stroke-width="0.4"/>
<line x1="679.27" y1="50" x2="679.27" y2="510" stroke="#ffffff" stroke-width="0.4"/>
<line x1="709.13" y1="50" x2="709.13" y2="510" stroke="#ffffff" stroke-width="0.4"/>
<line x1="724.06" y1="50" x2="724.06" y2="510" stroke="#ffffff" stroke-width="0.4"/>
<line x1="738.99" y1="50" x2="738.99" y2="510" stroke="#ffffff" stroke-width="0.4"/>
<line x1="768.85" y1="50" x2="768.85" y2="510" stroke="#ffffff" stroke-width="0.4"/>
<line x1="783.78" y1="50" x2="783.78" y2="510" stroke="#ffffff" stroke-width="0.4"/>
<line x1="798.72" y1="50" x2="798.72" y2="510" stroke="#ffffff" stroke-width="0.4"/>
<line x1="62" y1="484.15" x2="817" y2="484.15" stroke="#ffffff" stroke-width="0.4"/>
<line x1="62" y1="458.31" x2="817" y2="458.31" stroke="#ffffff" stroke-width="0.4"/>
<line x1="62" y1="432.46" x2="817" y2="432.46" stroke="#ffffff" stroke-width="0.4"/>
<line x1="62" y1="380.77" x2="817" y2="380.77" stroke="#ffffff" stroke-width="0.4"/>
<line x1="62" y1="354.92" x2="817" y2="354.92" stroke="#ffffff" stroke-width="0.4"/>
<line x1="62" y1="329.08" x2="817" y2="329.08" stroke="#ffffff" stroke-width="0.4"/>
<line x1="62" y1="277.38" x2="817" y2="277.38" stroke="#ffffff" stroke-width="0.4"/>
<line x1="62" y1="251.54" x2="817" y2="251.54" stroke="#ffffff" stroke-width="0.4"/>
<line x1="62" y1="225.69" x2="817" y2="225.69" stroke="#ffffff" stroke-width="0.4"/>
<line x1="62" y1="174" x2="817" y2="174" stroke="#ffffff" stroke-width="0.4"/>
<line x1="62" y1="148.15" x2="817" y2="148.15" stroke="#ffffff" stroke-width="0.4"/>
<line x1="62" y1="122.31" x2="817" y2="122.31" stroke="#ffffff" stroke-width="0.4"/>
<line x1="62" y1="70.61" x2="817" y2="70.61" stroke="#ffffff" stroke-width="0.4"/>
<line x1="62" y1="510" x2="817" y2="510" stroke="#333333" stroke-width="1"/>
<line x1="62" y1="50" x2="62" y2="510" stroke="#333333" stroke-width="1"/>
<line x1="96.32" y1="510" x2="96.32" y2="515" stroke="#333333" stroke-width="1"/>
<text x="96.32" y="524" font-family="sans-serif" font-size="9" text-anchor="middle" fill="#555555" paint-order="stroke">2000</text>
<line x1="156.04" y1="510" x2="156.04" y2="515" stroke="#333333" stroke-width="1"/>
<text x="156.04" y="524" font-family="sans-serif" font-size="9" text-anchor="middle" fill="#555555" paint-order="stroke">2002</text>
<line x1="215.68" y1="510" x2="215.68" y2="515" stroke="#333333" stroke-width="1"/>
<text x="215.68" y="524" font-family="sans-serif" font-size="9" text-anchor="middle" fill="#555555" paint-order="stroke">2004</text>
<line x1="275.41" y1="510" x2="275.41" y2="515" stroke="#333333" stroke-width="1"/>
<text x="275.41" y="524" font-family="sans-serif" font-size="9" text-anchor="middle" fill="#555555" paint-order="stroke">2006</text>
<line x1="335.05" y1="510" x2="335.05" y2="515" stroke="#333333" stroke-width="1"/>
<text x="335.05" y="524" font-family="sans-serif" font-size="9" text-anchor="middle" fill="#555555" paint-order="stroke">2008</text>
<line x1="394.77" y1="510" x2="394.77" y2="515" stroke="#333333" stroke-width="1"/>
<text x="394.77" y="524" font-family="sans-serif" font-size="9" text-anchor="middle" fill="#555555" paint-order="stroke">2010</text>
<line x1="454.41" y1="510" x2="454.41" y2="515" stroke="#333333" stroke-width="1"/>
<text x="454.41" y="524" font-family="sans-serif" font-size="9" text-anchor="middle" fill="#555555" paint-order="stroke">2012</text>
<line x1="514.13" y1="510" x2="514.13" y2="515" stroke="#333333" stroke-width="1"/>
<text x="514.13" y="524" font-family="sans-serif" font-size="9" text-anchor="middle" fill="#555555" paint-order="stroke">2014</text>
<line x1="573.77" y1="510" x2="573.77" y2="515" stroke="#333333" stroke-width="1"/>
<text x="573.77" y="524" font-family="sans-serif" font-size="9" text-anchor="middle" fill="#555555" paint-order="stroke">2016</text>
<line x1="633.5" y1="510" x2="633.5" y2="515" stroke="#333333" stroke-width="1"/>
<text x="633.5" y="524" font-family="sans-serif" font-size="9" text-anchor="middle" fill="#555555" paint-order="stroke">2018</text>
<line x1="693.14" y1="510" x2="693.14" y2="515" stroke="#333333" stroke-width="1"/>
<text x="693.14" y="524" font-family="sans-serif" font-size="9" text-anchor="middle" fill="#555555" paint-order="stroke">2020</text>
<line x1="752.86" y1="510" x2="752.86" y2="515" stroke="#333333" stroke-width="1"/>
<text x="752.86" y="524" font-family="sans-serif" font-size="9" text-anchor="middle" fill="#555555" paint-order="stroke">2022</text>
<line x1="812.5" y1="510" x2="812.5" y2="515" stroke="#333333" stroke-width="1"/>
<text x="812.5" y="524" font-family="sans-serif" font-size="9" text-anchor="middle" fill="#555555" paint-order="stroke">2024</text>
<line x1="62" y1="510" x2="57" y2="510" stroke="#333333" stroke-width="1"/>
<text x="52" y="514" font-family="sans-serif" font-size="9" text-anchor="end" fill="#555555" paint-order="stroke">0</text>
<line x1="62" y1="406.62" x2="57" y2="406.62" stroke="#333333" stroke-width="1"/>
<text x="52" y="410.62" font-family="sans-serif" font-size="9" text-anchor="end" fill="#555555" paint-order="stroke">2000</text>
<line x1="62" y1="303.23" x2="57" y2="303.23" stroke="#333333" stroke-width="1"/>
<text x="52" y="307.23" font-family="sans-serif" font-size="9" text-anchor="end" fill="#555555" paint-order="stroke">4000</text>
<line x1="62" y1="199.85" x2="57" y2="199.85" stroke="#333333" stroke-width="1"/>
<text x="52" y="203.85" font-family="sans-serif" font-size="9" text-anchor="end" fill="#555555" paint-order="stroke">6000</text>
<line x1="62" y1="96.46" x2="57" y2="96.46" stroke="#333333" stroke-width="1"/>
<text x="52" y="100.46" font-family="sans-serif" font-size="9" text-anchor="end" fill="#555555" paint-order="stroke">8000</text>
<g clip-path="url(#clip0)">
<g clip-path="url(#clip1)">
<polygon points="96.32,397.41 126.22,396.02 156.04,389.51 185.86,391.57 215.68,410.44 245.58,410.98 275.41,403.98 305.23,398.03 335.05,394.59 364.95,400.52 394.77,402.39 424.59,400.26 454.41,400.77 484.31,393.11 514.13,399.33 543.95,408.5 573.77,408.98 603.68,400.45 633.5,392.19 663.32,390.61 693.14,386.54 723.04,390.57 752.86,392.84 782.68,389.84 782.68,510 752.86,510 723.04,510 693.14,510 663.32,510 633.5,510 603.68,510 573.77,510 543.95,510 514.13,510 484.31,510 454.41,510 424.59,510 394.77,510 364.95,510 335.05,510 305.23,510 275.41,510 245.58,510 215.68,510 185.86,510 156.04,510 126.22,510 96.32,510" fill="#1f77b4" fill-opacity="0.85"/>
<line x1="96.32" y1="397.41" x2="126.22" y2="396.02" stroke="#16537e" stroke-width="1.8"/>
<line x1="126.22" y1="396.02" x2="156.04" y2="389.51" stroke="#16537e" stroke-width="1.8"/>
<line x1="156.04" y1="389.51" x2="185.86" y2="391.57" stroke="#16537e" stroke-width="1.8"/>
<line x1="185.86" y1="391.57" x2="215.68" y2="410.44" stroke="#16537e" stroke-width="1.8"/>
<line x1="215.68" y1="410.44" x2="245.58" y2="410.98" stroke="#16537e" stroke-width="1.8"/>
<line x1="245.58" y1="410.98" x2="275.41" y2="403.98" stroke="#16537e" stroke-width="1.8"/>
<line x1="275.41" y1="403.98" x2="305.23" y2="398.03" stroke="#16537e" stroke-width="1.8"/>
<line x1="305.23" y1="398.03" x2="335.05" y2="394.59" stroke="#16537e" stroke-width="1.8"/>
<line x1="335.05" y1="394.59" x2="364.95" y2="400.52" stroke="#16537e" stroke-width="1.8"/>
<line x1="364.95" y1="400.52" x2="394.77" y2="402.39" stroke="#16537e" stroke-width="1.8"/>
<line x1="394.77" y1="402.39" x2="424.59" y2="400.26" stroke="#16537e" stroke-width="1.8"/>
<line x1="424.59" y1="400.26" x2="454.41" y2="400.77" stroke="#16537e" stroke-width="1.8"/>
<line x1="454.41" y1="400.77" x2="484.31" y2="393.11" stroke="#16537e" stroke-width="1.8"/>
<line x1="484.31" y1="393.11" x2="514.13" y2="399.33" stroke="#16537e" stroke-width="1.8"/>
<line x1="514.13" y1="399.33" x2="543.95" y2="408.5" stroke="#16537e" stroke-width="1.8"/>
<line x1="543.95" y1="408.5" x2="573.77" y2="408.98" stroke="#16537e" stroke-width="1.8"/>
<line x1="573.77" y1="408.98" x2="603.68" y2="400.45" stroke="#16537e" stroke-width="1.8"/>
<line x1="603.68" y1="400.45" x2="633.5" y2="392.19" stroke="#16537e" stroke-width="1.8"/>
<line x1="633.5" y1="392.19" x2="663.32" y2="390.61" stroke="#16537e" stroke-width="1.8"/>
<line x1="663.32" y1="390.61" x2="693.14" y2="386.54" stroke="#16537e" stroke-width="1.8"/>
<line x1="693.14" y1="386.54" x2="723.04" y2="390.57" stroke="#16537e" stroke-width="1.8"/>
<line x1="723.04" y1="390.57" x2="752.86" y2="392.84" stroke="#16537e" stroke-width="1.8"/>
<line x1="752.86" y1="392.84" x2="782.68" y2="389.84" stroke="#16537e" stroke-width="1.8"/>
<polygon points="96.32,271.93 126.22,260.47 156.04,245.81 185.86,248.15 215.68,264.48 245.58,261.89 275.41,248.82 305.23,241.42 335.05,227.25 364.95,252.08 394.77,256.04 424.59,238.59 454.41,240.95 484.31,224.22 514.13,234.69 543.95,236.46 573.77,240.63 603.68,219.69 633.5,204.08 663.32,198.77 693.14,181.99 723.04,203.81 752.86,202.08 782.68,184.52 782.68,389.84 752.86,392.84 723.04,390.57 693.14,386.54 663.32,390.61 633.5,392.19 603.68,400.45 573.77,408.98 543.95,408.5 514.13,399.33 484.31,393.11 454.41,400.77 424.59,400.26 394.77,402.39 364.95,400.52 335.05,394.59 305.23,398.03 275.41,403.98 245.58,410.98 215.68,410.44 185.86,391.57 156.04,389.51 126.22,396.02 96.32,397.41" fill="#ff7f0e" fill-opacity="0.85"/>
<line x1="96.32" y1="271.93" x2="126.22" y2="260.47" stroke="#b2590a" stroke-width="1.8"/>
<line x1="126.22" y1="260.47" x2="156.04" y2="245.81" stroke="#b2590a" stroke-width="1.8"/>
<line x1="156.04" y1="245.81" x2="185.86" y2="248.15" stroke="#b2590a" stroke-width="1.8"/>
<line x1="185.86" y1="248.15" x2="215.68" y2="264.48" stroke="#b2590a" stroke-width="1.8"/>
<line x1="215.68" y1="264.48" x2="245.58" y2="261.89" stroke="#b2590a" stroke-width="1.8"/>
<line x1="245.58" y1="261.89" x2="275.41" y2="248.82" stroke="#b2590a" stroke-width="1.8"/>
<line x1="275.41" y1="248.82" x2="305.23" y2="241.42" stroke="#b2590a" stroke-width="1.8"/>
<line x1="305.23" y1="241.42" x2="335.05" y2="227.25" stroke="#b2590a" stroke-width="1.8"/>
<line x1="335.05" y1="227.25" x2="364.95" y2="252.08" stroke="#b2590a" stroke-width="1.8"/>
<line x1="364.95" y1="252.08" x2="394.77" y2="256.04" stroke="#b2590a" stroke-width="1.8"/>
<line x1="394.77" y1="256.04" x2="424.59" y2="238.59" stroke="#b2590a" stroke-width="1.8"/>
<line x1="424.59" y1="238.59" x2="454.41" y2="240.95" stroke="#b2590a" stroke-width="1.8"/>
<line x1="454.41" y1="240.95" x2="484.31" y2="224.22" stroke="#b2590a" stroke-width="1.8"/>
<line x1="484.31" y1="224.22" x2="514.13" y2="234.69" stroke="#b2590a" stroke-width="1.8"/>
<line x1="514.13" y1="234.69" x2="543.95" y2="236.46" stroke="#b2590a" stroke-width="1.8"/>
<line x1="543.95" y1="236.46" x2="573.77" y2="240.63" stroke="#b2590a" stroke-width="1.8"/>
<line x1="573.77" y1="240.63" x2="603.68" y2="219.69" stroke="#b2590a" stroke-width="1.8"/>
<line x1="603.68" y1="219.69" x2="633.5" y2="204.08" stroke="#b2590a" stroke-width="1.8"/>
<line x1="633.5" y1="204.08" x2="663.32" y2="198.77" stroke="#b2590a" stroke-width="1.8"/>
<line x1="663.32" y1="198.77" x2="693.14" y2="181.99" stroke="#b2590a" stroke-width="1.8"/>
<line x1="693.14" y1="181.99" x2="723.04" y2="203.81" stroke="#b2590a" stroke-width="1.8"/>
<line x1="723.04" y1="203.81" x2="752.86" y2="202.08" stroke="#b2590a" stroke-width="1.8"/>
<line x1="752.86" y1="202.08" x2="782.68" y2="184.52" stroke="#b2590a" stroke-width="1.8"/>
<polygon points="96.32,190.67 126.22,172.96 156.04,157.05 185.86,157.58 215.68,173.61 245.58,173.77 275.41,154.71 305.23,143.28 335.05,115.64 364.95,147.3 394.77,162.49 424.59,140.58 454.41,138.22 484.31,117.48 514.13,126.87 543.95,127.68 573.77,132.89 603.68,108.3 633.5,85.7 663.32,76.06 693.14,50 723.04,75.73 752.86,84.21 782.68,59.14 782.68,184.52 752.86,202.08 723.04,203.81 693.14,181.99 663.32,198.77 633.5,204.08 603.68,219.69 573.77,240.63 543.95,236.46 514.13,234.69 484.31,224.22 454.41,240.95 424.59,238.59 394.77,256.04 364.95,252.08 335.05,227.25 305.23,241.42 275.41,248.82 245.58,261.89 215.68,264.48 185.86,248.15 156.04,245.81 126.22,260.47 96.32,271.93" fill="#2ca02c" fill-opacity="0.85"/>
<line x1="96.32" y1="190.67" x2="126.22" y2="172.96" stroke="#1f701f" stroke-width="1.8"/>
<line x1="126.22" y1="172.96" x2="156.04" y2="157.05" stroke="#1f701f" stroke-width="1.8"/>
<line x1="156.04" y1="157.05" x2="185.86" y2="157.58" stroke="#1f701f" stroke-width="1.8"/>
<line x1="185.86" y1="157.58" x2="215.68" y2="173.61" stroke="#1f701f" stroke-width="1.8"/>
<line x1="215.68" y1="173.61" x2="245.58" y2="173.77" stroke="#1f701f" stroke-width="1.8"/>
<line x1="245.58" y1="173.77" x2="275.41" y2="154.71" stroke="#1f701f" stroke-width="1.8"/>
<line x1="275.41" y1="154.71" x2="305.23" y2="143.28" stroke="#1f701f" stroke-width="1.8"/>
<line x1="305.23" y1="143.28" x2="335.05" y2="115.64" stroke="#1f701f" stroke-width="1.8"/>
<line x1="335.05" y1="115.64" x2="364.95" y2="147.3" stroke="#1f701f" stroke-width="1.8"/>
<line x1="364.95" y1="147.3" x2="394.77" y2="162.49" stroke="#1f701f" stroke-width="1.8"/>
<line x1="394.77" y1="162.49" x2="424.59" y2="140.58" stroke="#1f701f" stroke-width="1.8"/>
<line x1="424.59" y1="140.58" x2="454.41" y2="138.22" stroke="#1f701f" stroke-width="1.8"/>
<line x1="454.41" y1="138.22" x2="484.31" y2="117.48" stroke="#1f701f" stroke-width="1.8"/>
<line x1="484.31" y1="117.48" x2="514.13" y2="126.87" stroke="#1f701f" stroke-width="1.8"/>
<line x1="514.13" y1="126.87" x2="543.95" y2="127.68" stroke="#1f701f" stroke-width="1.8"/>
<line x1="543.95" y1="127.68" x2="573.77" y2="132.89" stroke="#1f701f" stroke-width="1.8"/>
<line x1="573.77" y1="132.89" x2="603.68" y2="108.3" stroke="#1f701f" stroke-width="1.8"/>
<line x1="603.68" y1="108.3" x2="633.5" y2="85.7" stroke="#1f701f" stroke-width="1.8"/>
<line x1="633.5" y1="85.7" x2="663.32" y2="76.06" stroke="#1f701f" stroke-width="1.8"/>
<line x1="663.32" y1="76.06" x2="693.14" y2="50" stroke="#1f701f" stroke-width="1.8"/>
<line x1="693.14" y1="50" x2="723.04" y2="75.73" stroke="#1f701f" stroke-width="1.8"/>
<line x1="723.04" y1="75.73" x2="752.86" y2="84.21" stroke="#1f701f" stroke-width="1.8"/>
<line x1="752.86" y1="84.21" x2="782.68" y2="59.14" stroke="#1f701f" stroke-width="1.8"/>
</g>
</g>
<text x="439.5" y="545" font-family="sans-serif" font-size="12" text-anchor="middle" fill="#444444" paint-order="stroke">Year</text>
<g transform="translate(22.07,280)">
<g transform="rotate(-90)">
<text x="0" y="0" font-family="sans-serif" font-size="12" text-anchor="middle" fill="#444444" paint-order="stroke">Million Pounds</text>
</g>
</g>
</svg>
