<?xml version="1.0" encoding="UTF-8"?>
<svg xmlns="http://www.w3.org/2000/svg" xmlns:xlink="http://www.w3.org/1999/xlink" version="1.1" width="900" height="560" viewBox="0 0 900 560">
<defs>
<clipPath id="clip0"><path d="M51 50h775v460h-775Z"/></clipPath>
<clipPath id="clip1"><path d="M51 50h775v460h-775Z"/></clipPath>
</defs>
<rect width="100%" height="100%" fill="#ffffff"/>
<rect x="0" y="0" width="900" height="560" fill="#ffffff"/>
<text x="450" y="25" font-family="sans-serif" font-size="14" font-weight="bold" text-anchor="middle" fill="#111111" paint-order="stroke">6. Dual Aesthetic Mapping (Color &amp; Shape via Aes)</text>
<text x="845.93" y="72" font-family="sans-serif" font-size="11" font-weight="bold" text-anchor="start" fill="#222222" paint-order="stroke">drv</text>
<rect x="845.93" y="82" width="14" height="14" fill="none" stroke="#cccccc" stroke-width="0.5"/>
<circle cx="852.93" cy="89" r="2.5" fill="#1f77b4" stroke="#16537e" stroke-width="0.5"/>
<text x="867.93" y="92" font-family="sans-serif" font-size="10" text-anchor="start" fill="#222222" paint-order="stroke">4WD</text>
<rect x="845.93" y="102" width="14" height="14" fill="none" stroke="#cccccc" stroke-width="0.5"/>
<polygon points="852.93,106.5 855.43,111.5 850.43,111.5" fill="#ff7f0e"/>
<polygon points="852.93,106.5 855.43,111.5 850.43,111.5" fill="none" stroke="#b2590a" stroke-width="0.5"/>
<text x="867.93" y="112" font-family="sans-serif" font-size="10" text-anchor="start" fill="#222222" paint-order="stroke">Front</text>
<rect x="845.93" y="122" width="14" height="14" fill="none" stroke="#cccccc" stroke-width="0.5"/>
<rect x="850.43" y="126.5" width="5" height="5" fill="#2ca02c" stroke="#1f701f" stroke-width="0.5"/>
<text x="867.93" y="132" font-family="sans-serif" font-size="10" text-anchor="start" fill="#222222" paint-order="stroke">Rear</text>
<rect x="51" y="50" width="775" height="460" fill="#ebebeb"/>
<line x1="138.42" y1="50" x2="138.42" y2="510" stroke="#ffffff" stroke-width="0.8"/>
<line x1="268.89" y1="50" x2="268.89" y2="510" stroke="#ffffff" stroke-width="0.8"/>
<line x1="399.36" y1="50" x2="399.36" y2="510" stroke="#ffffff" stroke-width="0.8"/>
<line x1="529.83" y1="50" x2="529.83" y2="510" stroke="#ffffff" stroke-width="0.8"/>
<line x1="660.3" y1="50" x2="660.3" y2="510" stroke="#ffffff" stroke-width="0.8"/>
<line x1="790.77" y1="50" x2="790.77" y2="510" stroke="#ffffff" stroke-width="0.8"/>
<line x1="51" y1="384.55" x2="826" y2="384.55" stroke="#ffffff" stroke-width="0.8"/>
<line x1="51" y1="253.86" x2="826" y2="253.86" stroke="#ffffff" stroke-width="0.8"/>
<line x1="51" y1="123.18" x2="826" y2="123.18" stroke="#ffffff" stroke-width="0.8"/>
<line x1="73.18" y1="50" x2="73.18" y2="510" stroke="#ffffff" stroke-width="0.4"/>
<line x1="105.8" y1="50" x2="105.8" y2="510" stroke="#ffffff" stroke-width="0.4"/>
<line x1="171.03" y1="50" x2="171.03" y2="510" stroke="#ffffff" stroke-width="0.4"/>
<line x1="203.65" y1="50" x2="203.65" y2="510" stroke="#ffffff" stroke-width="0.4"/>
<line x1="236.27" y1="50" x2="236.27" y2="510" stroke="#ffffff" stroke-width="0.4"/>
<line x1="301.51" y1="50" x2="301.51" y2="510" stroke="#ffffff" stroke-width="0.4"/>
<line x1="334.12" y1="50" x2="334.12" y2="510" stroke="#ffffff" stroke-width="0.4"/>
<line x1="366.74" y1="50" x2="366.74" y2="510" stroke="#ffffff" stroke-width="0.4"/>
<line x1="431.98" y1="50" x2="431.98" y2="510" stroke="#ffffff" stroke-width="0.4"/>
<line x1="464.59" y1="50" x2="464.59" y2="510" stroke="#ffffff" stroke-width="0.4"/>
<line x1="497.21" y1="50" x2="497.21" y2="510" stroke="#ffffff" stroke-width="0.4"/>
<line x1="562.45" y1="50" x2="562.45" y2="510" stroke="#ffffff" stroke-width="0.4"/>
<line x1="595.07" y1="50" x2="595.07" y2="510" stroke="#ffffff" stroke-width="0.4"/>
<line x1="627.68" y1="50" x2="627.68" y2="510" stroke="#ffffff" stroke-width="0.4"/>
<line x1="692.92" y1="50" x2="692.92" y2="510" stroke="#ffffff" stroke-width="0.4"/>
<line x1="725.54" y1="50" x2="725.54" y2="510" stroke="#ffffff" stroke-width="0.4"/>
<line x1="758.15" y1="50" x2="758.15" y2="510" stroke="#ffffff" stroke-width="0.4"/>
<line x1="823.39" y1="50" x2="823.39" y2="510" stroke="#ffffff" stroke-width="0.4"/>
<line x1="51" y1="482.56" x2="826" y2="482.56" stroke="#ffffff" stroke-width="0.4"/>
<line x1="51" y1="449.89" x2="826" y2="449.89" stroke="#ffffff" stroke-width="0.4"/>
<line x1="51" y1="417.22" x2="826" y2="417.22" stroke="#ffffff" stroke-width="0.4"/>
<line x1="51" y1="351.88" x2="826" y2="351.88" stroke="#ffffff" stroke-width="0.4"/>
<line x1="51" y1="319.2" x2="826" y2="319.2" stroke="#ffffff" stroke-width="0.4"/>
<line x1="51" y1="286.53" x2="826" y2="286.53" stroke="#ffffff" stroke-width="0.4"/>
<line x1="51" y1="221.19" x2="826" y2="221.19" stroke="#ffffff" stroke-width="0.4"/>
<line x1="51" y1="188.52" x2="826" y2="188.52" stroke="#ffffff" stroke-width="0.4"/>
<line x1="51" y1="155.85" x2="826" y2="155.85" stroke="#ffffff" stroke-width="0.4"/>
<line x1="51" y1="90.51" x2="826" y2="90.51" stroke="#ffffff" stroke-width="0.4"/>
<line x1="51" y1="57.84" x2="826" y2="57.84" stroke="#ffffff" stroke-width="0.4"/>
<line x1="51" y1="510" x2="826" y2="510" stroke="#333333" stroke-width="1"/>
<line x1="51" y1="50" x2="51" y2="510" stroke="#333333" stroke-width="1"/>
<line x1="138.42" y1="510" x2="138.42" y2="515" stroke="#333333" stroke-width="1"/>
<text x="138.42" y="524" font-family="sans-serif" font-size="9" text-anchor="middle" fill="#555555" paint-order="stroke">2</text>
<line x1="268.89" y1="510" x2="268.89" y2="515" stroke="#333333" stroke-width="1"/>
<text x="268.89" y="524" font-family="sans-serif" font-size="9" text-anchor="middle" fill="#555555" paint-order="stroke">3</text>
<line x1="399.36" y1="510" x2="399.36" y2="515" stroke="#333333" stroke-width="1"/>
<text x="399.36" y="524" font-family="sans-serif" font-size="9" text-anchor="middle" fill="#555555" paint-order="stroke">4</text>
<line x1="529.83" y1="510" x2="529.83" y2="515" stroke="#333333" stroke-width="1"/>
<text x="529.83" y="524" font-family="sans-serif" font-size="9" text-anchor="middle" fill="#555555" paint-order="stroke">5</text>
<line x1="660.3" y1="510" x2="660.3" y2="515" stroke="#333333" stroke-width="1"/>
<text x="660.3" y="524" font-family="sans-serif" font-size="9" text-anchor="middle" fill="#555555" paint-order="stroke">6</text>
<line x1="790.77" y1="510" x2="790.77" y2="515" stroke="#333333" stroke-width="1"/>
<text x="790.77" y="524" font-family="sans-serif" font-size="9" text-anchor="middle" fill="#555555" paint-order="stroke">7</text>
<line x1="51" y1="384.55" x2="46" y2="384.55" stroke="#333333" stroke-width="1"/>
<text x="41" y="388.55" font-family="sans-serif" font-size="9" text-anchor="end" fill="#555555" paint-order="stroke">20</text>
<line x1="51" y1="253.86" x2="46" y2="253.86" stroke="#333333" stroke-width="1"/>
<text x="41" y="257.86" font-family="sans-serif" font-size="9" text-anchor="end" fill="#555555" paint-order="stroke">30</text>
<line x1="51" y1="123.18" x2="46" y2="123.18" stroke="#333333" stroke-width="1"/>
<text x="41" y="127.18" font-family="sans-serif" font-size="9" text-anchor="end" fill="#555555" paint-order="stroke">40</text>
<g clip-path="url(#clip0)">
<g clip-path="url(#clip1)">
<polygon points="112.32,261.93 117.32,271.93 107.32,271.93" fill="#ff7f0e"/>
<polygon points="112.32,261.93 117.32,271.93 107.32,271.93" fill="none" stroke="#b2590a" stroke-width="1"/>
<polygon points="112.32,261.93 117.32,271.93 107.32,271.93" fill="#ff7f0e"/>
<polygon points="112.32,261.93 117.32,271.93 107.32,271.93" fill="none" stroke="#b2590a" stroke-width="1"/>
<polygon points="138.42,235.8 143.42,245.8 133.42,245.8" fill="#ff7f0e"/>
<polygon points="138.42,235.8 143.42,245.8 133.42,245.8" fill="none" stroke="#b2590a" stroke-width="1"/>
<polygon points="138.42,248.86 143.42,258.86 133.42,258.86" fill="#ff7f0e"/>
<polygon points="138.42,248.86 143.42,258.86 133.42,258.86" fill="none" stroke="#b2590a" stroke-width="1"/>
<polygon points="242.79,301.14 247.79,311.14 237.79,311.14" fill="#ff7f0e"/>
<polygon points="242.79,301.14 247.79,311.14 237.79,311.14" fill="none" stroke="#b2590a" stroke-width="1"/>
<polygon points="242.79,301.14 247.79,311.14 237.79,311.14" fill="#ff7f0e"/>
<polygon points="242.79,301.14 247.79,311.14 237.79,311.14" fill="none" stroke="#b2590a" stroke-width="1"/>
<polygon points="281.93,288.07 286.93,298.07 276.93,298.07" fill="#ff7f0e"/>
<polygon points="281.93,288.07 286.93,298.07 276.93,298.07" fill="none" stroke="#b2590a" stroke-width="1"/>
<g fill="#1f77b4" stroke="#16537e" stroke-width="1"><circle cx="112.32" cy="306.14" r="5"/><circle cx="112.32" cy="319.2" r="5"/><circle cx="138.42" cy="280" r="5"/><circle cx="138.42" cy="293.07" r="5"/><circle cx="242.79" cy="319.2" r="5"/><circle cx="242.79" cy="319.2" r="5"/><circle cx="281.93" cy="319.2" r="5"/><circle cx="281.93" cy="319.2" r="5"/><circle cx="242.79" cy="332.27" r="5"/><circle cx="281.93" cy="319.2" r="5"/><circle cx="425.45" cy="345.34" r="5"/></g>
<g fill="#2ca02c" stroke="#1f701f" stroke-width="1"><rect x="563.97" y="379.55" width="10" height="10"/><rect x="563.97" y="444.89" width="10" height="10"/><rect x="563.97" y="379.55" width="10" height="10"/><rect x="616.16" y="418.75" width="10" height="10"/><rect x="655.3" y="418.75" width="10" height="10"/><rect x="616.16" y="301.14" width="10" height="10"/><rect x="616.16" y="340.34" width="10" height="10"/><rect x="681.4" y="301.14" width="10" height="10"/><rect x="681.4" y="314.2" width="10" height="10"/><rect x="785.77" y="327.27" width="10" height="10"/></g>
<g fill="#1f77b4" stroke="#16537e" stroke-width="1"><circle cx="568.97" cy="397.61" r="5"/><circle cx="568.97" cy="462.95" r="5"/><circle cx="621.16" cy="449.89" r="5"/><circle cx="725.54" cy="423.75" r="5"/></g>
<polygon points="190.6,288.07 195.6,298.07 185.6,298.07" fill="#ff7f0e"/>
<polygon points="190.6,288.07 195.6,298.07 185.6,298.07" fill="none" stroke="#b2590a" stroke-width="1"/>
<polygon points="190.6,248.86 195.6,258.86 185.6,258.86" fill="#ff7f0e"/>
<polygon points="190.6,248.86 195.6,258.86 185.6,258.86" fill="none" stroke="#b2590a" stroke-width="1"/>
<polygon points="281.93,301.14 286.93,311.14 276.93,311.14" fill="#ff7f0e"/>
<polygon points="281.93,301.14 286.93,311.14 276.93,311.14" fill="none" stroke="#b2590a" stroke-width="1"/>
<polygon points="334.12,261.93 339.12,271.93 329.12,271.93" fill="#ff7f0e"/>
<polygon points="334.12,261.93 339.12,271.93 329.12,271.93" fill="none" stroke="#b2590a" stroke-width="1"/>
<polygon points="347.17,301.14 352.17,311.14 342.17,311.14" fill="#ff7f0e"/>
<polygon points="347.17,301.14 352.17,311.14 342.17,311.14" fill="none" stroke="#b2590a" stroke-width="1"/>
<polygon points="190.6,327.27 195.6,337.27 185.6,337.27" fill="#ff7f0e"/>
<polygon points="190.6,327.27 195.6,337.27 185.6,337.27" fill="none" stroke="#b2590a" stroke-width="1"/>
<polygon points="268.89,327.27 273.89,337.27 263.89,337.27" fill="#ff7f0e"/>
<polygon points="268.89,327.27 273.89,337.27 263.89,337.27" fill="none" stroke="#b2590a" stroke-width="1"/>
<polygon points="308.03,353.41 313.03,363.41 303.03,363.41" fill="#ff7f0e"/>
<polygon points="308.03,353.41 313.03,363.41 303.03,363.41" fill="none" stroke="#b2590a" stroke-width="1"/>
<polygon points="308.03,353.41 313.03,363.41 303.03,363.41" fill="#ff7f0e"/>
<polygon points="308.03,353.41 313.03,363.41 303.03,363.41" fill="none" stroke="#b2590a" stroke-width="1"/>
<polygon points="308.03,327.27 313.03,337.27 303.03,337.27" fill="#ff7f0e"/>
<polygon points="308.03,327.27 313.03,337.27 303.03,337.27" fill="none" stroke="#b2590a" stroke-width="1"/>
<polygon points="308.03,327.27 313.03,337.27 303.03,337.27" fill="#ff7f0e"/>
<polygon points="308.03,327.27 313.03,337.27 303.03,337.27" fill="none" stroke="#b2590a" stroke-width="1"/>
<polygon points="308.03,418.75 313.03,428.75 303.03,428.75" fill="#ff7f0e"/>
<polygon points="308.03,418.75 313.03,428.75 303.03,428.75" fill="none" stroke="#b2590a" stroke-width="1"/>
<polygon points="373.26,353.41 378.26,363.41 368.26,363.41" fill="#ff7f0e"/>
<polygon points="373.26,353.41 378.26,363.41 368.26,363.41" fill="none" stroke="#b2590a" stroke-width="1"/>
<polygon points="373.26,366.48 378.26,376.48 368.26,376.48" fill="#ff7f0e"/>
<polygon points="373.26,366.48 378.26,376.48 368.26,376.48" fill="none" stroke="#b2590a" stroke-width="1"/>
<polygon points="373.26,340.34 378.26,350.34 368.26,350.34" fill="#ff7f0e"/>
<polygon points="373.26,340.34 378.26,350.34 368.26,350.34" fill="none" stroke="#b2590a" stroke-width="1"/>
<polygon points="399.36,340.34 404.36,350.34 394.36,350.34" fill="#ff7f0e"/>
<polygon points="399.36,340.34 404.36,350.34 394.36,350.34" fill="none" stroke="#b2590a" stroke-width="1"/>
<g fill="#1f77b4" stroke="#16537e" stroke-width="1"><circle cx="360.22" cy="397.61" r="5"/><circle cx="360.22" cy="410.68" r="5"/><circle cx="386.31" cy="423.75" r="5"/><circle cx="386.31" cy="423.75" r="5"/><circle cx="490.69" cy="397.61" r="5"/><circle cx="490.69" cy="397.61" r="5"/><circle cx="490.69" cy="489.09" r="5"/><circle cx="555.92" cy="423.75" r="5"/><circle cx="555.92" cy="449.89" r="5"/><circle cx="386.31" cy="423.75" r="5"/><circle cx="490.69" cy="423.75" r="5"/><circle cx="490.69" cy="489.09" r="5"/><circle cx="490.69" cy="423.75" r="5"/><circle cx="555.92" cy="436.82" r="5"/><circle cx="621.16" cy="410.68" r="5"/><circle cx="647.25" cy="449.89" r="5"/><circle cx="490.69" cy="436.82" r="5"/><circle cx="490.69" cy="489.09" r="5"/><circle cx="490.69" cy="423.75" r="5"/><circle cx="490.69" cy="423.75" r="5"/><circle cx="490.69" cy="436.82" r="5"/><circle cx="490.69" cy="489.09" r="5"/><circle cx="555.92" cy="449.89" r="5"/><circle cx="555.92" cy="436.82" r="5"/><circle cx="621.16" cy="423.75" r="5"/><circle cx="647.25" cy="449.89" r="5"/></g>
<g fill="#2ca02c" stroke="#1f701f" stroke-width="1"><rect x="472.64" y="418.75" width="10" height="10"/><rect x="577.02" y="418.75" width="10" height="10"/><rect x="577.02" y="405.68" width="10" height="10"/></g>
<g fill="#1f77b4" stroke="#16537e" stroke-width="1"><circle cx="399.36" cy="423.75" r="5"/><circle cx="399.36" cy="397.61" r="5"/><circle cx="399.36" cy="423.75" r="5"/><circle cx="399.36" cy="397.61" r="5"/><circle cx="477.64" cy="397.61" r="5"/><circle cx="529.83" cy="423.75" r="5"/><circle cx="425.45" cy="423.75" r="5"/><circle cx="425.45" cy="423.75" r="5"/><circle cx="477.64" cy="436.82" r="5"/><circle cx="477.64" cy="436.82" r="5"/><circle cx="477.64" cy="423.75" r="5"/><circle cx="582.02" cy="449.89" r="5"/><circle cx="582.02" cy="423.75" r="5"/></g>
<g fill="#2ca02c" stroke="#1f701f" stroke-width="1"><rect x="368.26" y="301.14" width="10" height="10"/><rect x="368.26" y="314.2" width="10" height="10"/><rect x="394.36" y="301.14" width="10" height="10"/><rect x="394.36" y="327.27" width="10" height="10"/><rect x="472.64" y="366.48" width="10" height="10"/><rect x="472.64" y="353.41" width="10" height="10"/><rect x="472.64" y="340.34" width="10" height="10"/><rect x="472.64" y="353.41" width="10" height="10"/><rect x="577.02" y="379.55" width="10" height="10"/></g>
<polygon points="86.23,209.66 91.23,219.66 81.23,219.66" fill="#ff7f0e"/>
<polygon points="86.23,209.66 91.23,219.66 81.23,219.66" fill="none" stroke="#b2590a" stroke-width="1"/>
<polygon points="86.23,222.73 91.23,232.73 81.23,232.73" fill="#ff7f0e"/>
<polygon points="86.23,222.73 91.23,232.73 81.23,232.73" fill="none" stroke="#b2590a" stroke-width="1"/>
<polygon points="86.23,222.73 91.23,232.73 81.23,232.73" fill="#ff7f0e"/>
<polygon points="86.23,222.73 91.23,232.73 81.23,232.73" fill="none" stroke="#b2590a" stroke-width="1"/>
<polygon points="86.23,261.93 91.23,271.93 81.23,271.93" fill="#ff7f0e"/>
<polygon points="86.23,261.93 91.23,271.93 81.23,271.93" fill="none" stroke="#b2590a" stroke-width="1"/>
<polygon points="86.23,222.73 91.23,232.73 81.23,232.73" fill="#ff7f0e"/>
<polygon points="86.23,222.73 91.23,232.73 81.23,232.73" fill="none" stroke="#b2590a" stroke-width="1"/>
<polygon points="112.32,196.59 117.32,206.59 107.32,206.59" fill="#ff7f0e"/>
<polygon points="112.32,196.59 117.32,206.59 107.32,206.59" fill="none" stroke="#b2590a" stroke-width="1"/>
<polygon points="112.32,170.45 117.32,180.45 107.32,180.45" fill="#ff7f0e"/>
<polygon points="112.32,170.45 117.32,180.45 107.32,180.45" fill="none" stroke="#b2590a" stroke-width="1"/>
<polygon points="112.32,170.45 117.32,180.45 107.32,180.45" fill="#ff7f0e"/>
<polygon points="112.32,170.45 117.32,180.45 107.32,180.45" fill="none" stroke="#b2590a" stroke-width="1"/>
<polygon points="138.42,261.93 143.42,271.93 133.42,271.93" fill="#ff7f0e"/>
<polygon points="138.42,261.93 143.42,271.93 133.42,271.93" fill="none" stroke="#b2590a" stroke-width="1"/>
<polygon points="190.6,301.14 195.6,311.14 185.6,311.14" fill="#ff7f0e"/>
<polygon points="190.6,301.14 195.6,311.14 185.6,311.14" fill="none" stroke="#b2590a" stroke-width="1"/>
<polygon points="190.6,288.07 195.6,298.07 185.6,298.07" fill="#ff7f0e"/>
<polygon points="190.6,288.07 195.6,298.07 185.6,298.07" fill="none" stroke="#b2590a" stroke-width="1"/>
<polygon points="190.6,248.86 195.6,258.86 185.6,258.86" fill="#ff7f0e"/>
<polygon points="190.6,248.86 195.6,258.86 185.6,258.86" fill="none" stroke="#b2590a" stroke-width="1"/>
<polygon points="190.6,235.8 195.6,245.8 185.6,245.8" fill="#ff7f0e"/>
<polygon points="190.6,235.8 195.6,245.8 185.6,245.8" fill="none" stroke="#b2590a" stroke-width="1"/>
<polygon points="203.65,301.14 208.65,311.14 198.65,311.14" fill="#ff7f0e"/>
<polygon points="203.65,301.14 208.65,311.14 198.65,311.14" fill="none" stroke="#b2590a" stroke-width="1"/>
<polygon points="203.65,301.14 208.65,311.14 198.65,311.14" fill="#ff7f0e"/>
<polygon points="203.65,301.14 208.65,311.14 198.65,311.14" fill="none" stroke="#b2590a" stroke-width="1"/>
<polygon points="308.03,275 313.03,285 303.03,285" fill="#ff7f0e"/>
<polygon points="308.03,275 313.03,285 303.03,285" fill="none" stroke="#b2590a" stroke-width="1"/>
<polygon points="138.42,301.14 143.42,311.14 133.42,311.14" fill="#ff7f0e"/>
<polygon points="138.42,301.14 143.42,311.14 133.42,311.14" fill="none" stroke="#b2590a" stroke-width="1"/>
<polygon points="138.42,261.93 143.42,271.93 133.42,271.93" fill="#ff7f0e"/>
<polygon points="138.42,261.93 143.42,271.93 133.42,271.93" fill="none" stroke="#b2590a" stroke-width="1"/>
<polygon points="138.42,275 143.42,285 133.42,285" fill="#ff7f0e"/>
<polygon points="138.42,275 143.42,285 133.42,285" fill="none" stroke="#b2590a" stroke-width="1"/>
<polygon points="138.42,288.07 143.42,298.07 133.42,298.07" fill="#ff7f0e"/>
<polygon points="138.42,288.07 143.42,298.07 133.42,298.07" fill="none" stroke="#b2590a" stroke-width="1"/>
<polygon points="229.75,327.27 234.75,337.27 224.75,337.27" fill="#ff7f0e"/>
<polygon points="229.75,327.27 234.75,337.27 224.75,337.27" fill="none" stroke="#b2590a" stroke-width="1"/>
<polygon points="229.75,327.27 234.75,337.27 224.75,337.27" fill="#ff7f0e"/>
<polygon points="229.75,327.27 234.75,337.27 224.75,337.27" fill="none" stroke="#b2590a" stroke-width="1"/>
<polygon points="229.75,327.27 234.75,337.27 224.75,337.27" fill="#ff7f0e"/>
<polygon points="229.75,327.27 234.75,337.27 224.75,337.27" fill="none" stroke="#b2590a" stroke-width="1"/>
<g fill="#1f77b4" stroke="#16537e" stroke-width="1"><circle cx="268.89" cy="358.41" r="5"/><circle cx="360.22" cy="397.61" r="5"/><circle cx="399.36" cy="384.55" r="5"/><circle cx="490.69" cy="423.75" r="5"/><circle cx="490.69" cy="489.09" r="5"/><circle cx="490.69" cy="397.61" r="5"/><circle cx="621.16" cy="410.68" r="5"/><circle cx="673.35" cy="462.95" r="5"/><circle cx="399.36" cy="449.89" r="5"/><circle cx="425.45" cy="410.68" r="5"/><circle cx="451.55" cy="410.68" r="5"/><circle cx="477.64" cy="449.89" r="5"/></g>
<g fill="#2ca02c" stroke="#1f701f" stroke-width="1"><rect x="577.02" y="418.75" width="10" height="10"/><rect x="577.02" y="431.82" width="10" height="10"/><rect x="577.02" y="405.68" width="10" height="10"/></g>
<g fill="#1f77b4" stroke="#16537e" stroke-width="1"><circle cx="399.36" cy="423.75" r="5"/><circle cx="399.36" cy="397.61" r="5"/><circle cx="477.64" cy="397.61" r="5"/><circle cx="529.83" cy="423.75" r="5"/></g>
<polygon points="190.6,261.93 195.6,271.93 185.6,271.93" fill="#ff7f0e"/>
<polygon points="190.6,261.93 195.6,271.93 185.6,271.93" fill="none" stroke="#b2590a" stroke-width="1"/>
<polygon points="190.6,288.07 195.6,298.07 185.6,298.07" fill="#ff7f0e"/>
<polygon points="190.6,288.07 195.6,298.07 185.6,298.07" fill="none" stroke="#b2590a" stroke-width="1"/>
<polygon points="203.65,235.8 208.65,245.8 198.65,245.8" fill="#ff7f0e"/>
<polygon points="203.65,235.8 208.65,245.8 198.65,245.8" fill="none" stroke="#b2590a" stroke-width="1"/>
<polygon points="203.65,222.73 208.65,232.73 198.65,232.73" fill="#ff7f0e"/>
<polygon points="203.65,222.73 208.65,232.73 198.65,232.73" fill="none" stroke="#b2590a" stroke-width="1"/>
<polygon points="334.12,288.07 339.12,298.07 329.12,298.07" fill="#ff7f0e"/>
<polygon points="334.12,288.07 339.12,298.07 329.12,298.07" fill="none" stroke="#b2590a" stroke-width="1"/>
<polygon points="334.12,301.14 339.12,311.14 329.12,311.14" fill="#ff7f0e"/>
<polygon points="334.12,301.14 339.12,311.14 329.12,311.14" fill="none" stroke="#b2590a" stroke-width="1"/>
<polygon points="268.89,301.14 273.89,311.14 263.89,311.14" fill="#ff7f0e"/>
<polygon points="268.89,301.14 273.89,311.14 263.89,311.14" fill="none" stroke="#b2590a" stroke-width="1"/>
<polygon points="268.89,314.2 273.89,324.2 263.89,324.2" fill="#ff7f0e"/>
<polygon points="268.89,314.2 273.89,324.2 263.89,324.2" fill="none" stroke="#b2590a" stroke-width="1"/>
<polygon points="334.12,314.2 339.12,324.2 329.12,324.2" fill="#ff7f0e"/>
<polygon points="334.12,314.2 339.12,324.2 329.12,324.2" fill="none" stroke="#b2590a" stroke-width="1"/>
<g fill="#1f77b4" stroke="#16537e" stroke-width="1"><circle cx="308.03" cy="423.75" r="5"/><circle cx="308.03" cy="423.75" r="5"/><circle cx="399.36" cy="384.55" r="5"/><circle cx="608.11" cy="410.68" r="5"/></g>
<polygon points="281.93,301.14 286.93,311.14 276.93,311.14" fill="#ff7f0e"/>
<polygon points="281.93,301.14 286.93,311.14 276.93,311.14" fill="none" stroke="#b2590a" stroke-width="1"/>
<polygon points="373.26,301.14 378.26,311.14 368.26,311.14" fill="#ff7f0e"/>
<polygon points="373.26,301.14 378.26,311.14 368.26,311.14" fill="none" stroke="#b2590a" stroke-width="1"/>
<polygon points="373.26,288.07 378.26,298.07 368.26,298.07" fill="#ff7f0e"/>
<polygon points="373.26,288.07 378.26,298.07 368.26,298.07" fill="none" stroke="#b2590a" stroke-width="1"/>
<polygon points="373.26,275 378.26,285 368.26,285" fill="#ff7f0e"/>
<polygon points="373.26,275 378.26,285 368.26,285" fill="none" stroke="#b2590a" stroke-width="1"/>
<polygon points="568.97,314.2 573.97,324.2 563.97,324.2" fill="#ff7f0e"/>
<polygon points="568.97,314.2 573.97,324.2 563.97,324.2" fill="none" stroke="#b2590a" stroke-width="1"/>
<g fill="#1f77b4" stroke="#16537e" stroke-width="1"><circle cx="203.65" cy="319.2" r="5"/><circle cx="203.65" cy="332.27" r="5"/><circle cx="203.65" cy="293.07" r="5"/><circle cx="203.65" cy="319.2" r="5"/><circle cx="203.65" cy="306.14" r="5"/><circle cx="203.65" cy="345.34" r="5"/><circle cx="164.51" cy="306.14" r="5"/><circle cx="164.51" cy="306.14" r="5"/><circle cx="203.65" cy="306.14" r="5"/><circle cx="203.65" cy="306.14" r="5"/><circle cx="203.65" cy="319.2" r="5"/><circle cx="203.65" cy="293.07" r="5"/><circle cx="203.65" cy="319.2" r="5"/><circle cx="203.65" cy="293.07" r="5"/><circle cx="229.75" cy="384.55" r="5"/><circle cx="229.75" cy="384.55" r="5"/><circle cx="321.08" cy="397.61" r="5"/><circle cx="321.08" cy="423.75" r="5"/><circle cx="399.36" cy="384.55" r="5"/><circle cx="490.69" cy="423.75" r="5"/></g>
<polygon points="164.51,261.93 169.51,271.93 159.51,271.93" fill="#ff7f0e"/>
<polygon points="164.51,261.93 169.51,271.93 159.51,271.93" fill="none" stroke="#b2590a" stroke-width="1"/>
<polygon points="164.51,288.07 169.51,298.07 159.51,298.07" fill="#ff7f0e"/>
<polygon points="164.51,288.07 169.51,298.07 159.51,298.07" fill="none" stroke="#b2590a" stroke-width="1"/>
<polygon points="190.6,235.8 195.6,245.8 185.6,245.8" fill="#ff7f0e"/>
<polygon points="190.6,235.8 195.6,245.8 185.6,245.8" fill="none" stroke="#b2590a" stroke-width="1"/>
<polygon points="190.6,235.8 195.6,245.8 185.6,245.8" fill="#ff7f0e"/>
<polygon points="190.6,235.8 195.6,245.8 185.6,245.8" fill="none" stroke="#b2590a" stroke-width="1"/>
<polygon points="268.89,301.14 273.89,311.14 263.89,311.14" fill="#ff7f0e"/>
<polygon points="268.89,301.14 273.89,311.14 263.89,311.14" fill="none" stroke="#b2590a" stroke-width="1"/>
<polygon points="268.89,301.14 273.89,311.14 263.89,311.14" fill="#ff7f0e"/>
<polygon points="268.89,301.14 273.89,311.14 263.89,311.14" fill="none" stroke="#b2590a" stroke-width="1"/>
<polygon points="334.12,275 339.12,285 329.12,285" fill="#ff7f0e"/>
<polygon points="334.12,275 339.12,285 329.12,285" fill="none" stroke="#b2590a" stroke-width="1"/>
<polygon points="164.51,288.07 169.51,298.07 159.51,298.07" fill="#ff7f0e"/>
<polygon points="164.51,288.07 169.51,298.07 159.51,298.07" fill="none" stroke="#b2590a" stroke-width="1"/>
<polygon points="164.51,261.93 169.51,271.93 159.51,271.93" fill="#ff7f0e"/>
<polygon points="164.51,261.93 169.51,271.93 159.51,271.93" fill="none" stroke="#b2590a" stroke-width="1"/>
<polygon points="190.6,235.8 195.6,245.8 185.6,245.8" fill="#ff7f0e"/>
<polygon points="190.6,235.8 195.6,245.8 185.6,245.8" fill="none" stroke="#b2590a" stroke-width="1"/>
<polygon points="190.6,235.8 195.6,245.8 185.6,245.8" fill="#ff7f0e"/>
<polygon points="190.6,235.8 195.6,245.8 185.6,245.8" fill="none" stroke="#b2590a" stroke-width="1"/>
<polygon points="268.89,301.14 273.89,311.14 263.89,311.14" fill="#ff7f0e"/>
<polygon points="268.89,301.14 273.89,311.14 263.89,311.14" fill="none" stroke="#b2590a" stroke-width="1"/>
<polygon points="268.89,301.14 273.89,311.14 263.89,311.14" fill="#ff7f0e"/>
<polygon points="268.89,301.14 273.89,311.14 263.89,311.14" fill="none" stroke="#b2590a" stroke-width="1"/>
<polygon points="308.03,288.07 313.03,298.07 303.03,298.07" fill="#ff7f0e"/>
<polygon points="308.03,288.07 313.03,298.07 303.03,298.07" fill="none" stroke="#b2590a" stroke-width="1"/>
<polygon points="112.32,248.86 117.32,258.86 107.32,258.86" fill="#ff7f0e"/>
<polygon points="112.32,248.86 117.32,258.86 107.32,258.86" fill="none" stroke="#b2590a" stroke-width="1"/>
<polygon points="112.32,209.66 117.32,219.66 107.32,219.66" fill="#ff7f0e"/>
<polygon points="112.32,209.66 117.32,219.66 107.32,219.66" fill="none" stroke="#b2590a" stroke-width="1"/>
<polygon points="112.32,183.52 117.32,193.52 107.32,193.52" fill="#ff7f0e"/>
<polygon points="112.32,183.52 117.32,193.52 107.32,193.52" fill="none" stroke="#b2590a" stroke-width="1"/>
<polygon points="112.32,157.39 117.32,167.39 107.32,167.39" fill="#ff7f0e"/>
<polygon points="112.32,157.39 117.32,167.39 107.32,167.39" fill="none" stroke="#b2590a" stroke-width="1"/>
<polygon points="112.32,183.52 117.32,193.52 107.32,193.52" fill="#ff7f0e"/>
<polygon points="112.32,183.52 117.32,193.52 107.32,193.52" fill="none" stroke="#b2590a" stroke-width="1"/>
<g fill="#1f77b4" stroke="#16537e" stroke-width="1"><circle cx="490.69" cy="449.89" r="5"/><circle cx="621.16" cy="410.68" r="5"/><circle cx="229.75" cy="384.55" r="5"/><circle cx="229.75" cy="384.55" r="5"/><circle cx="229.75" cy="358.41" r="5"/><circle cx="321.08" cy="423.75" r="5"/><circle cx="321.08" cy="397.61" r="5"/><circle cx="399.36" cy="410.68" r="5"/><circle cx="399.36" cy="384.55" r="5"/></g>
<polygon points="138.42,261.93 143.42,271.93 133.42,271.93" fill="#ff7f0e"/>
<polygon points="138.42,261.93 143.42,271.93 133.42,271.93" fill="none" stroke="#b2590a" stroke-width="1"/>
<polygon points="138.42,301.14 143.42,311.14 133.42,311.14" fill="#ff7f0e"/>
<polygon points="138.42,301.14 143.42,311.14 133.42,311.14" fill="none" stroke="#b2590a" stroke-width="1"/>
<polygon points="138.42,261.93 143.42,271.93 133.42,271.93" fill="#ff7f0e"/>
<polygon points="138.42,261.93 143.42,271.93 133.42,271.93" fill="none" stroke="#b2590a" stroke-width="1"/>
<polygon points="138.42,261.93 143.42,271.93 133.42,271.93" fill="#ff7f0e"/>
<polygon points="138.42,261.93 143.42,271.93 133.42,271.93" fill="none" stroke="#b2590a" stroke-width="1"/>
<polygon points="242.79,327.27 247.79,337.27 237.79,337.27" fill="#ff7f0e"/>
<polygon points="242.79,327.27 247.79,337.27 237.79,337.27" fill="none" stroke="#b2590a" stroke-width="1"/>
<polygon points="125.37,65.91 130.37,75.91 120.37,75.91" fill="#ff7f0e"/>
<polygon points="125.37,65.91 130.37,75.91 120.37,75.91" fill="none" stroke="#b2590a" stroke-width="1"/>
<polygon points="138.42,261.93 143.42,271.93 133.42,271.93" fill="#ff7f0e"/>
<polygon points="138.42,261.93 143.42,271.93 133.42,271.93" fill="none" stroke="#b2590a" stroke-width="1"/>
<polygon points="138.42,301.14 143.42,311.14 133.42,311.14" fill="#ff7f0e"/>
<polygon points="138.42,301.14 143.42,311.14 133.42,311.14" fill="none" stroke="#b2590a" stroke-width="1"/>
<polygon points="138.42,261.93 143.42,271.93 133.42,271.93" fill="#ff7f0e"/>
<polygon points="138.42,261.93 143.42,271.93 133.42,271.93" fill="none" stroke="#b2590a" stroke-width="1"/>
<polygon points="138.42,261.93 143.42,271.93 133.42,271.93" fill="#ff7f0e"/>
<polygon points="138.42,261.93 143.42,271.93 133.42,271.93" fill="none" stroke="#b2590a" stroke-width="1"/>
<polygon points="203.65,261.93 208.65,271.93 198.65,271.93" fill="#ff7f0e"/>
<polygon points="203.65,261.93 208.65,271.93 198.65,271.93" fill="none" stroke="#b2590a" stroke-width="1"/>
<polygon points="203.65,261.93 208.65,271.93 198.65,271.93" fill="#ff7f0e"/>
<polygon points="203.65,261.93 208.65,271.93 198.65,271.93" fill="none" stroke="#b2590a" stroke-width="1"/>
<polygon points="242.79,340.34 247.79,350.34 237.79,350.34" fill="#ff7f0e"/>
<polygon points="242.79,340.34 247.79,350.34 237.79,350.34" fill="none" stroke="#b2590a" stroke-width="1"/>
<polygon points="242.79,327.27 247.79,337.27 237.79,337.27" fill="#ff7f0e"/>
<polygon points="242.79,327.27 247.79,337.27 237.79,337.27" fill="none" stroke="#b2590a" stroke-width="1"/>
<polygon points="125.37,65.91 130.37,75.91 120.37,75.91" fill="#ff7f0e"/>
<polygon points="125.37,65.91 130.37,75.91 120.37,75.91" fill="none" stroke="#b2590a" stroke-width="1"/>
<polygon points="125.37,105.11 130.37,115.11 120.37,115.11" fill="#ff7f0e"/>
<polygon points="125.37,105.11 130.37,115.11 120.37,115.11" fill="none" stroke="#b2590a" stroke-width="1"/>
<polygon points="138.42,261.93 143.42,271.93 133.42,271.93" fill="#ff7f0e"/>
<polygon points="138.42,261.93 143.42,271.93 133.42,271.93" fill="none" stroke="#b2590a" stroke-width="1"/>
<polygon points="138.42,301.14 143.42,311.14 133.42,311.14" fill="#ff7f0e"/>
<polygon points="138.42,301.14 143.42,311.14 133.42,311.14" fill="none" stroke="#b2590a" stroke-width="1"/>
<polygon points="203.65,275 208.65,285 198.65,285" fill="#ff7f0e"/>
<polygon points="203.65,275 208.65,285 198.65,285" fill="none" stroke="#b2590a" stroke-width="1"/>
<polygon points="203.65,261.93 208.65,271.93 198.65,271.93" fill="#ff7f0e"/>
<polygon points="203.65,261.93 208.65,271.93 198.65,271.93" fill="none" stroke="#b2590a" stroke-width="1"/>
<polygon points="112.32,261.93 117.32,271.93 107.32,271.93" fill="#ff7f0e"/>
<polygon points="112.32,261.93 117.32,271.93 107.32,271.93" fill="none" stroke="#b2590a" stroke-width="1"/>
<polygon points="112.32,261.93 117.32,271.93 107.32,271.93" fill="#ff7f0e"/>
<polygon points="112.32,261.93 117.32,271.93 107.32,271.93" fill="none" stroke="#b2590a" stroke-width="1"/>
<polygon points="138.42,275 143.42,285 133.42,285" fill="#ff7f0e"/>
<polygon points="138.42,275 143.42,285 133.42,285" fill="none" stroke="#b2590a" stroke-width="1"/>
<polygon points="138.42,261.93 143.42,271.93 133.42,271.93" fill="#ff7f0e"/>
<polygon points="138.42,261.93 143.42,271.93 133.42,271.93" fill="none" stroke="#b2590a" stroke-width="1"/>
<polygon points="242.79,301.14 247.79,311.14 237.79,311.14" fill="#ff7f0e"/>
<polygon points="242.79,301.14 247.79,311.14 237.79,311.14" fill="none" stroke="#b2590a" stroke-width="1"/>
<polygon points="242.79,301.14 247.79,311.14 237.79,311.14" fill="#ff7f0e"/>
<polygon points="242.79,301.14 247.79,311.14 237.79,311.14" fill="none" stroke="#b2590a" stroke-width="1"/>
<polygon points="347.17,301.14 352.17,311.14 342.17,311.14" fill="#ff7f0e"/>
<polygon points="347.17,301.14 352.17,311.14 342.17,311.14" fill="none" stroke="#b2590a" stroke-width="1"/>
</g>
</g>
<text x="438.5" y="545" font-family="sans-serif" font-size="12" text-anchor="middle" fill="#444444" paint-order="stroke">Engine Displacement (L)</text>
<g transform="translate(22.1,280)">
<g transform="rotate(-90)">
<text x="0" y="0" font-family="sans-serif" font-size="12" text-anchor="middle" fill="#444444" paint-order="stroke">Highway MPG</text>
</g>
</g>
</svg>
