<?xml version="1.0" encoding="UTF-8"?>
<svg xmlns="http://www.w3.org/2000/svg" xmlns:xlink="http://www.w3.org/1999/xlink" version="1.1" width="900" height="560" viewBox="0 0 900 560">
<defs>
<clipPath id="clip0"><path d="M51 50h791v460h-791Z"/></clipPath>
<clipPath id="clip1"><path d="M51 50h791v460h-791Z"/></clipPath>
</defs>
<rect width="100%" height="100%" fill="#ffffff"/>
<rect x="0" y="0" width="900" height="560" fill="#ffffff"/>
<text x="450" y="25" font-family="sans-serif" font-size="14" font-weight="bold" text-anchor="middle" fill="#111111" paint-order="stroke">3. Stacked Columns (position = &apos;stack&apos;)</text>
<text x="861.96" y="72" font-family="sans-serif" font-size="11" font-weight="bold" text-anchor="start" fill="#222222" paint-order="stroke">drv</text>
<rect x="861.96" y="82" width="14" height="14" fill="#1f77b4" fill-opacity="0.85"/>
<rect x="861.96" y="82" width="14" height="14" fill="none" stroke="#16537e" stroke-width="0.5"/>
<text x="883.96" y="92" font-family="sans-serif" font-size="10" text-anchor="start" fill="#222222" paint-order="stroke">4</text>
<rect x="861.96" y="102" width="14" height="14" fill="#ff7f0e" fill-opacity="0.85"/>
<rect x="861.96" y="102" width="14" height="14" fill="none" stroke="#b2590a" stroke-width="0.5"/>
<text x="883.96" y="112" font-family="sans-serif" font-size="10" text-anchor="start" fill="#222222" paint-order="stroke">f</text>
<rect x="861.96" y="122" width="14" height="14" fill="#2ca02c" fill-opacity="0.85"/>
<rect x="861.96" y="122" width="14" height="14" fill="none" stroke="#1f701f" stroke-width="0.5"/>
<text x="883.96" y="132" font-family="sans-serif" font-size="10" text-anchor="start" fill="#222222" paint-order="stroke">r</text>
<rect x="51" y="50" width="791" height="460" fill="#ebebeb"/>
<line x1="107.5" y1="50" x2="107.5" y2="510" stroke="#ffffff" stroke-width="0.8"/>
<line x1="220.5" y1="50" x2="220.5" y2="510" stroke="#ffffff" stroke-width="0.8"/>
<line x1="333.5" y1="50" x2="333.5" y2="510" stroke="#ffffff" stroke-width="0.8"/>
<line x1="446.5" y1="50" x2="446.5" y2="510" stroke="#ffffff" stroke-width="0.8"/>
<line x1="559.5" y1="50" x2="559.5" y2="510" stroke="#ffffff" stroke-width="0.8"/>
<line x1="672.5" y1="50" x2="672.5" y2="510" stroke="#ffffff" stroke-width="0.8"/>
<line x1="785.5" y1="50" x2="785.5" y2="510" stroke="#ffffff" stroke-width="0.8"/>
<line x1="51" y1="394.67" x2="842" y2="394.67" stroke="#ffffff" stroke-width="0.8"/>
<line x1="51" y1="279.33" x2="842" y2="279.33" stroke="#ffffff" stroke-width="0.8"/>
<line x1="51" y1="164" x2="842" y2="164" stroke="#ffffff" stroke-width="0.8"/>
<line x1="51" y1="50" x2="51" y2="510" stroke="#ffffff" stroke-width="0.4"/>
<line x1="79.25" y1="50" x2="79.25" y2="510" stroke="#ffffff" stroke-width="0.4"/>
<line x1="135.75" y1="50" x2="135.75" y2="510" stroke="#ffffff" stroke-width="0.4"/>
<line x1="164" y1="50" x2="164" y2="510" stroke="#ffffff" stroke-width="0.4"/>
<line x1="192.25" y1="50" x2="192.25" y2="510" stroke="#ffffff" stroke-width="0.4"/>
<line x1="248.75" y1="50" x2="248.75" y2="510" stroke="#ffffff" stroke-width="0.4"/>
<line x1="277" y1="50" x2="277" y2="510" stroke="#ffffff" stroke-width="0.4"/>
<line x1="305.25" y1="50" x2="305.25" y2="510" stroke="#ffffff" stroke-width="0.4"/>
<line x1="361.75" y1="50" x2="361.75" y2="510" stroke="#ffffff" stroke-width="0.4"/>
<line x1="390" y1="50" x2="390" y2="510" stroke="#ffffff" stroke-width="0.4"/>
<line x1="418.25" y1="50" x2="418.25" y2="510" stroke="#ffffff" stroke-width="0.4"/>
<line x1="474.75" y1="50" x2="474.75" y2="510" stroke="#ffffff" stroke-width="0.4"/>
<line x1="503" y1="50" x2="503" y2="510" stroke="#ffffff" stroke-width="0.4"/>
<line x1="531.25" y1="50" x2="531.25" y2="510" stroke="#ffffff" stroke-width="0.4"/>
<line x1="587.75" y1="50" x2="587.75" y2="510" stroke="#ffffff" stroke-width="0.4"/>
<line x1="616" y1="50" x2="616" y2="510" stroke="#ffffff" stroke-width="0.4"/>
<line x1="644.25" y1="50" x2="644.25" y2="510" stroke="#ffffff" stroke-width="0.4"/>
<line x1="700.75" y1="50" x2="700.75" y2="510" stroke="#ffffff" stroke-width="0.4"/>
<line x1="729" y1="50" x2="729" y2="510" stroke="#ffffff" stroke-width="0.4"/>
<line x1="757.25" y1="50" x2="757.25" y2="510" stroke="#ffffff" stroke-width="0.4"/>
<line x1="813.75" y1="50" x2="813.75" y2="510" stroke="#ffffff" stroke-width="0.4"/>
<line x1="842" y1="50" x2="842" y2="510" stroke="#ffffff" stroke-width="0.4"/>
<line x1="51" y1="481.17" x2="842" y2="481.17" stroke="#ffffff" stroke-width="0.4"/>
<line x1="51" y1="452.33" x2="842" y2="452.33" stroke="#ffffff" stroke-width="0.4"/>
<line x1="51" y1="423.5" x2="842" y2="423.5" stroke="#ffffff" stroke-width="0.4"/>
<line x1="51" y1="365.83" x2="842" y2="365.83" stroke="#ffffff" stroke-width="0.4"/>
<line x1="51" y1="337" x2="842" y2="337" stroke="#ffffff" stroke-width="0.4"/>
<line x1="51" y1="308.16" x2="842" y2="308.16" stroke="#ffffff" stroke-width="0.4"/>
<line x1="51" y1="250.5" x2="842" y2="250.5" stroke="#ffffff" stroke-width="0.4"/>
<line x1="51" y1="221.66" x2="842" y2="221.66" stroke="#ffffff" stroke-width="0.4"/>
<line x1="51" y1="192.83" x2="842" y2="192.83" stroke="#ffffff" stroke-width="0.4"/>
<line x1="51" y1="135.16" x2="842" y2="135.16" stroke="#ffffff" stroke-width="0.4"/>
<line x1="51" y1="106.33" x2="842" y2="106.33" stroke="#ffffff" stroke-width="0.4"/>
<line x1="51" y1="77.49" x2="842" y2="77.49" stroke="#ffffff" stroke-width="0.4"/>
<line x1="51" y1="510" x2="842" y2="510" stroke="#333333" stroke-width="1"/>
<line x1="51" y1="50" x2="51" y2="510" stroke="#333333" stroke-width="1"/>
<line x1="107.5" y1="510" x2="107.5" y2="515" stroke="#333333" stroke-width="1"/>
<text x="107.5" y="524" font-family="sans-serif" font-size="9" text-anchor="middle" fill="#555555" paint-order="stroke">2seater</text>
<line x1="220.5" y1="510" x2="220.5" y2="515" stroke="#333333" stroke-width="1"/>
<text x="220.5" y="524" font-family="sans-serif" font-size="9" text-anchor="middle" fill="#555555" paint-order="stroke">compact</text>
<line x1="333.5" y1="510" x2="333.5" y2="515" stroke="#333333" stroke-width="1"/>
<text x="333.5" y="524" font-family="sans-serif" font-size="9" text-anchor="middle" fill="#555555" paint-order="stroke">midsize</text>
<line x1="446.5" y1="510" x2="446.5" y2="515" stroke="#333333" stroke-width="1"/>
<text x="446.5" y="524" font-family="sans-serif" font-size="9" text-anchor="middle" fill="#555555" paint-order="stroke">minivan</text>
<line x1="559.5" y1="510" x2="559.5" y2="515" stroke="#333333" stroke-width="1"/>
<text x="559.5" y="524" font-family="sans-serif" font-size="9" text-anchor="middle" fill="#555555" paint-order="stroke">pickup</text>
<line x1="672.5" y1="510" x2="672.5" y2="515" stroke="#333333" stroke-width="1"/>
<text x="672.5" y="524" font-family="sans-serif" font-size="9" text-anchor="middle" fill="#555555" paint-order="stroke">subcompact</text>
<line x1="785.5" y1="510" x2="785.5" y2="515" stroke="#333333" stroke-width="1"/>
<text x="785.5" y="524" font-family="sans-serif" font-size="9" text-anchor="middle" fill="#555555" paint-order="stroke">suv</text>
<line x1="51" y1="510" x2="46" y2="510" stroke="#333333" stroke-width="1"/>
<text x="41" y="514" font-family="sans-serif" font-size="9" text-anchor="end" fill="#555555" paint-order="stroke">0</text>
<line x1="51" y1="394.67" x2="46" y2="394.67" stroke="#333333" stroke-width="1"/>
<text x="41" y="398.67" font-family="sans-serif" font-size="9" text-anchor="end" fill="#555555" paint-order="stroke">20</text>
<line x1="51" y1="279.33" x2="46" y2="279.33" stroke="#333333" stroke-width="1"/>
<text x="41" y="283.33" font-family="sans-serif" font-size="9" text-anchor="end" fill="#555555" paint-order="stroke">40</text>
<line x1="51" y1="164" x2="46" y2="164" stroke="#333333" stroke-width="1"/>
<text x="41" y="168" font-family="sans-serif" font-size="9" text-anchor="end" fill="#555555" paint-order="stroke">60</text>
<g clip-path="url(#clip0)">
<g clip-path="url(#clip1)">
<rect x="207.5" y="361.03" width="26" height="148.97" fill="#1f77b4" stroke="#16537e" stroke-width="1"/>
<rect x="207.5" y="192.97" width="26" height="168.06" fill="#ff7f0e" stroke="#b2590a" stroke-width="1"/>
<rect x="320.5" y="371.6" width="26" height="138.4" fill="#1f77b4" stroke="#16537e" stroke-width="1"/>
<rect x="320.5" y="212.71" width="26" height="158.89" fill="#ff7f0e" stroke="#b2590a" stroke-width="1"/>
<rect x="772.5" y="404.62" width="26" height="105.38" fill="#1f77b4" stroke="#16537e" stroke-width="1"/>
<rect x="772.5" y="303.96" width="26" height="100.66" fill="#2ca02c" stroke="#1f701f" stroke-width="1"/>
<rect x="94.5" y="366.98" width="26" height="143.02" fill="#2ca02c"/>
<rect x="94.5" y="366.98" width="26" height="143.02" fill="#2ca02c" stroke="#1f701f" stroke-width="1"/>
<rect x="433.5" y="381.03" width="26" height="128.97" fill="#ff7f0e" stroke="#b2590a" stroke-width="1"/>
<rect x="546.5" y="412.66" width="26" height="97.34" fill="#1f77b4" stroke="#16537e" stroke-width="1"/>
<rect x="659.5" y="360.06" width="26" height="149.94" fill="#1f77b4"/>
<rect x="659.5" y="360.06" width="26" height="149.94" fill="#1f77b4" stroke="#16537e" stroke-width="1"/>
<rect x="659.5" y="183.92" width="26" height="176.15" fill="#ff7f0e" stroke="#b2590a" stroke-width="1"/>
<rect x="659.5" y="50" width="26" height="133.92" fill="#2ca02c" stroke="#1f701f" stroke-width="1"/>
</g>
</g>
<text x="446.5" y="545" font-family="sans-serif" font-size="12" text-anchor="middle" fill="#444444" paint-order="stroke">Vehicle Class</text>
<g transform="translate(21.99,280)">
<g transform="rotate(-90)">
<text x="0" y="0" font-family="sans-serif" font-size="12" text-anchor="middle" fill="#444444" paint-order="stroke">Mean Highway MPG</text>
</g>
</g>
</svg>
