<?xml version="1.0" encoding="UTF-8"?>
<svg xmlns="http://www.w3.org/2000/svg" xmlns:xlink="http://www.w3.org/1999/xlink" version="1.1" width="900" height="560" viewBox="0 0 900 560">
<defs>
<clipPath id="clip0"><path d="M51 50h799v460h-799Z"/></clipPath>
<clipPath id="clip1"><path d="M51 50h799v460h-799Z"/></clipPath>
</defs>
<rect width="100%" height="100%" fill="#ffffff"/>
<rect x="0" y="0" width="900" height="560" fill="#ffffff"/>
<text x="450" y="25" font-family="sans-serif" font-size="14" font-weight="bold" text-anchor="middle" fill="#111111" paint-order="stroke">12. Highway MPG with Diamond Outliers</text>
<rect x="51" y="50" width="799" height="460" fill="#ebebeb"/>
<line x1="108.07" y1="50" x2="108.07" y2="510" stroke="#ffffff" stroke-width="0.8"/>
<line x1="222.21" y1="50" x2="222.21" y2="510" stroke="#ffffff" stroke-width="0.8"/>
<line x1="336.36" y1="50" x2="336.36" y2="510" stroke="#ffffff" stroke-width="0.8"/>
<line x1="450.5" y1="50" x2="450.5" y2="510" stroke="#ffffff" stroke-width="0.8"/>
<line x1="564.64" y1="50" x2="564.64" y2="510" stroke="#ffffff" stroke-width="0.8"/>
<line x1="678.79" y1="50" x2="678.79" y2="510" stroke="#ffffff" stroke-width="0.8"/>
<line x1="792.93" y1="50" x2="792.93" y2="510" stroke="#ffffff" stroke-width="0.8"/>
<line x1="51" y1="384.55" x2="850" y2="384.55" stroke="#ffffff" stroke-width="0.8"/>
<line x1="51" y1="253.86" x2="850" y2="253.86" stroke="#ffffff" stroke-width="0.8"/>
<line x1="51" y1="123.18" x2="850" y2="123.18" stroke="#ffffff" stroke-width="0.8"/>
<line x1="51" y1="50" x2="51" y2="510" stroke="#ffffff" stroke-width="0.4"/>
<line x1="79.54" y1="50" x2="79.54" y2="510" stroke="#ffffff" stroke-width="0.4"/>
<line x1="136.61" y1="50" x2="136.61" y2="510" stroke="#ffffff" stroke-width="0.4"/>
<line x1="165.14" y1="50" x2="165.14" y2="510" stroke="#ffffff" stroke-width="0.4"/>
<line x1="193.68" y1="50" x2="193.68" y2="510" stroke="#ffffff" stroke-width="0.4"/>
<line x1="250.75" y1="50" x2="250.75" y2="510" stroke="#ffffff" stroke-width="0.4"/>
<line x1="279.29" y1="50" x2="279.29" y2="510" stroke="#ffffff" stroke-width="0.4"/>
<line x1="307.82" y1="50" x2="307.82" y2="510" stroke="#ffffff" stroke-width="0.4"/>
<line x1="364.89" y1="50" x2="364.89" y2="510" stroke="#ffffff" stroke-width="0.4"/>
<line x1="393.43" y1="50" x2="393.43" y2="510" stroke="#ffffff" stroke-width="0.4"/>
<line x1="421.96" y1="50" x2="421.96" y2="510" stroke="#ffffff" stroke-width="0.4"/>
<line x1="479.04" y1="50" x2="479.04" y2="510" stroke="#ffffff" stroke-width="0.4"/>
<line x1="507.57" y1="50" x2="507.57" y2="510" stroke="#ffffff" stroke-width="0.4"/>
<line x1="536.11" y1="50" x2="536.11" y2="510" stroke="#ffffff" stroke-width="0.4"/>
<line x1="593.18" y1="50" x2="593.18" y2="510" stroke="#ffffff" stroke-width="0.4"/>
<line x1="621.71" y1="50" x2="621.71" y2="510" stroke="#ffffff" stroke-width="0.4"/>
<line x1="650.25" y1="50" x2="650.25" y2="510" stroke="#ffffff" stroke-width="0.4"/>
<line x1="707.32" y1="50" x2="707.32" y2="510" stroke="#ffffff" stroke-width="0.4"/>
<line x1="735.86" y1="50" x2="735.86" y2="510" stroke="#ffffff" stroke-width="0.4"/>
<line x1="764.39" y1="50" x2="764.39" y2="510" stroke="#ffffff" stroke-width="0.4"/>
<line x1="821.46" y1="50" x2="821.46" y2="510" stroke="#ffffff" stroke-width="0.4"/>
<line x1="850" y1="50" x2="850" y2="510" stroke="#ffffff" stroke-width="0.4"/>
<line x1="51" y1="482.56" x2="850" y2="482.56" stroke="#ffffff" stroke-width="0.4"/>
<line x1="51" y1="449.89" x2="850" y2="449.89" stroke="#ffffff" stroke-width="0.4"/>
<line x1="51" y1="417.22" x2="850" y2="417.22" stroke="#ffffff" stroke-width="0.4"/>
<line x1="51" y1="351.88" x2="850" y2="351.88" stroke="#ffffff" stroke-width="0.4"/>
<line x1="51" y1="319.2" x2="850" y2="319.2" stroke="#ffffff" stroke-width="0.4"/>
<line x1="51" y1="286.53" x2="850" y2="286.53" stroke="#ffffff" stroke-width="0.4"/>
<line x1="51" y1="221.19" x2="850" y2="221.19" stroke="#ffffff" stroke-width="0.4"/>
<line x1="51" y1="188.52" x2="850" y2="188.52" stroke="#ffffff" stroke-width="0.4"/>
<line x1="51" y1="155.85" x2="850" y2="155.85" stroke="#ffffff" stroke-width="0.4"/>
<line x1="51" y1="90.51" x2="850" y2="90.51" stroke="#ffffff" stroke-width="0.4"/>
<line x1="51" y1="57.84" x2="850" y2="57.84" stroke="#ffffff" stroke-width="0.4"/>
<line x1="51" y1="510" x2="850" y2="510" stroke="#333333" stroke-width="1"/>
<line x1="51" y1="50" x2="51" y2="510" stroke="#333333" stroke-width="1"/>
<line x1="108.07" y1="510" x2="108.07" y2="515" stroke="#333333" stroke-width="1"/>
<text x="108.07" y="524" font-family="sans-serif" font-size="9" text-anchor="middle" fill="#555555" paint-order="stroke">2seater</text>
<line x1="222.21" y1="510" x2="222.21" y2="515" stroke="#333333" stroke-width="1"/>
<text x="222.21" y="524" font-family="sans-serif" font-size="9" text-anchor="middle" fill="#555555" paint-order="stroke">compact</text>
<line x1="336.36" y1="510" x2="336.36" y2="515" stroke="#333333" stroke-width="1"/>
<text x="336.36" y="524" font-family="sans-serif" font-size="9" text-anchor="middle" fill="#555555" paint-order="stroke">midsize</text>
<line x1="450.5" y1="510" x2="450.5" y2="515" stroke="#333333" stroke-width="1"/>
<text x="450.5" y="524" font-family="sans-serif" font-size="9" text-anchor="middle" fill="#555555" paint-order="stroke">minivan</text>
<line x1="564.64" y1="510" x2="564.64" y2="515" stroke="#333333" stroke-width="1"/>
<text x="564.64" y="524" font-family="sans-serif" font-size="9" text-anchor="middle" fill="#555555" paint-order="stroke">pickup</text>
<line x1="678.79" y1="510" x2="678.79" y2="515" stroke="#333333" stroke-width="1"/>
<text x="678.79" y="524" font-family="sans-serif" font-size="9" text-anchor="middle" fill="#555555" paint-order="stroke">subcompact</text>
<line x1="792.93" y1="510" x2="792.93" y2="515" stroke="#333333" stroke-width="1"/>
<text x="792.93" y="524" font-family="sans-serif" font-size="9" text-anchor="middle" fill="#555555" paint-order="stroke">suv</text>
<line x1="51" y1="384.55" x2="46" y2="384.55" stroke="#333333" stroke-width="1"/>
<text x="41" y="388.55" font-family="sans-serif" font-size="9" text-anchor="end" fill="#555555" paint-order="stroke">20</text>
<line x1="51" y1="253.86" x2="46" y2="253.86" stroke="#333333" stroke-width="1"/>
<text x="41" y="257.86" font-family="sans-serif" font-size="9" text-anchor="end" fill="#555555" paint-order="stroke">30</text>
<line x1="51" y1="123.18" x2="46" y2="123.18" stroke="#333333" stroke-width="1"/>
<text x="41" y="127.18" font-family="sans-serif" font-size="9" text-anchor="end" fill="#555555" paint-order="stroke">40</text>
<g clip-path="url(#clip0)">
<g clip-path="url(#clip1)">
<rect x="88.07" y="306.14" width="40" height="26.14" fill="#d4a017" stroke="#1c5480" stroke-width="1"/>
<line x1="108.07" y1="306.14" x2="108.07" y2="345.34" stroke="#1c5480" stroke-width="1"/>
<line x1="88.07" y1="306.14" x2="128.07" y2="306.14" stroke="#1c5480" stroke-width="1"/>
<line x1="88.07" y1="345.34" x2="128.07" y2="345.34" stroke="#1c5480" stroke-width="1"/>
<line x1="88.07" y1="319.2" x2="128.07" y2="319.2" stroke="#1c5480" stroke-width="2.5"/>
<rect x="202.21" y="266.93" width="40" height="39.2" fill="#d4a017" stroke="#1c5480" stroke-width="1"/>
<line x1="222.21" y1="214.66" x2="222.21" y2="345.34" stroke="#1c5480" stroke-width="1"/>
<line x1="202.21" y1="214.66" x2="242.21" y2="214.66" stroke="#1c5480" stroke-width="1"/>
<line x1="202.21" y1="345.34" x2="242.21" y2="345.34" stroke="#1c5480" stroke-width="1"/>
<line x1="202.21" y1="293.07" x2="242.21" y2="293.07" stroke="#1c5480" stroke-width="2.5"/>
<polygon points="222.21,185.02 225.71,188.52 222.21,192.02 218.71,188.52" fill="#e31a1c"/>
<polygon points="222.21,185.02 225.71,188.52 222.21,192.02 218.71,188.52" fill="none" stroke="#9f1214" stroke-width="1"/>
<polygon points="222.21,185.02 225.71,188.52 222.21,192.02 218.71,188.52" fill="#e31a1c"/>
<polygon points="222.21,185.02 225.71,188.52 222.21,192.02 218.71,188.52" fill="none" stroke="#9f1214" stroke-width="1"/>
<polygon points="222.21,158.89 225.71,162.39 222.21,165.89 218.71,162.39" fill="#e31a1c"/>
<polygon points="222.21,158.89 225.71,162.39 222.21,165.89 218.71,162.39" fill="none" stroke="#9f1214" stroke-width="1"/>
<polygon points="222.21,67.41 225.71,70.91 222.21,74.41 218.71,70.91" fill="#e31a1c"/>
<polygon points="222.21,67.41 225.71,70.91 222.21,74.41 218.71,70.91" fill="none" stroke="#9f1214" stroke-width="1"/>
<rect x="316.36" y="266.93" width="40" height="39.2" fill="#d4a017" stroke="#1c5480" stroke-width="1"/>
<line x1="336.36" y1="227.73" x2="336.36" y2="345.34" stroke="#1c5480" stroke-width="1"/>
<line x1="316.36" y1="227.73" x2="356.36" y2="227.73" stroke="#1c5480" stroke-width="1"/>
<line x1="316.36" y1="345.34" x2="356.36" y2="345.34" stroke="#1c5480" stroke-width="1"/>
<line x1="316.36" y1="293.07" x2="356.36" y2="293.07" stroke="#1c5480" stroke-width="2.5"/>
<rect x="430.5" y="332.27" width="40" height="26.14" fill="#d4a017" stroke="#1c5480" stroke-width="1"/>
<line x1="450.5" y1="332.27" x2="450.5" y2="371.48" stroke="#1c5480" stroke-width="1"/>
<line x1="430.5" y1="332.27" x2="470.5" y2="332.27" stroke="#1c5480" stroke-width="1"/>
<line x1="430.5" y1="371.48" x2="470.5" y2="371.48" stroke="#1c5480" stroke-width="1"/>
<line x1="430.5" y1="345.34" x2="470.5" y2="345.34" stroke="#1c5480" stroke-width="2.5"/>
<polygon points="450.5,420.25 454,423.75 450.5,427.25 447,423.75" fill="#e31a1c"/>
<polygon points="450.5,420.25 454,423.75 450.5,427.25 447,423.75" fill="none" stroke="#9f1214" stroke-width="1"/>
<rect x="544.64" y="410.68" width="40" height="26.14" fill="#d4a017" stroke="#1c5480" stroke-width="1"/>
<line x1="564.64" y1="384.55" x2="564.64" y2="449.89" stroke="#1c5480" stroke-width="1"/>
<line x1="544.64" y1="384.55" x2="584.64" y2="384.55" stroke="#1c5480" stroke-width="1"/>
<line x1="544.64" y1="449.89" x2="584.64" y2="449.89" stroke="#1c5480" stroke-width="1"/>
<line x1="544.64" y1="423.75" x2="584.64" y2="423.75" stroke="#1c5480" stroke-width="2.5"/>
<polygon points="564.64,485.59 568.14,489.09 564.64,492.59 561.14,489.09" fill="#e31a1c"/>
<polygon points="564.64,485.59 568.14,489.09 564.64,492.59 561.14,489.09" fill="none" stroke="#9f1214" stroke-width="1"/>
<polygon points="564.64,485.59 568.14,489.09 564.64,492.59 561.14,489.09" fill="#e31a1c"/>
<polygon points="564.64,485.59 568.14,489.09 564.64,492.59 561.14,489.09" fill="none" stroke="#9f1214" stroke-width="1"/>
<polygon points="564.64,485.59 568.14,489.09 564.64,492.59 561.14,489.09" fill="#e31a1c"/>
<polygon points="564.64,485.59 568.14,489.09 564.64,492.59 561.14,489.09" fill="none" stroke="#9f1214" stroke-width="1"/>
<polygon points="564.64,354.91 568.14,358.41 564.64,361.91 561.14,358.41" fill="#e31a1c"/>
<polygon points="564.64,354.91 568.14,358.41 564.64,361.91 561.14,358.41" fill="none" stroke="#9f1214" stroke-width="1"/>
<rect x="658.79" y="247.33" width="40" height="78.41" fill="#d4a017" stroke="#1c5480" stroke-width="1"/>
<line x1="678.79" y1="175.45" x2="678.79" y2="384.55" stroke="#1c5480" stroke-width="1"/>
<line x1="658.79" y1="175.45" x2="698.79" y2="175.45" stroke="#1c5480" stroke-width="1"/>
<line x1="658.79" y1="384.55" x2="698.79" y2="384.55" stroke="#1c5480" stroke-width="1"/>
<line x1="658.79" y1="306.14" x2="698.79" y2="306.14" stroke="#1c5480" stroke-width="2.5"/>
<polygon points="678.79,106.61 682.29,110.11 678.79,113.61 675.29,110.11" fill="#e31a1c"/>
<polygon points="678.79,106.61 682.29,110.11 678.79,113.61 675.29,110.11" fill="none" stroke="#9f1214" stroke-width="1"/>
<polygon points="678.79,67.41 682.29,70.91 678.79,74.41 675.29,70.91" fill="#e31a1c"/>
<polygon points="678.79,67.41 682.29,70.91 678.79,74.41 675.29,70.91" fill="none" stroke="#9f1214" stroke-width="1"/>
<rect x="772.93" y="397.61" width="40" height="26.14" fill="#d4a017" stroke="#1c5480" stroke-width="1"/>
<line x1="792.93" y1="358.41" x2="792.93" y2="462.95" stroke="#1c5480" stroke-width="1"/>
<line x1="772.93" y1="358.41" x2="812.93" y2="358.41" stroke="#1c5480" stroke-width="1"/>
<line x1="772.93" y1="462.95" x2="812.93" y2="462.95" stroke="#1c5480" stroke-width="1"/>
<line x1="772.93" y1="417.22" x2="812.93" y2="417.22" stroke="#1c5480" stroke-width="2.5"/>
<polygon points="792.93,485.59 796.43,489.09 792.93,492.59 789.43,489.09" fill="#e31a1c"/>
<polygon points="792.93,485.59 796.43,489.09 792.93,492.59 789.43,489.09" fill="none" stroke="#9f1214" stroke-width="1"/>
<polygon points="792.93,485.59 796.43,489.09 792.93,492.59 789.43,489.09" fill="#e31a1c"/>
<polygon points="792.93,485.59 796.43,489.09 792.93,492.59 789.43,489.09" fill="none" stroke="#9f1214" stroke-width="1"/>
<polygon points="792.93,341.84 796.43,345.34 792.93,348.84 789.43,345.34" fill="#e31a1c"/>
<polygon points="792.93,341.84 796.43,345.34 792.93,348.84 789.43,345.34" fill="none" stroke="#9f1214" stroke-width="1"/>
<polygon points="792.93,328.77 796.43,332.27 792.93,335.77 789.43,332.27" fill="#e31a1c"/>
<polygon points="792.93,328.77 796.43,332.27 792.93,335.77 789.43,332.27" fill="none" stroke="#9f1214" stroke-width="1"/>
<polygon points="792.93,315.7 796.43,319.2 792.93,322.7 789.43,319.2" fill="#e31a1c"/>
<polygon points="792.93,315.7 796.43,319.2 792.93,322.7 789.43,319.2" fill="none" stroke="#9f1214" stroke-width="1"/>
<polygon points="792.93,315.7 796.43,319.2 792.93,322.7 789.43,319.2" fill="#e31a1c"/>
<polygon points="792.93,315.7 796.43,319.2 792.93,322.7 789.43,319.2" fill="none" stroke="#9f1214" stroke-width="1"/>
<polygon points="792.93,302.64 796.43,306.14 792.93,309.64 789.43,306.14" fill="#e31a1c"/>
<polygon points="792.93,302.64 796.43,306.14 792.93,309.64 789.43,306.14" fill="none" stroke="#9f1214" stroke-width="1"/>
<polygon points="792.93,289.57 796.43,293.07 792.93,296.57 789.43,293.07" fill="#e31a1c"/>
<polygon points="792.93,289.57 796.43,293.07 792.93,296.57 789.43,293.07" fill="none" stroke="#9f1214" stroke-width="1"/>
</g>
</g>
<text x="450.5" y="545" font-family="sans-serif" font-size="12" text-anchor="middle" fill="#444444" paint-order="stroke">vehicle class</text>
<g transform="translate(22.1,280)">
<g transform="rotate(-90)">
<text x="0" y="0" font-family="sans-serif" font-size="12" text-anchor="middle" fill="#444444" paint-order="stroke">highway mpg</text>
</g>
</g>
</svg>
