<?xml version="1.0" encoding="UTF-8"?>
<svg xmlns="http://www.w3.org/2000/svg" xmlns:xlink="http://www.w3.org/1999/xlink" version="1.1" width="900" height="560" viewBox="0 0 900 560">
<defs>
<clipPath id="clip0"><path d="M51 50h799v460h-799Z"/></clipPath>
<clipPath id="clip1"><path d="M51 50h799v460h-799Z"/></clipPath>
<clipPath id="clip2"><path d="M51 50h799v460h-799Z"/></clipPath>
</defs>
<rect width="100%" height="100%" fill="#ffffff"/>
<rect x="0" y="0" width="900" height="560" fill="#ffffff"/>
<text x="450" y="25" font-family="sans-serif" font-size="14" font-weight="bold" text-anchor="middle" fill="#111111" paint-order="stroke">14. Highway MPG with Jittered Points</text>
<rect x="51" y="50" width="799" height="460" fill="#ebebeb"/>
<line x1="108.07" y1="50" x2="108.07" y2="510" stroke="#ffffff" stroke-width="0.8"/>
<line x1="222.21" y1="50" x2="222.21" y2="510" stroke="#ffffff" stroke-width="0.8"/>
<line x1="336.36" y1="50" x2="336.36" y2="510" stroke="#ffffff" stroke-width="0.8"/>
<line x1="450.5" y1="50" x2="450.5" y2="510" stroke="#ffffff" stroke-width="0.8"/>
<line x1="564.64" y1="50" x2="564.64" y2="510" stroke="#ffffff" stroke-width="0.8"/>
<line x1="678.79" y1="50" x2="678.79" y2="510" stroke="#ffffff" stroke-width="0.8"/>
<line x1="792.93" y1="50" x2="792.93" y2="510" stroke="#ffffff" stroke-width="0.8"/>
<line x1="51" y1="384.55" x2="850" y2="384.55" stroke="#ffffff" stroke-width="0.8"/>
<line x1="51" y1="253.86" x2="850" y2="253.86" stroke="#ffffff" stroke-width="0.8"/>
<line x1="51" y1="123.18" x2="850" y2="123.18" stroke="#ffffff" stroke-width="0.8"/>
<line x1="51" y1="50" x2="51" y2="510" stroke="#ffffff" stroke-width="0.4"/>
<line x1="79.54" y1="50" x2="79.54" y2="510" stroke="#ffffff" stroke-width="0.4"/>
<line x1="136.61" y1="50" x2="136.61" y2="510" stroke="#ffffff" stroke-width="0.4"/>
<line x1="165.14" y1="50" x2="165.14" y2="510" stroke="#ffffff" stroke-width="0.4"/>
<line x1="193.68" y1="50" x2="193.68" y2="510" stroke="#ffffff" stroke-width="0.4"/>
<line x1="250.75" y1="50" x2="250.75" y2="510" stroke="#ffffff" stroke-width="0.4"/>
<line x1="279.29" y1="50" x2="279.29" y2="510" stroke="#ffffff" stroke-width="0.4"/>
<line x1="307.82" y1="50" x2="307.82" y2="510" stroke="#ffffff" stroke-width="0.4"/>
<line x1="364.89" y1="50" x2="364.89" y2="510" stroke="#ffffff" stroke-width="0.4"/>
<line x1="393.43" y1="50" x2="393.43" y2="510" stroke="#ffffff" stroke-width="0.4"/>
<line x1="421.96" y1="50" x2="421.96" y2="510" stroke="#ffffff" stroke-width="0.4"/>
<line x1="479.04" y1="50" x2="479.04" y2="510" stroke="#ffffff" stroke-width="0.4"/>
<line x1="507.57" y1="50" x2="507.57" y2="510" stroke="#ffffff" stroke-width="0.4"/>
<line x1="536.11" y1="50" x2="536.11" y2="510" stroke="#ffffff" stroke-width="0.4"/>
<line x1="593.18" y1="50" x2="593.18" y2="510" stroke="#ffffff" stroke-width="0.4"/>
<line x1="621.71" y1="50" x2="621.71" y2="510" stroke="#ffffff" stroke-width="0.4"/>
<line x1="650.25" y1="50" x2="650.25" y2="510" stroke="#ffffff" stroke-width="0.4"/>
<line x1="707.32" y1="50" x2="707.32" y2="510" stroke="#ffffff" stroke-width="0.4"/>
<line x1="735.86" y1="50" x2="735.86" y2="510" stroke="#ffffff" stroke-width="0.4"/>
<line x1="764.39" y1="50" x2="764.39" y2="510" stroke="#ffffff" stroke-width="0.4"/>
<line x1="821.46" y1="50" x2="821.46" y2="510" stroke="#ffffff" stroke-width="0.4"/>
<line x1="850" y1="50" x2="850" y2="510" stroke="#ffffff" stroke-width="0.4"/>
<line x1="51" y1="482.56" x2="850" y2="482.56" stroke="#ffffff" stroke-width="0.4"/>
<line x1="51" y1="449.89" x2="850" y2="449.89" stroke="#ffffff" stroke-width="0.4"/>
<line x1="51" y1="417.22" x2="850" y2="417.22" stroke="#ffffff" stroke-width="0.4"/>
<line x1="51" y1="351.88" x2="850" y2="351.88" stroke="#ffffff" stroke-width="0.4"/>
<line x1="51" y1="319.2" x2="850" y2="319.2" stroke="#ffffff" stroke-width="0.4"/>
<line x1="51" y1="286.53" x2="850" y2="286.53" stroke="#ffffff" stroke-width="0.4"/>
<line x1="51" y1="221.19" x2="850" y2="221.19" stroke="#ffffff" stroke-width="0.4"/>
<line x1="51" y1="188.52" x2="850" y2="188.52" stroke="#ffffff" stroke-width="0.4"/>
<line x1="51" y1="155.85" x2="850" y2="155.85" stroke="#ffffff" stroke-width="0.4"/>
<line x1="51" y1="90.51" x2="850" y2="90.51" stroke="#ffffff" stroke-width="0.4"/>
<line x1="51" y1="57.84" x2="850" y2="57.84" stroke="#ffffff" stroke-width="0.4"/>
<line x1="51" y1="510" x2="850" y2="510" stroke="#333333" stroke-width="1"/>
<line x1="51" y1="50" x2="51" y2="510" stroke="#333333" stroke-width="1"/>
<line x1="108.07" y1="510" x2="108.07" y2="515" stroke="#333333" stroke-width="1"/>
<text x="108.07" y="524" font-family="sans-serif" font-size="9" text-anchor="middle" fill="#555555" paint-order="stroke">2seater</text>
<line x1="222.21" y1="510" x2="222.21" y2="515" stroke="#333333" stroke-width="1"/>
<text x="222.21" y="524" font-family="sans-serif" font-size="9" text-anchor="middle" fill="#555555" paint-order="stroke">compact</text>
<line x1="336.36" y1="510" x2="336.36" y2="515" stroke="#333333" stroke-width="1"/>
<text x="336.36" y="524" font-family="sans-serif" font-size="9" text-anchor="middle" fill="#555555" paint-order="stroke">midsize</text>
<line x1="450.5" y1="510" x2="450.5" y2="515" stroke="#333333" stroke-width="1"/>
<text x="450.5" y="524" font-family="sans-serif" font-size="9" text-anchor="middle" fill="#555555" paint-order="stroke">minivan</text>
<line x1="564.64" y1="510" x2="564.64" y2="515" stroke="#333333" stroke-width="1"/>
<text x="564.64" y="524" font-family="sans-serif" font-size="9" text-anchor="middle" fill="#555555" paint-order="stroke">pickup</text>
<line x1="678.79" y1="510" x2="678.79" y2="515" stroke="#333333" stroke-width="1"/>
<text x="678.79" y="524" font-family="sans-serif" font-size="9" text-anchor="middle" fill="#555555" paint-order="stroke">subcompact</text>
<line x1="792.93" y1="510" x2="792.93" y2="515" stroke="#333333" stroke-width="1"/>
<text x="792.93" y="524" font-family="sans-serif" font-size="9" text-anchor="middle" fill="#555555" paint-order="stroke">suv</text>
<line x1="51" y1="384.55" x2="46" y2="384.55" stroke="#333333" stroke-width="1"/>
<text x="41" y="388.55" font-family="sans-serif" font-size="9" text-anchor="end" fill="#555555" paint-order="stroke">20</text>
<line x1="51" y1="253.86" x2="46" y2="253.86" stroke="#333333" stroke-width="1"/>
<text x="41" y="257.86" font-family="sans-serif" font-size="9" text-anchor="end" fill="#555555" paint-order="stroke">30</text>
<line x1="51" y1="123.18" x2="46" y2="123.18" stroke="#333333" stroke-width="1"/>
<text x="41" y="127.18" font-family="sans-serif" font-size="9" text-anchor="end" fill="#555555" paint-order="stroke">40</text>
<g clip-path="url(#clip0)">
<g clip-path="url(#clip1)">
<rect x="88.07" y="306.14" width="40" height="26.14" fill="#9ecae1" stroke="#1c5480" stroke-width="1"/>
<line x1="108.07" y1="306.14" x2="108.07" y2="345.34" stroke="#1c5480" stroke-width="1"/>
<line x1="88.07" y1="306.14" x2="128.07" y2="306.14" stroke="#1c5480" stroke-width="1"/>
<line x1="88.07" y1="345.34" x2="128.07" y2="345.34" stroke="#1c5480" stroke-width="1"/>
<line x1="88.07" y1="319.2" x2="128.07" y2="319.2" stroke="#1c5480" stroke-width="2.5"/>
<rect x="202.21" y="266.93" width="40" height="39.2" fill="#9ecae1" stroke="#1c5480" stroke-width="1"/>
<line x1="222.21" y1="214.66" x2="222.21" y2="345.34" stroke="#1c5480" stroke-width="1"/>
<line x1="202.21" y1="214.66" x2="242.21" y2="214.66" stroke="#1c5480" stroke-width="1"/>
<line x1="202.21" y1="345.34" x2="242.21" y2="345.34" stroke="#1c5480" stroke-width="1"/>
<line x1="202.21" y1="293.07" x2="242.21" y2="293.07" stroke="#1c5480" stroke-width="2.5"/>
<rect x="316.36" y="266.93" width="40" height="39.2" fill="#9ecae1" stroke="#1c5480" stroke-width="1"/>
<line x1="336.36" y1="227.73" x2="336.36" y2="345.34" stroke="#1c5480" stroke-width="1"/>
<line x1="316.36" y1="227.73" x2="356.36" y2="227.73" stroke="#1c5480" stroke-width="1"/>
<line x1="316.36" y1="345.34" x2="356.36" y2="345.34" stroke="#1c5480" stroke-width="1"/>
<line x1="316.36" y1="293.07" x2="356.36" y2="293.07" stroke="#1c5480" stroke-width="2.5"/>
<rect x="430.5" y="332.27" width="40" height="26.14" fill="#9ecae1" stroke="#1c5480" stroke-width="1"/>
<line x1="450.5" y1="332.27" x2="450.5" y2="371.48" stroke="#1c5480" stroke-width="1"/>
<line x1="430.5" y1="332.27" x2="470.5" y2="332.27" stroke="#1c5480" stroke-width="1"/>
<line x1="430.5" y1="371.48" x2="470.5" y2="371.48" stroke="#1c5480" stroke-width="1"/>
<line x1="430.5" y1="345.34" x2="470.5" y2="345.34" stroke="#1c5480" stroke-width="2.5"/>
<rect x="544.64" y="410.68" width="40" height="26.14" fill="#9ecae1" stroke="#1c5480" stroke-width="1"/>
<line x1="564.64" y1="384.55" x2="564.64" y2="449.89" stroke="#1c5480" stroke-width="1"/>
<line x1="544.64" y1="384.55" x2="584.64" y2="384.55" stroke="#1c5480" stroke-width="1"/>
<line x1="544.64" y1="449.89" x2="584.64" y2="449.89" stroke="#1c5480" stroke-width="1"/>
<line x1="544.64" y1="423.75" x2="584.64" y2="423.75" stroke="#1c5480" stroke-width="2.5"/>
<rect x="658.79" y="247.33" width="40" height="78.41" fill="#9ecae1" stroke="#1c5480" stroke-width="1"/>
<line x1="678.79" y1="175.45" x2="678.79" y2="384.55" stroke="#1c5480" stroke-width="1"/>
<line x1="658.79" y1="175.45" x2="698.79" y2="175.45" stroke="#1c5480" stroke-width="1"/>
<line x1="658.79" y1="384.55" x2="698.79" y2="384.55" stroke="#1c5480" stroke-width="1"/>
<line x1="658.79" y1="306.14" x2="698.79" y2="306.14" stroke="#1c5480" stroke-width="2.5"/>
<rect x="772.93" y="397.61" width="40" height="26.14" fill="#9ecae1" stroke="#1c5480" stroke-width="1"/>
<line x1="792.93" y1="358.41" x2="792.93" y2="462.95" stroke="#1c5480" stroke-width="1"/>
<line x1="772.93" y1="358.41" x2="812.93" y2="358.41" stroke="#1c5480" stroke-width="1"/>
<line x1="772.93" y1="462.95" x2="812.93" y2="462.95" stroke="#1c5480" stroke-width="1"/>
<line x1="772.93" y1="417.22" x2="812.93" y2="417.22" stroke="#1c5480" stroke-width="2.5"/>
</g>
<g clip-path="url(#clip2)">
<g fill="#e31a1c" fill-opacity="0.6" stroke="#9f1214" stroke-opacity="0.6" stroke-width="1"><circle cx="215.9" cy="267.65" r="2.5"/><circle cx="207.79" cy="268.58" r="2.5"/><circle cx="233.71" cy="239.48" r="2.5"/><circle cx="212.56" cy="254.97" r="2.5"/><circle cx="215.84" cy="306.87" r="2.5"/><circle cx="201.06" cy="308.56" r="2.5"/><circle cx="226.8" cy="292.54" r="2.5"/><circle cx="230.02" cy="305.24" r="2.5"/><circle cx="226.97" cy="318.66" r="2.5"/><circle cx="219.51" cy="280.31" r="2.5"/><circle cx="211.39" cy="294.31" r="2.5"/><circle cx="209.52" cy="320.66" r="2.5"/><circle cx="200.24" cy="321.72" r="2.5"/><circle cx="243.78" cy="316.74" r="2.5"/><circle cx="206.47" cy="321.01" r="2.5"/><circle cx="355.89" cy="330.04" r="2.5"/><circle cx="318.79" cy="321.22" r="2.5"/><circle cx="320.84" cy="347.12" r="2.5"/><circle cx="802.4" cy="383.46" r="2.5"/><circle cx="801.79" cy="448.87" r="2.5"/><circle cx="786.52" cy="385.28" r="2.5"/><circle cx="770.8" cy="426.28" r="2.5"/><circle cx="770.38" cy="426.33" r="2.5"/><circle cx="114.79" cy="305.37" r="2.5"/><circle cx="117.61" cy="344.25" r="2.5"/><circle cx="119.69" cy="304.81" r="2.5"/><circle cx="86.2" cy="321.71" r="2.5"/><circle cx="97.02" cy="333.54" r="2.5"/><circle cx="785.28" cy="398.49" r="2.5"/><circle cx="802.41" cy="461.87" r="2.5"/><circle cx="777.78" cy="451.62" r="2.5"/><circle cx="781.13" cy="425.1" r="2.5"/><circle cx="313.88" cy="295.64" r="2.5"/><circle cx="341.1" cy="253.32" r="2.5"/><circle cx="353.34" cy="304.19" r="2.5"/><circle cx="350.8" cy="265.28" r="2.5"/><circle cx="337.35" cy="306.02" r="2.5"/><circle cx="446.15" cy="332.77" r="2.5"/><circle cx="468.43" cy="330.22" r="2.5"/><circle cx="431.82" cy="360.55" r="2.5"/><circle cx="460.74" cy="357.24" r="2.5"/><circle cx="433.04" cy="334.27" r="2.5"/><circle cx="440.23" cy="333.45" r="2.5"/><circle cx="456.13" cy="423.11" r="2.5"/><circle cx="448.69" cy="358.62" r="2.5"/><circle cx="437.23" cy="373" r="2.5"/><circle cx="429.96" cy="347.69" r="2.5"/><circle cx="445.01" cy="345.97" r="2.5"/><circle cx="576.2" cy="396.29" r="2.5"/><circle cx="567.36" cy="410.37" r="2.5"/><circle cx="579.81" cy="422.01" r="2.5"/><circle cx="581.34" cy="421.84" r="2.5"/><circle cx="556.07" cy="398.6" r="2.5"/><circle cx="586.33" cy="395.13" r="2.5"/><circle cx="567.03" cy="488.82" r="2.5"/><circle cx="553.14" cy="425.07" r="2.5"/><circle cx="573.06" cy="448.92" r="2.5"/><circle cx="804.42" cy="422.43" r="2.5"/><circle cx="779.9" cy="425.24" r="2.5"/><circle cx="812.45" cy="486.86" r="2.5"/><circle cx="814.41" cy="421.29" r="2.5"/><circle cx="799.67" cy="436.05" r="2.5"/><circle cx="780.85" cy="412.06" r="2.5"/><circle cx="793.15" cy="449.86" r="2.5"/><circle cx="584.39" cy="434.56" r="2.5"/><circle cx="572.14" cy="488.23" r="2.5"/><circle cx="582.17" cy="421.74" r="2.5"/><circle cx="547.28" cy="425.74" r="2.5"/><circle cx="573.69" cy="435.78" r="2.5"/><circle cx="579.47" cy="487.39" r="2.5"/><circle cx="545.81" cy="452.04" r="2.5"/><circle cx="557.92" cy="437.59" r="2.5"/><circle cx="583.77" cy="421.56" r="2.5"/><circle cx="542.07" cy="452.47" r="2.5"/><circle cx="784.99" cy="424.66" r="2.5"/><circle cx="808.22" cy="422" r="2.5"/><circle cx="789" cy="411.13" r="2.5"/><circle cx="799.58" cy="422.99" r="2.5"/><circle cx="787.37" cy="398.25" r="2.5"/><circle cx="793.74" cy="423.66" r="2.5"/><circle cx="779.78" cy="399.12" r="2.5"/><circle cx="803.01" cy="396.46" r="2.5"/><circle cx="812.1" cy="421.56" r="2.5"/><circle cx="547.98" cy="425.66" r="2.5"/><circle cx="575.23" cy="422.54" r="2.5"/><circle cx="580.07" cy="435.05" r="2.5"/><circle cx="546.51" cy="438.89" r="2.5"/><circle cx="560.51" cy="424.22" r="2.5"/><circle cx="578.6" cy="448.29" r="2.5"/><circle cx="549.58" cy="425.47" r="2.5"/><circle cx="682.71" cy="305.69" r="2.5"/><circle cx="656.66" cy="321.74" r="2.5"/><circle cx="696.84" cy="304.07" r="2.5"/><circle cx="662.96" cy="334.08" r="2.5"/><circle cx="682.52" cy="371.05" r="2.5"/><circle cx="662.73" cy="360.25" r="2.5"/><circle cx="680.96" cy="345.09" r="2.5"/><circle cx="697.11" cy="356.31" r="2.5"/><circle cx="684.45" cy="383.9" r="2.5"/><circle cx="685.83" cy="213.85" r="2.5"/><circle cx="665.57" cy="229.24" r="2.5"/><circle cx="684.95" cy="227.02" r="2.5"/><circle cx="700.43" cy="264.45" r="2.5"/><circle cx="695.79" cy="225.78" r="2.5"/><circle cx="688.44" cy="200.49" r="2.5"/><circle cx="680.63" cy="175.24" r="2.5"/><circle cx="693.09" cy="173.82" r="2.5"/><circle cx="682.79" cy="266.47" r="2.5"/><circle cx="319.29" cy="308.09" r="2.5"/><circle cx="326.79" cy="294.16" r="2.5"/><circle cx="337.66" cy="253.71" r="2.5"/><circle cx="325.4" cy="242.05" r="2.5"/><circle cx="357.6" cy="303.7" r="2.5"/><circle cx="328.34" cy="307.05" r="2.5"/><circle cx="339.99" cy="279.58" r="2.5"/><circle cx="691.56" cy="304.67" r="2.5"/><circle cx="677.27" cy="267.1" r="2.5"/><circle cx="683.97" cy="279.41" r="2.5"/><circle cx="661.54" cy="295.04" r="2.5"/><circle cx="694.54" cy="330.47" r="2.5"/><circle cx="693.23" cy="330.62" r="2.5"/><circle cx="686.35" cy="331.41" r="2.5"/><circle cx="801.8" cy="357.39" r="2.5"/><circle cx="798.57" cy="396.97" r="2.5"/><circle cx="778.44" cy="386.2" r="2.5"/><circle cx="777.93" cy="425.47" r="2.5"/><circle cx="794.83" cy="488.87" r="2.5"/><circle cx="776.69" cy="399.47" r="2.5"/><circle cx="808.74" cy="408.87" r="2.5"/><circle cx="793.37" cy="462.9" r="2.5"/><circle cx="792.33" cy="449.95" r="2.5"/><circle cx="800.53" cy="409.81" r="2.5"/><circle cx="809.09" cy="408.83" r="2.5"/><circle cx="792.84" cy="449.9" r="2.5"/><circle cx="788.08" cy="424.31" r="2.5"/><circle cx="777.62" cy="438.57" r="2.5"/><circle cx="797.85" cy="410.12" r="2.5"/><circle cx="791.86" cy="423.87" r="2.5"/><circle cx="775.4" cy="399.62" r="2.5"/><circle cx="780.4" cy="399.05" r="2.5"/><circle cx="783.22" cy="424.86" r="2.5"/><circle cx="215.72" cy="267.68" r="2.5"/><circle cx="218.79" cy="293.46" r="2.5"/><circle cx="322.49" cy="242.38" r="2.5"/><circle cx="318.96" cy="229.72" r="2.5"/><circle cx="318.62" cy="295.1" r="2.5"/><circle cx="348.88" cy="304.7" r="2.5"/><circle cx="348.75" cy="304.72" r="2.5"/><circle cx="337.34" cy="319.09" r="2.5"/><circle cx="351.2" cy="317.51" r="2.5"/><circle cx="778.51" cy="425.4" r="2.5"/><circle cx="797.1" cy="423.27" r="2.5"/><circle cx="805.26" cy="383.13" r="2.5"/><circle cx="809.32" cy="408.81" r="2.5"/><circle cx="320.73" cy="307.93" r="2.5"/><circle cx="336.88" cy="306.08" r="2.5"/><circle cx="327.35" cy="294.1" r="2.5"/><circle cx="347.47" cy="278.73" r="2.5"/><circle cx="333.53" cy="319.53" r="2.5"/><circle cx="808.67" cy="317.4" r="2.5"/><circle cx="784.24" cy="333.27" r="2.5"/><circle cx="793.59" cy="292.99" r="2.5"/><circle cx="806.15" cy="317.69" r="2.5"/><circle cx="771.26" cy="308.62" r="2.5"/><circle cx="792.56" cy="345.38" r="2.5"/><circle cx="664.66" cy="307.75" r="2.5"/><circle cx="677.01" cy="306.34" r="2.5"/><circle cx="687.64" cy="305.12" r="2.5"/><circle cx="657.16" cy="308.61" r="2.5"/><circle cx="214.81" cy="320.05" r="2.5"/><circle cx="244.08" cy="290.56" r="2.5"/><circle cx="242.05" cy="316.93" r="2.5"/><circle cx="221.66" cy="293.13" r="2.5"/><circle cx="804.54" cy="383.22" r="2.5"/><circle cx="804.42" cy="383.23" r="2.5"/><circle cx="775.4" cy="399.62" r="2.5"/><circle cx="771.89" cy="426.16" r="2.5"/><circle cx="812.04" cy="382.36" r="2.5"/><circle cx="807.8" cy="422.05" r="2.5"/><circle cx="315.45" cy="269.33" r="2.5"/><circle cx="344.18" cy="292.17" r="2.5"/><circle cx="333.1" cy="241.17" r="2.5"/><circle cx="339.58" cy="240.43" r="2.5"/><circle cx="336.27" cy="306.15" r="2.5"/><circle cx="319.84" cy="308.03" r="2.5"/><circle cx="334.99" cy="280.16" r="2.5"/><circle cx="216.89" cy="293.68" r="2.5"/><circle cx="213.72" cy="267.9" r="2.5"/><circle cx="230.84" cy="239.81" r="2.5"/><circle cx="204.01" cy="242.88" r="2.5"/><circle cx="243" cy="303.76" r="2.5"/><circle cx="239.98" cy="304.1" r="2.5"/><circle cx="217.02" cy="293.66" r="2.5"/><circle cx="210.05" cy="255.26" r="2.5"/><circle cx="207.43" cy="216.35" r="2.5"/><circle cx="243.77" cy="186.05" r="2.5"/><circle cx="203.17" cy="164.57" r="2.5"/><circle cx="221.54" cy="188.6" r="2.5"/><circle cx="772.34" cy="452.24" r="2.5"/><circle cx="799.57" cy="409.92" r="2.5"/><circle cx="544.7" cy="386.83" r="2.5"/><circle cx="557.06" cy="385.41" r="2.5"/><circle cx="549.99" cy="360.09" r="2.5"/><circle cx="558.73" cy="424.43" r="2.5"/><circle cx="584.5" cy="395.34" r="2.5"/><circle cx="559.98" cy="411.22" r="2.5"/><circle cx="567.65" cy="384.2" r="2.5"/><circle cx="233.76" cy="265.61" r="2.5"/><circle cx="226.66" cy="305.63" r="2.5"/><circle cx="211.96" cy="268.11" r="2.5"/><circle cx="230.81" cy="265.95" r="2.5"/><circle cx="212.44" cy="333.39" r="2.5"/><circle cx="220.01" cy="71.16" r="2.5"/><circle cx="226.33" cy="266.46" r="2.5"/><circle cx="220.14" cy="306.37" r="2.5"/><circle cx="228.13" cy="266.25" r="2.5"/><circle cx="208.11" cy="268.55" r="2.5"/><circle cx="233.15" cy="265.68" r="2.5"/><circle cx="205.79" cy="268.81" r="2.5"/><circle cx="221.08" cy="345.47" r="2.5"/><circle cx="210.74" cy="333.59" r="2.5"/><circle cx="669.22" cy="72" r="2.5"/><circle cx="684.11" cy="109.5" r="2.5"/><circle cx="697.85" cy="264.75" r="2.5"/><circle cx="677.27" cy="306.31" r="2.5"/><circle cx="669.8" cy="281.03" r="2.5"/><circle cx="684.62" cy="266.26" r="2.5"/><circle cx="356.8" cy="264.59" r="2.5"/><circle cx="326.2" cy="268.09" r="2.5"/><circle cx="342.69" cy="279.27" r="2.5"/><circle cx="324.6" cy="268.28" r="2.5"/><circle cx="345.08" cy="305.14" r="2.5"/><circle cx="358.33" cy="303.62" r="2.5"/><circle cx="350.46" cy="304.52" r="2.5"/></g>
</g>
</g>
<text x="450.5" y="545" font-family="sans-serif" font-size="12" text-anchor="middle" fill="#444444" paint-order="stroke">vehicle class</text>
<g transform="translate(22.1,280)">
<g transform="rotate(-90)">
<text x="0" y="0" font-family="sans-serif" font-size="12" text-anchor="middle" fill="#444444" paint-order="stroke">highway mpg</text>
</g>
</g>
</svg>
