<?xml version="1.0" encoding="UTF-8"?>
<svg xmlns="http://www.w3.org/2000/svg" xmlns:xlink="http://www.w3.org/1999/xlink" version="1.1" width="900" height="700" viewBox="0 0 900 700">
<rect width="100%" height="100%" fill="#ffffff"/>
<rect x="0" y="0" width="900" height="700" fill="#ffffff"/>
<text x="450" y="25" font-family="sans-serif" font-size="14" font-weight="bold" text-anchor="middle" fill="#111111" paint-order="stroke">Geoms.contour3d(): layer cake</text>
<path d="M651.62 474.9 L722.73 156.72 L479.47 77.27 L469.94 325.45 Z" fill="#ebebeb"/>
<path d="M651.62 474.9 L722.73 156.72 L479.47 77.27 L469.94 325.45 Z" fill="none" stroke="#b4b4b4" stroke-opacity="0.8" stroke-width="1"/>
<path d="M228.76 400.38 L177.27 115.52 L479.47 77.27 L469.94 325.45 Z" fill="#ebebeb"/>
<path d="M228.76 400.38 L177.27 115.52 L479.47 77.27 L469.94 325.45 Z" fill="none" stroke="#b4b4b4" stroke-opacity="0.8" stroke-width="1"/>
<path d="M348.82 622.73 L228.76 400.38 L469.94 325.45 L651.62 474.9 Z" fill="#ebebeb"/>
<path d="M348.82 622.73 L228.76 400.38 L469.94 325.45 L651.62 474.9 Z" fill="none" stroke="#b4b4b4" stroke-opacity="0.8" stroke-width="1"/>
<line x1="630.85" y1="457.81" x2="692.89" y2="146.97" stroke="#ffffff" stroke-width="0.53"/>
<line x1="334.26" y1="595.76" x2="630.85" y2="457.81" stroke="#ffffff" stroke-width="0.52"/>
<line x1="719.11" y1="172.9" x2="479.02" y2="88.98" stroke="#ffffff" stroke-width="0.52"/>
<line x1="600.33" y1="432.71" x2="650.06" y2="132.99" stroke="#ffffff" stroke-width="0.51"/>
<line x1="313.29" y1="556.91" x2="600.33" y2="432.71" stroke="#ffffff" stroke-width="0.49"/>
<line x1="705.93" y1="231.86" x2="477.35" y2="132.39" stroke="#ffffff" stroke-width="0.5"/>
<line x1="381.23" y1="606.91" x2="253.07" y2="392.82" stroke="#ffffff" stroke-width="0.5"/>
<line x1="572.48" y1="409.8" x2="611.98" y2="120.55" stroke="#ffffff" stroke-width="0.48"/>
<line x1="693.89" y1="285.76" x2="475.78" y2="173.2" stroke="#ffffff" stroke-width="0.48"/>
<line x1="429.81" y1="583.19" x2="290.17" y2="381.3" stroke="#ffffff" stroke-width="0.48"/>
<line x1="294.55" y1="522.22" x2="572.48" y2="409.8" stroke="#ffffff" stroke-width="0.47"/>
<line x1="475.2" y1="561.03" x2="325.53" y2="370.31" stroke="#ffffff" stroke-width="0.47"/>
<line x1="682.84" y1="335.22" x2="474.31" y2="211.61" stroke="#ffffff" stroke-width="0.47"/>
<line x1="179.79" y1="129.47" x2="479.02" y2="88.98" stroke="#ffffff" stroke-width="0.47"/>
<line x1="546.97" y1="388.81" x2="577.9" y2="109.42" stroke="#ffffff" stroke-width="0.46"/>
<line x1="517.71" y1="540.28" x2="359.3" y2="359.82" stroke="#ffffff" stroke-width="0.46"/>
<line x1="253.07" y1="392.82" x2="208.82" y2="111.53" stroke="#ffffff" stroke-width="0.46"/>
<line x1="189.06" y1="180.74" x2="477.35" y2="132.39" stroke="#ffffff" stroke-width="0.45"/>
<line x1="277.72" y1="491.05" x2="546.97" y2="388.81" stroke="#ffffff" stroke-width="0.45"/>
<line x1="290.17" y1="381.3" x2="256.48" y2="105.5" stroke="#ffffff" stroke-width="0.45"/>
<line x1="672.66" y1="380.77" x2="472.92" y2="247.85" stroke="#ffffff" stroke-width="0.45"/>
<line x1="557.59" y1="520.81" x2="391.56" y2="349.8" stroke="#ffffff" stroke-width="0.44"/>
<line x1="197.65" y1="228.28" x2="475.78" y2="173.2" stroke="#ffffff" stroke-width="0.44"/>
<line x1="325.53" y1="370.31" x2="301.38" y2="99.81" stroke="#ffffff" stroke-width="0.44"/>
<line x1="523.5" y1="369.51" x2="547.23" y2="99.4" stroke="#ffffff" stroke-width="0.44"/>
<line x1="262.52" y1="462.9" x2="523.5" y2="369.51" stroke="#ffffff" stroke-width="0.43"/>
<line x1="663.25" y1="422.86" x2="471.6" y2="282.08" stroke="#ffffff" stroke-width="0.43"/>
<line x1="205.64" y1="272.48" x2="474.31" y2="211.61" stroke="#ffffff" stroke-width="0.43"/>
<line x1="359.3" y1="359.82" x2="343.77" y2="94.45" stroke="#ffffff" stroke-width="0.43"/>
<line x1="595.09" y1="502.5" x2="422.41" y2="340.21" stroke="#ffffff" stroke-width="0.43"/>
<line x1="391.56" y1="349.8" x2="383.83" y2="89.38" stroke="#ffffff" stroke-width="0.42"/>
<line x1="501.85" y1="351.7" x2="519.47" y2="90.34" stroke="#ffffff" stroke-width="0.42"/>
<line x1="213.09" y1="313.69" x2="472.92" y2="247.85" stroke="#ffffff" stroke-width="0.41"/>
<line x1="630.41" y1="485.26" x2="451.96" y2="331.03" stroke="#ffffff" stroke-width="0.42"/>
<line x1="654.54" y1="461.86" x2="470.36" y2="314.48" stroke="#ffffff" stroke-width="0.42"/>
<line x1="248.72" y1="437.34" x2="501.85" y2="351.7" stroke="#ffffff" stroke-width="0.41"/>
<line x1="422.41" y1="340.21" x2="421.77" y2="84.58" stroke="#ffffff" stroke-width="0.4"/>
<line x1="220.05" y1="352.19" x2="471.6" y2="282.08" stroke="#ffffff" stroke-width="0.4"/>
<line x1="481.81" y1="335.22" x2="494.23" y2="82.09" stroke="#ffffff" stroke-width="0.4"/>
<line x1="451.96" y1="331.03" x2="457.75" y2="80.02" stroke="#ffffff" stroke-width="0.4"/>
<line x1="236.14" y1="414.03" x2="481.81" y2="335.22" stroke="#ffffff" stroke-width="0.39"/>
<line x1="226.57" y1="388.25" x2="470.36" y2="314.48" stroke="#ffffff" stroke-width="0.39"/>
<line x1="651.62" y1="474.9" x2="722.73" y2="156.72" stroke="#b4b4b4" stroke-opacity="0.8" stroke-width="1.11"/>
<line x1="722.73" y1="156.72" x2="479.47" y2="77.27" stroke="#b4b4b4" stroke-opacity="0.8" stroke-width="1.06"/>
<line x1="479.47" y1="77.27" x2="469.94" y2="325.45" stroke="#b4b4b4" stroke-opacity="0.8" stroke-width="0.78"/>
<line x1="469.94" y1="325.45" x2="651.62" y2="474.9" stroke="#b4b4b4" stroke-opacity="0.8" stroke-width="0.83"/>
<line x1="228.76" y1="400.38" x2="177.27" y2="115.52" stroke="#b4b4b4" stroke-opacity="0.8" stroke-width="0.94"/>
<line x1="177.27" y1="115.52" x2="479.47" y2="77.27" stroke="#b4b4b4" stroke-opacity="0.8" stroke-width="0.95"/>
<line x1="479.47" y1="77.27" x2="469.94" y2="325.45" stroke="#b4b4b4" stroke-opacity="0.8" stroke-width="0.78"/>
<line x1="469.94" y1="325.45" x2="228.76" y2="400.38" stroke="#b4b4b4" stroke-opacity="0.8" stroke-width="0.77"/>
<line x1="348.82" y1="622.73" x2="228.76" y2="400.38" stroke="#b4b4b4" stroke-opacity="0.8" stroke-width="1.02"/>
<line x1="228.76" y1="400.38" x2="469.94" y2="325.45" stroke="#b4b4b4" stroke-opacity="0.8" stroke-width="0.77"/>
<line x1="469.94" y1="325.45" x2="651.62" y2="474.9" stroke="#b4b4b4" stroke-opacity="0.8" stroke-width="0.83"/>
<line x1="651.62" y1="474.9" x2="348.82" y2="622.73" stroke="#b4b4b4" stroke-opacity="0.8" stroke-width="1.08"/>
<line x1="381.23" y1="606.91" x2="384.25" y2="611.97" stroke="#333333" stroke-width="1"/>
<g transform="translate(386.68,616.01)">
<g transform="rotate(59.1)">
<text x="0" y="0" font-family="sans-serif" font-size="9" text-anchor="start" dominant-baseline="central" fill="#555555" paint-order="stroke">-3</text>
</g>
</g>
<line x1="429.81" y1="583.19" x2="433.05" y2="587.87" stroke="#333333" stroke-width="1"/>
<g transform="translate(435.64,591.62)">
<g transform="rotate(55.33)">
<text x="0" y="0" font-family="sans-serif" font-size="9" text-anchor="start" dominant-baseline="central" fill="#555555" paint-order="stroke">-2</text>
</g>
</g>
<line x1="475.2" y1="561.03" x2="478.6" y2="565.36" stroke="#333333" stroke-width="1"/>
<g transform="translate(481.32,568.83)">
<g transform="rotate(51.88)">
<text x="0" y="0" font-family="sans-serif" font-size="9" text-anchor="start" dominant-baseline="central" fill="#555555" paint-order="stroke">-1</text>
</g>
</g>
<line x1="517.71" y1="540.28" x2="521.22" y2="544.29" stroke="#333333" stroke-width="1"/>
<g transform="translate(524.04,547.49)">
<g transform="rotate(48.72)">
<text x="0" y="0" font-family="sans-serif" font-size="9" text-anchor="start" dominant-baseline="central" fill="#555555" paint-order="stroke">0</text>
</g>
</g>
<line x1="557.59" y1="520.81" x2="561.19" y2="524.51" stroke="#333333" stroke-width="1"/>
<g transform="translate(564.07,527.48)">
<g transform="rotate(45.85)">
<text x="0" y="0" font-family="sans-serif" font-size="9" text-anchor="start" dominant-baseline="central" fill="#555555" paint-order="stroke">1</text>
</g>
</g>
<line x1="595.09" y1="502.5" x2="598.74" y2="505.93" stroke="#333333" stroke-width="1"/>
<g transform="translate(601.66,508.68)">
<g transform="rotate(43.22)">
<text x="0" y="0" font-family="sans-serif" font-size="9" text-anchor="start" dominant-baseline="central" fill="#555555" paint-order="stroke">2</text>
</g>
</g>
<line x1="630.41" y1="485.26" x2="634.09" y2="488.44" stroke="#333333" stroke-width="1"/>
<g transform="translate(637.04,490.99)">
<g transform="rotate(40.83)">
<text x="0" y="0" font-family="sans-serif" font-size="9" text-anchor="start" dominant-baseline="central" fill="#555555" paint-order="stroke">3</text>
</g>
</g>
<line x1="334.26" y1="595.76" x2="329" y2="598.21" stroke="#333333" stroke-width="1"/>
<g transform="translate(324.8,600.17)">
<g transform="rotate(-24.95)">
<text x="0" y="0" font-family="sans-serif" font-size="9" text-anchor="end" dominant-baseline="central" fill="#555555" paint-order="stroke">-3</text>
</g>
</g>
<line x1="313.29" y1="556.91" x2="308.26" y2="559.09" stroke="#333333" stroke-width="1"/>
<g transform="translate(304.24,560.83)">
<g transform="rotate(-23.4)">
<text x="0" y="0" font-family="sans-serif" font-size="9" text-anchor="end" dominant-baseline="central" fill="#555555" paint-order="stroke">-2</text>
</g>
</g>
<line x1="294.55" y1="522.22" x2="289.75" y2="524.16" stroke="#333333" stroke-width="1"/>
<g transform="translate(285.91,525.72)">
<g transform="rotate(-22.02)">
<text x="0" y="0" font-family="sans-serif" font-size="9" text-anchor="end" dominant-baseline="central" fill="#555555" paint-order="stroke">-1</text>
</g>
</g>
<line x1="277.72" y1="491.05" x2="273.13" y2="492.8" stroke="#333333" stroke-width="1"/>
<g transform="translate(269.45,494.19)">
<g transform="rotate(-20.79)">
<text x="0" y="0" font-family="sans-serif" font-size="9" text-anchor="end" dominant-baseline="central" fill="#555555" paint-order="stroke">0</text>
</g>
</g>
<line x1="262.52" y1="462.9" x2="258.11" y2="464.47" stroke="#333333" stroke-width="1"/>
<g transform="translate(254.59,465.73)">
<g transform="rotate(-19.69)">
<text x="0" y="0" font-family="sans-serif" font-size="9" text-anchor="end" dominant-baseline="central" fill="#555555" paint-order="stroke">1</text>
</g>
</g>
<line x1="248.72" y1="437.34" x2="244.49" y2="438.77" stroke="#333333" stroke-width="1"/>
<g transform="translate(241.11,439.91)">
<g transform="rotate(-18.69)">
<text x="0" y="0" font-family="sans-serif" font-size="9" text-anchor="end" dominant-baseline="central" fill="#555555" paint-order="stroke">2</text>
</g>
</g>
<line x1="236.14" y1="414.03" x2="232.07" y2="415.34" stroke="#333333" stroke-width="1"/>
<g transform="translate(228.82,416.38)">
<g transform="rotate(-17.79)">
<text x="0" y="0" font-family="sans-serif" font-size="9" text-anchor="end" dominant-baseline="central" fill="#555555" paint-order="stroke">3</text>
</g>
</g>
<line x1="226.57" y1="388.25" x2="222.55" y2="389.46" stroke="#333333" stroke-width="1"/>
<g transform="translate(219.34,390.44)">
<g transform="rotate(-16.84)">
<text x="0" y="0" font-family="sans-serif" font-size="9" text-anchor="end" dominant-baseline="central" fill="#555555" paint-order="stroke">-0.2</text>
</g>
</g>
<line x1="220.05" y1="352.19" x2="215.88" y2="353.35" stroke="#333333" stroke-width="1"/>
<g transform="translate(212.53,354.28)">
<g transform="rotate(-15.57)">
<text x="0" y="0" font-family="sans-serif" font-size="9" text-anchor="end" dominant-baseline="central" fill="#555555" paint-order="stroke">0</text>
</g>
</g>
<line x1="213.09" y1="313.69" x2="208.75" y2="314.79" stroke="#333333" stroke-width="1"/>
<g transform="translate(205.27,315.67)">
<g transform="rotate(-14.22)">
<text x="0" y="0" font-family="sans-serif" font-size="9" text-anchor="end" dominant-baseline="central" fill="#555555" paint-order="stroke">0.2</text>
</g>
</g>
<line x1="205.64" y1="272.48" x2="201.12" y2="273.51" stroke="#333333" stroke-width="1"/>
<g transform="translate(197.5,274.33)">
<g transform="rotate(-12.77)">
<text x="0" y="0" font-family="sans-serif" font-size="9" text-anchor="end" dominant-baseline="central" fill="#555555" paint-order="stroke">0.4</text>
</g>
</g>
<line x1="197.65" y1="228.28" x2="192.94" y2="229.21" stroke="#333333" stroke-width="1"/>
<g transform="translate(189.16,229.96)">
<g transform="rotate(-11.2)">
<text x="0" y="0" font-family="sans-serif" font-size="9" text-anchor="end" dominant-baseline="central" fill="#555555" paint-order="stroke">0.6</text>
</g>
</g>
<line x1="189.06" y1="180.74" x2="184.14" y2="181.56" stroke="#333333" stroke-width="1"/>
<g transform="translate(180.2,182.22)">
<g transform="rotate(-9.52)">
<text x="0" y="0" font-family="sans-serif" font-size="9" text-anchor="end" dominant-baseline="central" fill="#555555" paint-order="stroke">0.8</text>
</g>
</g>
<line x1="179.79" y1="129.47" x2="174.65" y2="130.16" stroke="#333333" stroke-width="1"/>
<g transform="translate(170.54,130.72)">
<g transform="rotate(-7.71)">
<text x="0" y="0" font-family="sans-serif" font-size="9" text-anchor="end" dominant-baseline="central" fill="#555555" paint-order="stroke">1</text>
</g>
</g>
<polygon points="467.36,332.7 458.66,331.49" fill="#000000" fill-opacity="0.85"/>
<polygon points="467.36,332.7 458.66,331.49" fill="none" stroke="#ffffff" stroke-opacity="0.85" stroke-width="0.91"/>
<polygon points="509.51,330.99 503.52,328.3 492.03,324.13 483.48,321.73 479.16,320.54 464.75,317.54 464.17,317.44 448.21,315.29 447.62,315.23 432.63,314.23 427.96,314.2 418.74,314.16 405.77,314.92 398.68,315.75" fill="#000000" fill-opacity="0.85"/>
<polygon points="509.51,330.99 503.52,328.3 492.03,324.13 483.48,321.73 479.16,320.54 464.75,317.54 464.17,317.44 448.21,315.29 447.62,315.23 432.63,314.23 427.96,314.2 418.74,314.16 405.77,314.92 398.68,315.75" fill="none" stroke="#ffffff" stroke-opacity="0.85" stroke-width="0.94"/>
<polygon points="266.09,391.68 261.47,397.66" fill="#000000" fill-opacity="0.85"/>
<polygon points="266.09,391.68 261.47,397.66" fill="none" stroke="#ffffff" stroke-opacity="0.85" stroke-width="0.95"/>
<polygon points="283.34,398.94 284.28,389.54 286.28,383.07 287.31,379.85 292.46,369.85 292.7,369.47 300.28,359.41 300.59,359.06 309.24,350.53 312.35,348.09 318.42,343.36 328.1,337.36 333.94,334.4" fill="#000000" fill-opacity="0.85"/>
<polygon points="283.34,398.94 284.28,389.54 286.28,383.07 287.31,379.85 292.46,369.85 292.7,369.47 300.28,359.41 300.59,359.06 309.24,350.53 312.35,348.09 318.42,343.36 328.1,337.36 333.94,334.4" fill="none" stroke="#ffffff" stroke-opacity="0.85" stroke-width="0.97"/>
<polygon points="606.16,457.37 606.62,449.85" fill="#000000" fill-opacity="0.85"/>
<polygon points="606.16,457.37 606.62,449.85" fill="none" stroke="#ffffff" stroke-opacity="0.85" stroke-width="0.99"/>
<polygon points="283.34,398.94 283.81,404.2" fill="#000000" fill-opacity="0.85"/>
<polygon points="283.34,398.94 283.81,404.2" fill="none" stroke="#ffffff" stroke-opacity="0.85" stroke-width="0.99"/>
<polygon points="541.26,449.04 546.75,444.34 554.77,435.25 558.92,428.49 560.95,425.11 565.21,413.93 565.32,413.48 567.09,401.44 567.11,401 566.29,390.1 565.41,386.78 563.63,380.38 559.37,371.67 556.19,367.08" fill="#000000" fill-opacity="0.85"/>
<polygon points="541.26,449.04 546.75,444.34 554.77,435.25 558.92,428.49 560.95,425.11 565.21,413.93 565.32,413.48 567.09,401.44 567.11,401 566.29,390.1 565.41,386.78 563.63,380.38 559.37,371.67 556.19,367.08" fill="none" stroke="#ffffff" stroke-opacity="0.85" stroke-width="0.99"/>
<polygon points="455.19,419.28 439.81,420.71 437.06,420.95 417.51,421.15 406.52,420.39 396.17,419.28 382.24,416.88 372.67,414.55 363.01,411.78 347.49,405.65 345.53,404.62 334.7,398.89 324.47,391.58 316.48,383.88 310.53,375.86 306.51,367.58 304.5,359.03 304.58,351.5 304.61,350.19 306.83,341.08 309.19,336.12 311.87,331.52 316.6,325.43 320.67,321.28 325.29,317.11 334.81,310.4 336.34,309.54 344.88,304.78 355.49,300.14 366.59,296.31 378.17,293.2 390.28,290.78 403.03,289.07 414.54,288.29 416.59,288.15 431.07,288.04 439.23,288.46 447,289.07 457.64,290.42 465.15,291.74 472.93,293.35 486.1,297.01 487.86,297.64 497.85,301.24 508.27,306.05 517.52,311.43 525.7,317.37 532.79,323.93 538.63,331.19 542.35,338.03 543,339.28 545.75,348.31 546.14,353.56 546,358.65 544.52,365.76 542.5,370.86 539.78,376.2 532.66,385.32 531.34,386.54 523.73,393.48 513.03,400.62 500.75,406.81 487,412.03 471.82,416.24 455.19,419.28" fill="#000000" fill-opacity="0.85"/>
<polygon points="455.19,419.28 439.81,420.71 437.06,420.95 417.51,421.15 406.52,420.39 396.17,419.28 382.24,416.88 372.67,414.55 363.01,411.78 347.49,405.65 345.53,404.62 334.7,398.89 324.47,391.58 316.48,383.88 310.53,375.86 306.51,367.58 304.5,359.03 304.58,351.5 304.61,350.19 306.83,341.08 309.19,336.12 311.87,331.52 316.6,325.43 320.67,321.28 325.29,317.11 334.81,310.4 336.34,309.54 344.88,304.78 355.49,300.14 366.59,296.31 378.17,293.2 390.28,290.78 403.03,289.07 414.54,288.29 416.59,288.15 431.07,288.04 439.23,288.46 447,289.07 457.64,290.42 465.15,291.74 472.93,293.35 486.1,297.01 487.86,297.64 497.85,301.24 508.27,306.05 517.52,311.43 525.7,317.37 532.79,323.93 538.63,331.19 542.35,338.03 543,339.28 545.75,348.31 546.14,353.56 546,358.65 544.52,365.76 542.5,370.86 539.78,376.2 532.66,385.32 531.34,386.54 523.73,393.48 513.03,400.62 500.75,406.81 487,412.03 471.82,416.24 455.19,419.28" fill="none" stroke="#ffffff" stroke-opacity="0.85" stroke-width="0.99"/>
<polygon points="459.35,355.6 455.84,356.06 441.85,357.79 422.56,358.43 415.05,358.12 401.17,356.97 389.67,355.23 376.97,352.37 370.48,350.59 355.53,344.88 346.1,339.79 343.78,338.5 334.82,331.6 328.4,324.28 324.4,316.61 324.06,314.97 322.9,308.59 324.05,300.19 325.36,297.02 328.58,291.25 332.39,286.57 337.97,281.44 341.27,278.83 351.26,272.79 359.86,268.89 362.04,267.93 373.52,264.06 385.69,261.05 398.62,258.86 401.41,258.58 412.45,257.53 427.42,257.14 433.25,257.33 444.11,258.02 453.26,259.09 463.67,260.87 469.13,262 482.41,265.73 491.53,269.22 493.85,270.13 503.7,275.16 512.07,280.83 518.92,287.21 519.98,288.63 524.07,294.39 527.16,302.54 527.5,305.8 527.27,312.01 525.78,317.36 522.49,323.54 520.22,326.81 511.95,334.8 503.71,340.27 501.55,341.65 489.23,347.42 475.14,352.09 459.35,355.6" fill="#000000" fill-opacity="0.85"/>
<polygon points="459.35,355.6 455.84,356.06 441.85,357.79 422.56,358.43 415.05,358.12 401.17,356.97 389.67,355.23 376.97,352.37 370.48,350.59 355.53,344.88 346.1,339.79 343.78,338.5 334.82,331.6 328.4,324.28 324.4,316.61 324.06,314.97 322.9,308.59 324.05,300.19 325.36,297.02 328.58,291.25 332.39,286.57 337.97,281.44 341.27,278.83 351.26,272.79 359.86,268.89 362.04,267.93 373.52,264.06 385.69,261.05 398.62,258.86 401.41,258.58 412.45,257.53 427.42,257.14 433.25,257.33 444.11,258.02 453.26,259.09 463.67,260.87 469.13,262 482.41,265.73 491.53,269.22 493.85,270.13 503.7,275.16 512.07,280.83 518.92,287.21 519.98,288.63 524.07,294.39 527.16,302.54 527.5,305.8 527.27,312.01 525.78,317.36 522.49,323.54 520.22,326.81 511.95,334.8 503.71,340.27 501.55,341.65 489.23,347.42 475.14,352.09 459.35,355.6" fill="none" stroke="#ffffff" stroke-opacity="0.85" stroke-width="1"/>
<polygon points="427.83,294.35 423.85,294.3 406.45,293.34 396.96,292.11 381.33,288.81 377.99,287.92 364.18,282.6 353.96,276.62 347.03,270.09 343.25,263.09 342.67,255.63 343.13,254.08 346.47,247.47 349.53,243.93 356.8,238.17 358.67,236.94 369.42,231.81 381.21,227.89 394.03,225.03 407.97,223.17 423.24,222.35 426.48,222.39 440.7,223.03 448.59,223.85 462.02,226.12 464.98,226.74 477.92,230.58 488.6,235.15 497.16,240.47 503.53,246.6 507.46,253.67 507.73,255.21 507.54,262.13 506.07,266.07 501.01,272.86 499.52,274.37 489.68,280.95 477.46,286.3 463.03,290.39 446.48,293.12 427.83,294.35" fill="#000000" fill-opacity="0.85"/>
<polygon points="427.83,294.35 423.85,294.3 406.45,293.34 396.96,292.11 381.33,288.81 377.99,287.92 364.18,282.6 353.96,276.62 347.03,270.09 343.25,263.09 342.67,255.63 343.13,254.08 346.47,247.47 349.53,243.93 356.8,238.17 358.67,236.94 369.42,231.81 381.21,227.89 394.03,225.03 407.97,223.17 423.24,222.35 426.48,222.39 440.7,223.03 448.59,223.85 462.02,226.12 464.98,226.74 477.92,230.58 488.6,235.15 497.16,240.47 503.53,246.6 507.46,253.67 507.73,255.21 507.54,262.13 506.07,266.07 501.01,272.86 499.52,274.37 489.68,280.95 477.46,286.3 463.03,290.39 446.48,293.12 427.83,294.35" fill="none" stroke="#ffffff" stroke-opacity="0.85" stroke-width="1.01"/>
<polygon points="448.75,225.57 445.88,225.89 430.84,227.15 409.71,226.58 408.36,226.44 389.77,222.78 379.02,218.84 377.09,218.02 369.57,212.4 368.99,211.35 367.01,206.01 369.71,198.85 370.13,198.4 379.62,192.26 389.27,188.68 391.25,188.03 404.82,185.36 407.37,185.12 420.5,184.17 438.83,184.59 440.01,184.7 456.84,187.52 467.38,190.71 469.36,191.38 478.07,196.25 478.97,197.19 482.85,202.22 482.93,209.55 482.68,210.03 474.96,216.98 465.53,221.32 463.51,222.14 448.75,225.57" fill="#000000" fill-opacity="0.85"/>
<polygon points="448.75,225.57 445.88,225.89 430.84,227.15 409.71,226.58 408.36,226.44 389.77,222.78 379.02,218.84 377.09,218.02 369.57,212.4 368.99,211.35 367.01,206.01 369.71,198.85 370.13,198.4 379.62,192.26 389.27,188.68 391.25,188.03 404.82,185.36 407.37,185.12 420.5,184.17 438.83,184.59 440.01,184.7 456.84,187.52 467.38,190.71 469.36,191.38 478.07,196.25 478.97,197.19 482.85,202.22 482.93,209.55 482.68,210.03 474.96,216.98 465.53,221.32 463.51,222.14 448.75,225.57" fill="none" stroke="#ffffff" stroke-opacity="0.85" stroke-width="1.03"/>
<polygon points="434.63,485.6 421.52,485.51 414.87,485.44 393.75,483.44 392.93,483.32 371.06,479.07 370.28,478.88 351.48,473.15 346.11,470.93 335.69,466.54 322.68,459.2 316.43,454.64" fill="#000000" fill-opacity="0.85"/>
<polygon points="434.63,485.6 421.52,485.51 414.87,485.44 393.75,483.44 392.93,483.32 371.06,479.07 370.28,478.88 351.48,473.15 346.11,470.93 335.69,466.54 322.68,459.2 316.43,454.64" fill="none" stroke="#ffffff" stroke-opacity="0.85" stroke-width="1.03"/>
<polygon points="462.82,482.41 452.96,484.07" fill="#000000" fill-opacity="0.85"/>
<polygon points="462.82,482.41 452.96,484.07" fill="none" stroke="#ffffff" stroke-opacity="0.85" stroke-width="1.04"/>
<polygon points="452.96,484.07 434.63,485.6" fill="#000000" fill-opacity="0.85"/>
<polygon points="452.96,484.07 434.63,485.6" fill="none" stroke="#ffffff" stroke-opacity="0.85" stroke-width="1.04"/>
<polygon points="373.65,563.22 360.66,560.32" fill="#000000" fill-opacity="0.85"/>
<polygon points="373.65,563.22 360.66,560.32" fill="none" stroke="#ffffff" stroke-opacity="0.85" stroke-width="1.04"/>
<g transform="translate(523.96,575.86)">
<g transform="rotate(-26.02)">
<text x="0" y="0" font-family="sans-serif" font-size="12" text-anchor="middle" dominant-baseline="central" fill="#444444" paint-order="stroke">x</text>
</g>
</g>
<g transform="translate(255.75,524.1)">
<g transform="rotate(61.63)">
<text x="0" y="0" font-family="sans-serif" font-size="12" text-anchor="middle" dominant-baseline="central" fill="#444444" paint-order="stroke">y</text>
</g>
</g>
<g transform="translate(164.6,266.7)">
<g transform="rotate(79.75)">
<text x="0" y="0" font-family="sans-serif" font-size="12" text-anchor="middle" dominant-baseline="central" fill="#444444" paint-order="stroke">z</text>
</g>
</g>
</svg>
